<?xml version="1.0" encoding="UTF-8"?>
<svg id="Capa_2" data-name="Capa 2" xmlns="http://www.w3.org/2000/svg" viewBox="0 0 80 89">
  <defs>
    <style>
      .cls-1 {
        fill: #fdfbed;
      }

      .cls-1, .cls-2, .cls-3, .cls-4, .cls-5, .cls-6 {
        stroke-width: 0px;
      }

      .cls-2 {
        fill: #f3cc44;
      }

      .cls-3 {
        fill: #6445e1;
      }

      .cls-4 {
        fill: #ee9234;
      }

      .cls-5 {
        fill: #5192d9;
      }

      .cls-6 {
        fill: #da6e5b;
      }
    </style>
  </defs>
  <g id="Capa_4" data-name="Capa 4">
    <g>
      <g>
        <path class="cls-2" d="m7.93,0h65.1c3.85,0,6.97,3.12,6.97,6.97v75.06c0,3.85-3.12,6.97-6.97,6.97H6.97c-3.85,0-6.97-3.12-6.97-6.97V7.93C0,3.55,3.55,0,7.93,0Z"/>
        <g>
          <path class="cls-1" d="m40,19.9c-1.57,0-3.1.13-4.6.39-1.04.16-2.06.4-3.06.69.38,1.14.43,2.28.21,3.37-.15.8-.45,1.58-.89,2.27,1.24-1.57,2.64-2.81,4.14-3.61,1.02-.56,2.1-.91,3.2-1.05v24.87h-13.52c.08-3.82.62-7.43,1.54-10.65.94-3.34,2.28-6.27,3.91-8.59-.71.78-1.62,1.4-2.7,1.79-.25.09-.49.16-.74.21-.83,1.61-1.54,3.38-2.13,5.28-1.13,3.6-1.8,7.66-1.88,11.96h-9.34c.22-6.06,2.53-11.6,6.24-15.91.66-.76,1.36-1.49,2.1-2.16-.27-.16-.53-.35-.78-.55-.27-.22-.53-.46-.76-.73-.75.68-1.47,1.43-2.11,2.21-4.19,4.87-6.71,11.2-6.71,18.09,0,15.04,11.97,27.33,26.88,27.85v.13h2v-.13c-.16.01-.33.02-.5.01.17,0,.34-.02.5-.04v.03c14.92-.52,26.88-12.81,26.88-27.85s-12.5-27.88-27.88-27.88Zm25.86,26.93h-9.33c-.21-10.35-3.78-19.29-8.92-23.79,10.28,3.17,17.84,12.58,18.25,23.79Zm-24.86-24.87c7.38.9,13.26,11.63,13.53,24.87h-13.53v-24.87Zm-26.86,26.87h9.34c.23,10.32,3.79,19.2,8.92,23.69-10.25-3.15-17.81-12.52-18.26-23.69Zm26.86,24.77v.04c-.33.01-.66.02-1,.02s-.67-.01-1-.02v-.04c-7.36-.9-13.22-11.58-13.51-24.77h13.51v24.77c.33.04.66.06,1,.06s.67-.02,1-.06v-24.77h13.52c-.29,13.19-6.15,23.87-13.52,24.77Zm6.62-1.08c5.13-4.5,8.68-13.38,8.91-23.69h9.33c-.45,11.16-8,20.53-18.24,23.69Z"/>
          <path class="cls-1" d="m35.4,20.29c-.04-.17-.1-.35-.16-.52-2-5.63-8.63-8.3-14.1-5.26-4.29,2.38-6.12,7.9-4.2,12.42.38.91.89,1.73,1.52,2.44.01.02.02.05.06.07l.31.25,1.55,1.23,1.13.91,3.85,3.04,1.66,1.31,4.4,3.48c.3.24.74.08.83-.29l2.73-12.33.81-3.75s.01-.07,0-.09c0-.06,0-.13.01-.19.01-.9-.12-1.82-.4-2.72Zm-4.47,7.3c-.71.78-1.62,1.4-2.7,1.79-.25.09-.49.16-.74.21-1.76.41-3.55.07-5.01-.83-.27-.16-.53-.35-.78-.55-.27-.22-.53-.46-.76-.73-.48-.54-.87-1.17-1.16-1.88-1.23-3.05.02-6.76,2.89-8.36,3.75-2.08,8.26-.24,9.62,3.59.02.05.03.1.05.15.38,1.14.43,2.28.21,3.37-.15.8-.45,1.58-.89,2.27-.21.35-.46.67-.73.97Z"/>
        </g>
        <g>
          <path class="cls-6" d="m54.76,64.06c-.12-.07-.16-.23-.08-.35,0,0,0,0,0,0l5.27-8.18-.75-2.79c-.05-.13.02-.28.16-.33s.28.02.33.16c0,.02,0,.03.01.05l.8,3.01-5.38,8.37c-.08.12-.24.15-.36.08h0s0,0,0,0Z"/>
          <path class="cls-6" d="m56.03,64.95c-.12-.07-.15-.22-.08-.34,0,0,0,0,0-.01l5.39-8.38,3.6-.24c.14-.01.27.09.28.24,0,.14-.1.26-.24.27l-3.35.23-5.25,8.16c-.07.12-.23.16-.35.08,0,0,0,0,0,0h0Z"/>
          <path class="cls-6" d="m50.77,71.38s.81-.5,1.95-1.37l-1.41-.97c-.38,1.43-.54,2.34-.54,2.34Z"/>
          <path class="cls-6" d="m54.91,68.31l-2.89-1.92c-.18.53-.35,1.04-.49,1.53l2.16,1.44c.39-.32.78-.64,1.22-1.04Z"/>
          <path class="cls-5" d="m56.05,67.36c2.79-2.9,5.25-6.74,6.29-8.24l-4.86-3.39c-1.96,2.89-3.64,5.96-5.02,9.17-.08.2-.16.4-.23.59l3.42,2.28c.13-.13.26-.27.4-.41Z"/>
          <path class="cls-3" d="m44.99,53.43l11.97,8.35s-.03-6.21-2.97-8.27-8.98-.01-9-.08Z"/>
          <path class="cls-4" d="m56.96,61.78l-11.97-8.35s.03,6.22,2.97,8.27,8.98.01,9,.08Z"/>
          <path class="cls-3" d="m57.06,61.54l11.97,8.34s-.03-6.21-2.97-8.27-8.99,0-9-.08Z"/>
          <path class="cls-4" d="m69.03,69.89l-11.97-8.36s.04,6.22,2.97,8.27,8.98.02,8.99.09Z"/>
        </g>
      </g>
      <g>
        <path class="cls-6" d="m61.1,80.87c-.07-.04-.09-.13-.05-.2,0,0,0,0,0,0l3.07-4.77-.43-1.63c-.03-.08.01-.16.09-.19s.16.01.19.09c0,0,0,.02,0,.03l.47,1.75-3.14,4.88c-.05.07-.14.09-.21.04h0s0,0,0,0Z"/>
        <path class="cls-6" d="m61.84,81.39c-.07-.04-.09-.13-.05-.2,0,0,0,0,0,0l3.14-4.89,2.1-.14c.08,0,.16.05.16.14,0,.08-.06.15-.14.16l-1.95.13-3.06,4.76c-.04.07-.13.09-.2.05,0,0,0,0,0,0h0Z"/>
        <path class="cls-6" d="m58.77,85.14s.47-.29,1.14-.8l-.82-.57c-.22.83-.31,1.36-.31,1.36Z"/>
        <path class="cls-6" d="m61.19,83.34l-1.69-1.12c-.11.31-.2.6-.29.89l1.26.84c.23-.19.46-.37.71-.61Z"/>
        <path class="cls-5" d="m61.85,82.79c1.63-1.69,3.06-3.93,3.67-4.8l-2.83-1.98c-1.14,1.69-2.12,3.48-2.93,5.35-.05.11-.09.23-.13.34l2,1.33c.08-.08.15-.16.23-.24Z"/>
        <path class="cls-3" d="m55.4,74.67l6.98,4.87s-.02-3.62-1.73-4.82-5.24,0-5.25-.05Z"/>
        <path class="cls-4" d="m62.38,79.54l-6.98-4.87s.02,3.63,1.73,4.82,5.24,0,5.25.05Z"/>
        <path class="cls-3" d="m62.44,79.4l6.98,4.87s-.02-3.62-1.73-4.82-5.25,0-5.25-.05Z"/>
        <path class="cls-4" d="m69.42,84.27l-6.98-4.87s.02,3.63,1.73,4.82,5.24.01,5.25.05Z"/>
      </g>
    </g>
  </g>
</svg>