<?xml version="1.0" encoding="UTF-8"?>
<svg id="Capa_2" data-name="Capa 2" xmlns="http://www.w3.org/2000/svg" viewBox="0 0 80 89">
  <defs>
    <style>
      .cls-1 {
        fill: #fdfbed;
      }

      .cls-1, .cls-2, .cls-3, .cls-4, .cls-5, .cls-6, .cls-7 {
        stroke-width: 0px;
      }

      .cls-2 {
        fill: #6445e1;
      }

      .cls-3 {
        fill: #ee9234;
      }

      .cls-4 {
        fill: #9f9e9e;
      }

      .cls-5 {
        fill: #5192d9;
      }

      .cls-6 {
        fill: #da6e5b;
      }

      .cls-7 {
        fill: #fde89a;
      }
    </style>
  </defs>
  <g id="Capa_4" data-name="Capa 4">
    <g>
      <path class="cls-2" d="m7.93,0h65.1c3.85,0,6.97,3.12,6.97,6.97v75.06c0,3.85-3.12,6.97-6.97,6.97H6.97c-3.85,0-6.97-3.12-6.97-6.97V7.93C0,3.55,3.55,0,7.93,0Z"/>
      <g>
        <path class="cls-1" d="m63.17,67.75c-.18,0-.36-.05-.52-.16l-10.69-7.07c-3.91.54-7.65.37-11.21-.44-.32-.07-.58-.31-.68-.63-.1-.32-.03-.66.2-.91,2.23-2.48,3.4-5.42,3.4-8.5,0-7.97-7.94-14.46-17.71-14.46-.97,0-1.93.06-2.86.19-.3.04-.62-.07-.82-.31s-.28-.55-.21-.86c2.56-9.91,13.27-17.11,25.48-17.11,14.36,0,26.05,9.72,26.05,21.67,0,6.52-3.45,12.59-9.49,16.73v10.91c0,.34-.19.66-.49.82-.14.07-.29.11-.44.11Zm-10.98-9.14c.18,0,.36.05.52.16l9.53,6.31v-9.67c0-.32.16-.61.42-.78,5.77-3.79,9.07-9.42,9.07-15.44,0-10.91-10.84-19.79-24.18-19.79-10.81,0-20.35,5.98-23.27,14.39.56-.04,1.12-.06,1.69-.06,10.8,0,19.58,7.33,19.58,16.33,0,3.05-.99,5.96-2.87,8.51,3,.51,6.11.55,9.37.06.05,0,.09-.01.14-.01Z"/>
        <path class="cls-1" d="m14.38,71.49c-.15,0-.3-.04-.44-.11-.3-.16-.49-.48-.49-.82v-7.98c-4.49-3.11-7.05-7.66-7.05-12.54,0-8.07,6.93-14.86,16.47-16.12,1.01-.14,2.06-.2,3.11-.2,10.8,0,19.58,7.33,19.58,16.33,0,3.55-1.34,6.93-3.88,9.75-3.67,4.11-9.54,6.57-15.7,6.57-1.07,0-2.13-.07-3.23-.22l-7.85,5.2c-.16.1-.34.16-.52.16Zm11.59-35.91c-.97,0-1.93.06-2.86.19-8.6,1.14-14.84,7.14-14.84,14.27,0,4.39,2.42,8.5,6.63,11.26.26.17.42.47.42.78v6.73l6.69-4.43c.19-.13.43-.18.66-.14,1.13.17,2.21.25,3.31.25,5.63,0,10.98-2.22,14.3-5.94,2.23-2.48,3.4-5.42,3.4-8.51,0-7.97-7.94-14.46-17.71-14.46Z"/>
        <g>
          <circle class="cls-1" cx="22.04" cy="50.78" r="1.24"/>
          <circle class="cls-1" cx="25.97" cy="50.78" r="1.24"/>
          <circle class="cls-1" cx="29.91" cy="50.78" r="1.24"/>
        </g>
      </g>
      <g>
        <g>
          <path class="cls-5" d="m55.46,74.27c1.51-1.08,3.37-1.54,5.21-1.28l-8.08,5.81c.33-1.83,1.36-3.45,2.87-4.53Z"/>
          <path class="cls-5" d="m55.74,79.36c1.51-1.08,3.37-1.54,5.21-1.28l-8.08,5.81c.34-1.83,1.36-3.45,2.87-4.53Z"/>
          <path class="cls-3" d="m49.98,74.58c-1.51-1.08-3.37-1.54-5.21-1.28l8.08,5.81c-.33-1.83-1.36-3.45-2.87-4.53Z"/>
          <path class="cls-3" d="m49.98,79.67c-1.51-1.08-3.37-1.54-5.21-1.28l8.08,5.81c-.33-1.83-1.36-3.45-2.87-4.53Z"/>
          <rect class="cls-5" x="52.28" y="70.2" width=".86" height="18.8"/>
          <path class="cls-4" d="m55.81,68.25c.05,1.87-1.43,3.42-3.3,3.46-1.87.05-3.42-1.43-3.46-3.3,0-.06,0-.11,0-.17h6.76Z"/>
          <path class="cls-6" d="m52.45,68.44s-4.81.28-5.87-.66-.83-5.36-.83-5.36c0,0,5.48-1.13,6.67-.07s.04,6.09.04,6.09Z"/>
          <path class="cls-7" d="m52.45,68.44s4.85.18,5.89-.79.73-5.37.73-5.37c0,0-5.5-1.02-6.67.07s.05,6.09.05,6.09Z"/>
        </g>
        <g>
          <path class="cls-5" d="m43.56,79.07c1.51-1.08,3.37-1.54,5.21-1.28l-8.08,5.81c.33-1.83,1.36-3.45,2.87-4.53Z"/>
          <path class="cls-5" d="m43.84,84.16c1.51-1.08,3.37-1.54,5.21-1.28l-8.08,5.81c.34-1.83,1.36-3.45,2.87-4.53Z"/>
          <path class="cls-3" d="m38.08,79.38c-1.51-1.08-3.37-1.54-5.21-1.28l8.08,5.81c-.33-1.83-1.36-3.45-2.87-4.53Z"/>
          <path class="cls-3" d="m38.08,84.47c-1.51-1.08-3.37-1.54-5.21-1.28l8.08,5.81c-.33-1.83-1.36-3.45-2.87-4.53Z"/>
          <polygon class="cls-5" points="41.24 88.76 41.24 88.51 41.24 87.7 41.24 83.21 41.24 81.9 41.24 76.45 41.24 75 40.38 75 40.38 76.51 40.38 82.15 40.38 83.5 40.38 87.24 40.38 88.59 40.38 88.76 41.24 88.76"/>
          <path class="cls-4" d="m43.91,73.05c.05,1.87-1.43,3.42-3.3,3.46-1.87.05-3.42-1.43-3.46-3.3,0-.06,0-.11,0-.17h6.76Z"/>
          <path class="cls-6" d="m40.55,73.23s-4.81.28-5.87-.66-.83-5.36-.83-5.36c0,0,5.48-1.13,6.67-.07s.04,6.09.04,6.09Z"/>
          <path class="cls-7" d="m40.55,73.23s4.85.18,5.89-.79.73-5.37.73-5.37c0,0-5.5-1.02-6.67.07s.05,6.09.05,6.09Z"/>
        </g>
        <g>
          <path class="cls-5" d="m66.5,79.07c1.51-1.08,3.37-1.54,5.21-1.28l-8.08,5.81c.33-1.83,1.36-3.45,2.87-4.53Z"/>
          <path class="cls-5" d="m66.78,84.16c1.51-1.08,3.37-1.54,5.21-1.28l-8.08,5.81c.34-1.83,1.36-3.45,2.87-4.53Z"/>
          <path class="cls-3" d="m61.02,79.38c-1.51-1.08-3.37-1.54-5.21-1.28l8.08,5.81c-.33-1.83-1.36-3.45-2.87-4.53Z"/>
          <path class="cls-3" d="m61.02,84.47c-1.51-1.08-3.37-1.54-5.21-1.28l8.08,5.81c-.33-1.83-1.36-3.45-2.87-4.53Z"/>
          <polygon class="cls-5" points="64.18 88.76 64.18 88.51 64.18 87.7 64.18 83.21 64.18 81.9 64.18 76.45 64.18 75 63.32 75 63.32 76.51 63.32 82.15 63.32 83.5 63.32 87.24 63.32 88.59 63.32 88.76 64.18 88.76"/>
          <path class="cls-4" d="m66.85,73.05c.05,1.87-1.43,3.42-3.3,3.46-1.87.05-3.42-1.43-3.46-3.3,0-.06,0-.11,0-.17h6.76Z"/>
          <path class="cls-6" d="m63.49,73.23s-4.81.28-5.87-.66-.83-5.36-.83-5.36c0,0,5.48-1.13,6.67-.07s.04,6.09.04,6.09Z"/>
          <path class="cls-7" d="m63.49,73.23s4.85.18,5.89-.79.73-5.37.73-5.37c0,0-5.5-1.02-6.67.07s.05,6.09.05,6.09Z"/>
        </g>
      </g>
    </g>
  </g>
</svg>