<?xml version="1.0" encoding="UTF-8"?>
<svg id="Capa_2" data-name="Capa 2" xmlns="http://www.w3.org/2000/svg" viewBox="0 0 80 89">
  <defs>
    <style>
      .cls-1 {
        fill: #fdfbed;
      }

      .cls-1, .cls-2, .cls-3, .cls-4, .cls-5, .cls-6, .cls-7, .cls-8 {
        stroke-width: 0px;
      }

      .cls-2 {
        fill: #fdf6e6;
      }

      .cls-3 {
        fill: #f3cc44;
      }

      .cls-4 {
        fill: #ee9234;
      }

      .cls-5 {
        fill: #a09f9f;
      }

      .cls-6 {
        fill: #847ce1;
      }

      .cls-7 {
        fill: #5192d9;
      }

      .cls-8 {
        fill: #da6e5b;
      }
    </style>
  </defs>
  <g id="Capa_4" data-name="Capa 4">
    <g>
      <path class="cls-7" d="m7.93,0h65.1c3.85,0,6.97,3.12,6.97,6.97v75.06c0,3.85-3.12,6.97-6.97,6.97H6.97c-3.85,0-6.97-3.12-6.97-6.97V7.93C0,3.55,3.55,0,7.93,0Z"/>
      <g>
        <path class="cls-1" d="m23.56,69.41h-.73c-2.38,0-4.31-1.93-4.31-4.31v-17.27h9.34v17.27c0,2.38-1.93,4.31-4.31,4.31Zm-3.32-19.86v15.55c0,1.43,1.16,2.59,2.59,2.59h.73c1.43,0,2.59-1.16,2.59-2.59v-15.55h-5.91Z"/>
        <path class="cls-1" d="m33.65,49.24h-17.55c-4.3,0-7.8-3.5-7.8-7.8v-1.39c0-4.3,3.5-7.8,7.8-7.8h17.55c.47,0,.86.38.86.86v15.28c0,.47-.38.86-.86.86Zm-17.55-15.28c-3.36,0-6.09,2.73-6.09,6.09v1.39c0,3.36,2.73,6.09,6.09,6.09h16.69v-13.57h-16.69Z"/>
        <path class="cls-1" d="m60.73,61.89c-.12,0-.24-.03-.36-.08l-26.86-12.34c-.31-.14-.5-.44-.5-.78v-15.59c0-.33.19-.63.49-.78l26.86-12.65c.27-.13.58-.11.82.05s.4.43.4.72v40.58c0,.29-.15.56-.4.72-.14.09-.3.14-.46.14Zm-26-13.75l25.14,11.55V21.8l-25.14,11.84v14.5Z"/>
        <path class="cls-1" d="m60.73,47.76c-.22,0-.44-.09-.6-.24-.17-.16-.26-.38-.26-.62v-12.33c0-.23.09-.45.26-.62s.4-.25.62-.24c3.8.13,6.78,3.21,6.78,7.02s-2.98,6.9-6.78,7.02c0,0-.02,0-.03,0Zm.86-12.23v10.41c2.44-.49,4.24-2.63,4.24-5.21s-1.8-4.71-4.24-5.21Z"/>
        <path class="cls-1" d="m63.71,30.36h0c0,.3.18.57.44.7,3.54,1.77,5.99,5.45,5.99,9.68s-2.45,7.91-5.99,9.69c-.27.13-.44.4-.44.7h0c0,.58.61.96,1.13.7,4.07-2.03,6.86-6.24,6.86-11.09s-2.79-9.05-6.85-11.09c-.52-.26-1.14.12-1.14.71Z"/>
      </g>
      <g>
        <polygon class="cls-5" points="57.34 78.85 59.57 78.85 56.43 89 54.2 89 57.34 78.85"/>
        <polygon class="cls-5" points="50.31 78.85 52.53 78.85 49.4 89 47.17 89 50.31 78.85"/>
        <polygon class="cls-4" points="72.96 52.01 65.93 52.01 65.93 68.6 72.96 52.01"/>
        <path class="cls-8" d="m68.45,65.68h-16.64v-5.5s4.13-3.59,4.13-3.59h-8.09c-3.21,0-5.81,2.6-5.81,5.81v.11s0,5.76,0,5.76c0,7.26,5.89,13.15,13.15,13.15s13.15-5.89,13.15-13.15l.12-2.6Z"/>
        <path class="cls-2" d="m51.76,60.62v-4s-3.54,0-3.54,0h-.33c-2.12,0-3.84,1.72-3.84,3.84s1.72,3.84,3.84,3.84c2.12,0,3.84-1.72,3.84-3.84l.03.16Z"/>
        <path class="cls-3" d="m51.78,77.5v-11.81h21.01s-21.01,11.81-21.01,11.81Z"/>
        <path class="cls-6" d="m51.78,77.51c-3.27,0-5.91-2.65-5.91-5.91s2.65-5.91,5.91-5.91"/>
      </g>
    </g>
  </g>
</svg>