<?xml version="1.0" encoding="UTF-8"?>
<svg id="Capa_2" data-name="Capa 2" xmlns="http://www.w3.org/2000/svg" viewBox="0 0 80 89">
  <defs>
    <style>
      .cls-1 {
        fill: #fdfbed;
      }

      .cls-1, .cls-2, .cls-3 {
        stroke-width: 0px;
      }

      .cls-2 {
        fill: #ee9234;
      }

      .cls-3 {
        fill: #fde89a;
      }
    </style>
  </defs>
  <g id="Capa_4" data-name="Capa 4">
    <g>
      <path class="cls-2" d="m80,6.97v75.06c0,3.85-3.12,6.97-6.97,6.97H6.97c-3.85,0-6.97-3.12-6.97-6.97V7.93C0,3.55,3.55,0,7.93,0h65.1c3.85,0,6.97,3.12,6.97,6.97Z"/>
      <g>
        <path class="cls-1" d="m61.33,43.56c-.23-5.42-2.5-10.32-6.08-13.95-2.35-2.41-5.27-4.25-8.54-5.32-1.8-.6-3.7-.95-5.68-1.03-.31-.02-.62-.03-.94-.03s-.64.01-.95.03c-10.99.48-19.83,9.32-20.3,20.3-.02.31-.03.62-.03.94s.01.63.03.94c.47,10.98,9.31,19.82,20.3,20.3.31.02.63.03.95.03s.63-.01.94-.03c10.98-.47,19.83-9.32,20.3-20.3.02-.31.03-.62.03-.94s-.01-.63-.03-.94Zm-20.3,20.3c-.31.02-.63.03-.94.03s-.63-.01-.95-.03c-9.95-.47-17.95-8.48-18.42-18.42-.02-.31-.03-.63-.03-.94s0-.63.03-.94c.47-9.94,8.47-17.95,18.42-18.42.32-.02.63-.03.95-.03s.63.01.94.03c1.65.07,3.24.36,4.76.82,2.48.77,4.76,2.02,6.7,3.65,4.05,3.37,6.7,8.36,6.96,13.95.02.31.03.63.03.94s-.01.63-.03.94c-.47,9.94-8.48,17.95-18.42,18.42Z"/>
        <path class="cls-1" d="m40.09,33c-6.34,0-11.5,5.16-11.5,11.5s5.16,11.5,11.5,11.5,11.49-5.16,11.49-11.5-5.16-11.5-11.49-11.5Zm0,21.19c-5.35,0-9.69-4.35-9.69-9.69s4.34-9.69,9.69-9.69,9.68,4.35,9.68,9.69-4.34,9.69-9.68,9.69Z"/>
        <path class="cls-1" d="m25.64,45.44h-15.84c-.52,0-.94-.42-.94-.94s.42-.94.94-.94h15.84c.52,0,.94.42.94.94s-.42.94-.94.94Z"/>
        <path class="cls-1" d="m70.2,45.44h-15.84c-.52,0-.94-.42-.94-.94s.42-.94.94-.94h15.84c.52,0,.94.42.94.94s-.42.94-.94.94Z"/>
        <path class="cls-1" d="m40.09,31.49c-.52,0-.94-.42-.94-.94v-15.84c0-.52.42-.94.94-.94s.94.42.94.94v15.84c0,.52-.42.94-.94.94Z"/>
        <path class="cls-1" d="m40.09,75.24c-.52,0-.94-.42-.94-.94v-15.84c0-.52.42-.94.94-.94s.94.42.94.94v15.84c0,.52-.42.94-.94.94Z"/>
      </g>
      <path class="cls-3" d="m80,20.63v7.4h-43.44c.26-1.41,1.23-2.62,2.58-3.33.57-.31,1.21-.53,1.89-.64.33-.05.67-.08,1.01-.08,1.34,0,2.57.41,3.53,1.09.06-.24.13-.47.22-.69.21-.6.53-1.16.92-1.67,1.26-1.69,3.35-2.79,5.71-2.79.92,0,1.79.17,2.6.47,0-.06-.01-.12-.01-.18,0-6.24,3.94-11.29,8.8-11.29s8.8,5.05,8.8,11.29v.26c1.06-.47,2.26-.74,3.52-.74,1.4,0,2.72.33,3.87.9Z"/>
      <path class="cls-3" d="m28.59,66.67c0,.07-.01.13-.01.19H0v-15.91c3.44.45,5.78,2.84,6.45,3.56.35-.31,2.84-2.48,5.76-1.79,3.14.74,5.58,4.51,5.11,8.96,1.14-.59,2.49-.93,3.94-.93,4.05,0,7.33,2.65,7.33,5.92Z"/>
    </g>
  </g>
</svg>