<?xml version="1.0" encoding="UTF-8"?>
<svg id="Capa_2" data-name="Capa 2" xmlns="http://www.w3.org/2000/svg" viewBox="0 0 80 89">
  <defs>
    <style>
      .cls-1 {
        fill: #fdfbed;
      }

      .cls-1, .cls-2, .cls-3, .cls-4, .cls-5, .cls-6, .cls-7 {
        stroke-width: 0px;
      }

      .cls-2 {
        fill: #fdf6e6;
      }

      .cls-3 {
        fill: #f3cc44;
      }

      .cls-4 {
        fill: #6445e1;
      }

      .cls-5 {
        fill: #fde392;
      }

      .cls-6 {
        fill: #5192d9;
      }

      .cls-7 {
        fill: #da6e5b;
      }
    </style>
  </defs>
  <g id="Capa_4" data-name="Capa 4">
    <g>
      <path class="cls-5" d="m80,6.97v75.06c0,3.85-3.12,6.97-6.97,6.97H6.97c-3.85,0-6.97-3.12-6.97-6.97V7.93C0,3.55,3.55,0,7.93,0h65.1c3.85,0,6.97,3.12,6.97,6.97Z"/>
      <g>
        <path class="cls-1" d="m71.65,53.94c-.02-.18-.04-.35-.07-.52-.38-2.67-1.52-5.12-3.23-7.1-.11-.14-.23-.28-.36-.41-1.32-1.43-2.94-2.59-4.79-3.37,2.44-1.75,3.92-4.56,3.92-7.65,0-5.19-4.23-9.42-9.42-9.42s-9.42,4.23-9.42,9.42c0,3.09,1.48,5.91,3.92,7.65-2.91,1.23-5.31,3.41-6.84,6.22-.13.24-.26.49-.38.76-.09.19-.11.4-.06.6.17.1.34.22.49.35,2.26,1.71,3.56,4.31,3.56,7.13v4.55h-.24v.42c0,.51.42.93.93.93h21.14c.51,0,.93-.42.93-.93v-7.11c0-.5-.03-1.01-.08-1.5Zm-1.78,7.68h-19.27v-4.03c0-3.03-1.34-5.94-3.59-7.94,1.62-2.99,4.4-5.15,7.73-5.99.38-.1.67-.44.7-.84.03-.4-.21-.77-.58-.93-2.86-1.17-4.71-3.91-4.71-6.99,0-4.16,3.39-7.55,7.55-7.55s7.55,3.39,7.55,7.55c0,3.08-1.85,5.83-4.71,6.99-.37.16-.61.53-.58.93.03.4.32.74.71.84,1.53.38,2.94,1.06,4.16,1.94.16.1.31.21.45.33.79.63,1.5,1.37,2.12,2.18.11.15.22.31.34.47.9,1.31,1.54,2.78,1.87,4.37.05.19.07.37.11.56.09.63.15,1.28.15,1.94v6.18Z"/>
        <g>
          <g id="_Repetición_radial_" data-name="&amp;lt;Repetición radial&amp;gt;">
            <path class="cls-1" d="m34.01,59.62l-2.75-.41c-.07-.21-.13-.43-.21-.63-.05-.14-.1-.28-.17-.41l.17-.2,1.62-1.93c.14-.16.14-.4,0-.56l-1.03-1.08-1.04-1.1-.19-.2-.15-.16c-.14-.15-.38-.17-.55-.05l-2.23,1.64c-.32-.18-.66-.34-1.01-.46l-.22-2.77c-.02-.21-.19-.38-.4-.38l-3.5-.1c-.21,0-.39.14-.42.35l-.41,2.75c-.35.1-.71.23-1.05.39l-2.12-1.8c-.17-.14-.4-.13-.56,0l-2.55,2.4c-.15.14-.17.38-.05.55l1.65,2.23c-.18.32-.34.65-.47,1.01l-2.77.23c-.21,0-.37.19-.38.4l-.07,2.29-.04,1.2c0,.21.15.39.35.43l1.59.23h1.98c-.04-.1-.07-.21-.09-.31-.04-.17-.18-.29-.35-.31l-2.63-.39.03-.86.05-1.89,2.68-.21c.17-.02.31-.14.36-.3.16-.48.36-.92.61-1.34.09-.15.08-.34-.02-.48l-1.59-2.15,2-1.89,2.04,1.74c.12.11.31.13.46.06.45-.22.92-.4,1.4-.52.16-.04.29-.18.31-.35l.4-2.64,2.75.08.21,2.68c.02.17.13.31.3.36.46.15.92.35,1.34.61.15.08.34.08.47-.02l2.15-1.59.16.17.19.2,1.08,1.15.46.49-.69.81-1.05,1.23c-.11.13-.13.31-.06.46.22.43.4.91.52,1.4.05.16.19.28.35.31l.18.03,2.47.36-.06,1.75-.03,1-2.57.21h-.1c-.1.02-.2.07-.26.13,0,0-.03.03-.03.05h3.79l.04-1.38.07-2.09c0-.21-.15-.39-.35-.43Z"/>
          </g>
          <path class="cls-1" d="m27.47,57.88c-1.97-2.06-5.24-2.13-7.3-.17-1.11,1.06-1.64,2.5-1.58,3.92.02.63.16,1.27.42,1.87h.9c-.32-.58-.49-1.22-.5-1.87-.06-1.2.38-2.43,1.33-3.33,1.74-1.65,4.5-1.6,6.15.14.85.89,1.25,2.04,1.2,3.19-.02.64-.2,1.29-.5,1.87h.9c.26-.6.4-1.23.42-1.87.06-1.34-.42-2.71-1.42-3.75Z"/>
        </g>
        <path class="cls-1" d="m30.06,57.84c-.11.13-.13.31-.06.46.22.43.4.91.52,1.4.05.16.19.28.35.31l.18.03v-2.44c0-.34.02-.66.06-.99l-1.05,1.23Zm4.98-8.32c-.12-.25-.24-.5-.38-.75-1.51-2.81-3.92-5-6.83-6.23,2.44-1.74,3.92-4.56,3.92-7.65,0-5.19-4.23-9.42-9.42-9.42s-9.42,4.23-9.42,9.42c0,3.09,1.48,5.9,3.92,7.65-5.13,2.18-8.54,7.21-8.54,12.9v7.11c0,.51.42.93.93.93h21.15s.09,0,.14-.02c.13,0,.25-.06.36-.13.26-.17.43-.46.43-.78v-.42h-.24v-.03l-1.38-.4-.29-.08H10.14v-6.18c0-5.57,3.78-10.42,9.2-11.78.39-.1.68-.44.71-.84.03-.4-.21-.77-.58-.93-2.86-1.17-4.71-3.91-4.71-6.99,0-4.16,3.39-7.55,7.55-7.55s7.55,3.39,7.55,7.55c0,3.08-1.85,5.83-4.71,6.99-.37.16-.61.53-.58.93.03.4.32.74.7.84,3.33.84,6.12,3.01,7.73,5.99-.21.19-.42.38-.62.59-.2.21-.39.42-.58.63-.56.68-1.04,1.43-1.41,2.22-.12.28-.24.57-.35.86l.19.2,1.08,1.15c.08-.31.18-.61.3-.91.32-.85.77-1.64,1.34-2.35.18-.22.37-.45.57-.65.33-.34.67-.64,1.05-.93.16-.12.33-.23.49-.35.06-.2.04-.41-.06-.6Z"/>
        <path class="cls-1" d="m30.06,57.84c-.11.13-.13.31-.06.46.22.43.4.91.52,1.4.05.16.19.28.35.31l.18.03v-2.44c0-.34.02-.66.06-.99l-1.05,1.23Zm0,0c-.11.13-.13.31-.06.46.22.43.4.91.52,1.4.05.16.19.28.35.31l.18.03v-2.44c0-.34.02-.66.06-.99l-1.05,1.23Zm0,0c-.11.13-.13.31-.06.46.22.43.4.91.52,1.4.05.16.19.28.35.31l.18.03v-2.44c0-.34.02-.66.06-.99l-1.05,1.23Zm16.18-8.48c-.29-.21-.58-.42-.89-.6-.42-.25-.85-.48-1.3-.67,1.79-1.28,2.89-3.36,2.89-5.63,0-3.82-3.12-6.94-6.95-6.94s-6.94,3.12-6.94,6.94c0,2.28,1.1,4.35,2.89,5.64-.45.19-.89.41-1.31.67-.3.18-.6.37-.89.59-.43.33-.83.68-1.2,1.06-.21.21-.39.42-.57.64-.57.69-1.04,1.44-1.4,2.24-.13.28-.25.56-.35.86l1.08,1.15c.08-.31.18-.61.3-.91.32-.85.77-1.64,1.34-2.35.18-.22.37-.45.57-.65.33-.34.67-.64,1.05-.93.16-.12.33-.23.49-.35.84-.56,1.76-.96,2.73-1.2.29-.07.49-.32.51-.62.03-.3-.15-.57-.42-.68-2.11-.86-3.46-2.89-3.46-5.15,0-3.06,2.49-5.56,5.56-5.56s5.56,2.49,5.56,5.56c0,2.27-1.35,4.29-3.46,5.15-.27.11-.45.39-.42.68.02.3.22.55.51.62.97.25,1.89.64,2.72,1.2.17.1.34.22.49.35,2.26,1.71,3.56,4.31,3.56,7.13v4.55h-17.92v-.03l-1.38-.4v1.12c0,.11.03.21.07.31.08.17.23.3.42.35.07.02.13.03.2.03h19.3c.07,0,.13,0,.2-.03.29-.08.49-.35.49-.66v-5.24c0-3.21-1.54-6.29-4.11-8.24Zm-15.71,10.34c.05.16.19.28.35.31l.18.03v-2.44c0-.34.02-.66.06-.99l-1.05,1.23c-.11.13-.13.31-.06.46.22.43.4.91.52,1.4Zm-.47-1.86c-.11.13-.13.31-.06.46.22.43.4.91.52,1.4.05.16.19.28.35.31l.18.03v-2.44c0-.34.02-.66.06-.99l-1.05,1.23Zm0,0c-.11.13-.13.31-.06.46.22.43.4.91.52,1.4.05.16.19.28.35.31l.18.03v-2.44c0-.34.02-.66.06-.99l-1.05,1.23Z"/>
        <polygon class="cls-1" points="31.05 62.11 31.05 63.14 29.38 63.14 29.38 61.63 29.67 61.71 31.05 62.11"/>
      </g>
      <g>
        <rect class="cls-6" x="44.44" y="56.62" width="1.59" height="1.59" transform="translate(-27.35 48.8) rotate(-45)"/>
        <rect class="cls-6" x="48.66" y="56.62" width="1.59" height="1.59" transform="translate(-26.11 51.79) rotate(-45)"/>
        <rect class="cls-6" x="31.79" y="56.61" width="1.59" height="1.59" transform="translate(-31.05 39.86) rotate(-45)"/>
        <rect class="cls-6" x="36.01" y="56.62" width="1.59" height="1.59" transform="translate(-29.82 42.84) rotate(-45)"/>
        <rect class="cls-6" x="40.23" y="56.62" width="1.59" height="1.59" transform="translate(-28.59 45.83) rotate(-45)"/>
        <polygon class="cls-3" points="40.41 68.84 40.41 76.59 41.44 76.59 41.44 65.69 40.41 68.84"/>
        <path class="cls-4" d="m45.13,68.85c-2.6,0-4.71,2.1-4.71,4.7h0v1.49l8.89-6.18h-4.19Z"/>
        <path class="cls-3" d="m49.3,68.83v1.49c.01,1.09-.37,2.15-1.07,2.99-.19.24-.41.46-.65.65-.23.2-.49.37-.75.51-.17.09-.34.17-.52.24-.13.06-.27.1-.41.14-.42.13-.86.19-1.3.19h-3.16v13.96h-1.02v-13.93l1.02-.72,2.96-2.08,4.42-3.1.44-.31.04-.03Z"/>
        <path class="cls-4" d="m40.42,72.29c0-2.2-1.78-3.99-3.98-3.99h-3.55l7.53,5.25v-1.26Z"/>
        <path class="cls-2" d="m40.42,73.55l-7.53-5.25v1.26c0,.67.16,1.32.48,1.9.17.31.38.59.62.85.18.19.38.36.6.51.08.06.16.11.25.16.62.37,1.32.56,2.04.56h3.54Z"/>
        <path class="cls-7" d="m41.3,66.86c5.12,0,9.87-2.67,12.52-7.05h-25.06c2.66,4.38,7.41,7.05,12.54,7.05Z"/>
      </g>
      <g>
        <rect class="cls-6" x="59.67" y="63.95" width="1.31" height="1.31" transform="translate(-28.02 61.58) rotate(-45)"/>
        <rect class="cls-6" x="63.15" y="63.96" width="1.31" height="1.31" transform="translate(-27 64.04) rotate(-45)"/>
        <rect class="cls-6" x="49.22" y="63.95" width="1.31" height="1.31" transform="translate(-31.08 54.19) rotate(-45)"/>
        <rect class="cls-6" x="52.7" y="63.96" width="1.31" height="1.31" transform="translate(-30.06 56.66) rotate(-45)"/>
        <rect class="cls-6" x="56.19" y="63.96" width="1.31" height="1.31" transform="translate(-29.04 59.12) rotate(-45)"/>
        <polygon class="cls-3" points="56.34 74.05 56.34 80.45 57.19 80.45 57.19 71.45 56.34 74.05"/>
        <path class="cls-4" d="m60.23,74.05c-2.15,0-3.89,1.74-3.89,3.88h0v1.23l7.34-5.11h-3.46Z"/>
        <path class="cls-3" d="m63.68,74.04v1.23c0,.9-.31,1.77-.89,2.47-.16.2-.34.38-.53.54-.2.16-.4.3-.62.42-.14.07-.29.14-.43.19-.11.05-.23.09-.34.12-.35.1-.71.16-1.08.16h-2.6v9.83h-.85v-9.81l.85-.6,2.28-1.59,4.18-2.94.03-.02Z"/>
        <path class="cls-4" d="m56.34,76.9c0-1.82-1.47-3.29-3.29-3.29h-2.93l6.22,4.33v-1.04Z"/>
        <path class="cls-2" d="m56.34,77.94l-6.22-4.33v1.04c0,.55.14,1.09.4,1.57.14.25.31.49.51.7.15.16.32.3.49.42.07.05.13.09.21.13.51.3,1.09.46,1.68.46h2.93Z"/>
        <path class="cls-7" d="m57.07,72.42c4.23,0,8.15-2.2,10.34-5.82h-20.69c2.19,3.62,6.12,5.82,10.35,5.82Z"/>
      </g>
    </g>
  </g>
</svg>