<svg xmlns="http://www.w3.org/2000/svg" viewBox="0 0 187.28 122.58"><defs><style>.cls-1{fill:#da6e5b;}.cls-2{fill:#fdfbed;}.cls-3{fill:#5192d9;}</style></defs><g id="Capa_2" data-name="Capa 2"><g id="Capa_2-2" data-name="Capa 2"><circle class="cls-1" cx="132.81" cy="54.47" r="54.47"/><path class="cls-2" d="M151,70.12v9H114.59V29.76h35.93v9.05H126.89V49.17h22.53v9H126.89V70.1H151Z"/><path class="cls-3" d="M187.27,122.58c-1.68-7.5-10.69-13.23-21.59-13.23a27.47,27.47,0,0,0-13.88,3.57c-2.85-9.62-13.84-16.8-27-16.8a34.29,34.29,0,0,0-10.23,1.55c0-.2,0-.4,0-.6,0-20.35-15.52-36.84-34.67-36.84S45.25,76.73,45.25,97.07c0,.29,0,.57,0,.85a40.29,40.29,0,0,0-13.89-2.43C14.05,95.49,0,105.92,0,118.79a17.6,17.6,0,0,0,.45,3.78H187.27Z"/></g></g></svg>