<svg xmlns="http://www.w3.org/2000/svg" viewBox="0 0 334.34 129.48"><defs><style>.cls-1{fill:#a09f9f;}.cls-2{fill:#ee9234;}.cls-3{fill:#da6e5b;}.cls-4{fill:#fdf6e6;}.cls-5{fill:#f3cc44;}.cls-6{fill:#847ce1;}</style></defs><g id="Capa_2" data-name="Capa 2"><g id="Capa_2-2" data-name="Capa 2"><polygon class="cls-1" points="292.89 40.85 296.28 40.85 291.5 56.3 288.11 56.3 292.89 40.85"/><polygon class="cls-1" points="282.18 40.85 285.57 40.85 280.8 56.3 277.41 56.3 282.18 40.85"/><polygon class="cls-2" points="316.66 0 305.96 0 305.96 25.25 316.66 0"/><path class="cls-3" d="M309.79,20.81H284.46V12.43L290.75,7H278.43a8.85,8.85,0,0,0-8.85,8.85v8.93a20,20,0,0,0,40,0l.18-3.95Z"/><path class="cls-4" d="M284.39,13.1V7H278.5a5.85,5.85,0,1,0,5.85,5.85l0,.24Z"/><path class="cls-5" d="M284.42,38.79v-18h32Z"/><path class="cls-6" d="M284.42,38.81a9,9,0,1,1,0-18"/><path class="cls-5" d="M334.31,68.76v60l-299,.39c.39-6.5,2-16.16,8.61-24.3,10.92-13.42,22.48-6.75,37.54-21.29,4.4-4.25,14.48-14.75,24.49-24.72,3.36-3.34,10.15-7.62,18-.1s11.07,9.52,21.42,9.46,14-6,17.64-9.69c3.36-3.34,10.15-7.62,18-.1s11.07,9.52,21.42,9.47h-.79c10.39-.08,14-6,17.65-9.72,3.36-3.34,10.15-7.62,18-.1s11.07,9.53,21.42,9.47,14-6,17.64-9.7c3.36-3.34,10.15-7.62,18-.1s11.07,9.53,21.42,9.47l18.42,1.59Z"/><polygon class="cls-2" points="0 129.48 28.85 122.84 4.32 103.49 33.07 110.61 16.59 81.44 40.9 101.24 34.96 66.73 51.1 96.16 56.61 61.56 62.14 96.16 78.27 66.73 72.34 101.24 96.65 81.44 80.14 110.61 108.91 103.49 84.38 122.84 113.22 129.48 0 129.48"/></g></g></svg>