<?xml version="1.0" encoding="UTF-8"?>
<svg id="Capa_2" data-name="Capa 2" xmlns="http://www.w3.org/2000/svg" viewBox="0 0 80 89">
  <defs>
    <style>
      .cls-1 {
        fill: #fdfbed;
      }

      .cls-1, .cls-2, .cls-3, .cls-4, .cls-5 {
        stroke-width: 0px;
      }

      .cls-2 {
        fill: #f3cc44;
      }

      .cls-3 {
        fill: #ee9234;
      }

      .cls-4 {
        fill: #da6e5b;
      }

      .cls-5 {
        fill: #fde89a;
      }
    </style>
  </defs>
  <g id="Capa_4" data-name="Capa 4">
    <g>
      <path class="cls-4" d="m7.93,0h65.1c3.85,0,6.97,3.12,6.97,6.97v75.06c0,3.85-3.12,6.97-6.97,6.97H6.97c-3.85,0-6.97-3.12-6.97-6.97V7.93C0,3.55,3.55,0,7.93,0Z"/>
      <g>
        <path class="cls-1" d="m66.15,58.75H13.85c-1.66,0-3.01-1.35-3.01-3.01v-29.22c0-1.66,1.35-3.01,3.01-3.01h52.29c1.66,0,3.01,1.35,3.01,3.01v29.22c0,1.66-1.35,3.01-3.01,3.01ZM13.85,25.21c-.72,0-1.31.59-1.31,1.31v29.22c0,.72.59,1.31,1.31,1.31h52.29c.72,0,1.31-.59,1.31-1.31v-29.22c0-.72-.59-1.31-1.31-1.31H13.85Z"/>
        <path class="cls-1" d="m71.76,65.5H8.24c-1.04,0-1.89-.85-1.89-1.89v-4.66c0-1.04.85-1.89,1.89-1.89h63.52c1.04,0,1.89.85,1.89,1.89v4.66c0,1.04-.85,1.89-1.89,1.89Zm-63.52-6.74c-.11,0-.19.09-.19.19v4.66c0,.1.08.19.19.19h63.52c.11,0,.19-.09.19-.19v-4.66c0-.1-.08-.19-.19-.19H8.24Z"/>
        <path class="cls-1" d="m61.41,53.8H18.59c-1.27,0-2.3-1.03-2.3-2.3v-20.74c0-1.27,1.03-2.3,2.3-2.3h42.83c1.27,0,2.3,1.03,2.3,2.3v20.74c0,1.27-1.03,2.3-2.3,2.3ZM18.59,29.76c-.55,0-1,.45-1,1v20.74c0,.55.45,1,1,1h42.83c.55,0,1-.45,1-1v-20.74c0-.55-.45-1-1-1H18.59Z"/>
        <path class="cls-1" d="m47.32,61.59h-14.64c-1.08,0-1.97-.88-1.97-1.97v-2.04h18.57v2.04c0,1.08-.88,1.97-1.97,1.97Zm-15.97-3.37v1.4c0,.73.6,1.33,1.33,1.33h14.64c.73,0,1.33-.6,1.33-1.33v-1.4h-17.29Z"/>
        <path class="cls-1" d="m31.01,38.88c-.11,0-.22-.04-.3-.12l-4.95-4.95h-8.82c-.24,0-.43-.19-.43-.43s.19-.43.43-.43h8.99c.11,0,.22.04.3.12l5.08,5.08c.17.17.17.44,0,.6-.08.08-.19.12-.3.12Z"/>
        <path class="cls-1" d="m28.72,52.71c-.24,0-.43-.19-.43-.43v-4.29c0-.2.14-.38.34-.42l12.36-2.45c.24-.05.45.1.5.33.05.23-.1.46-.33.5l-12.02,2.38v3.94c0,.24-.19.43-.43.43Z"/>
        <path class="cls-1" d="m55.08,41.12c-.1,0-.2-.04-.28-.12l-4.19-4.4c-.15-.15-.14-.39.01-.54.15-.14.39-.14.54.01l3.97,4.18,7.72-4.67c.18-.11.41-.05.52.13.11.18.05.41-.13.52l-7.98,4.83c-.06.04-.13.05-.2.05Z"/>
        <path class="cls-1" d="m53.42,53.01c-.21,0-.38-.17-.38-.38v-4.92c0-.21.17-.38.38-.38s.38.17.38.38v4.92c0,.21-.17.38-.38.38Z"/>
        <path class="cls-1" d="m24.17,45.96h-7.26c-.24,0-.43-.19-.43-.43s.19-.43.43-.43h7.26c.24,0,.43.19.43.43s-.19.43-.43.43Z"/>
        <path class="cls-1" d="m38.73,35.26c-.24,0-.43-.19-.43-.43v-5.72c0-.24.19-.43.43-.43s.43.19.43.43v5.72c0,.24-.19.43-.43.43Z"/>
        <path class="cls-1" d="m32.26,41.27c-.87,0-1.57-.7-1.57-1.57s.7-1.57,1.57-1.57,1.57.7,1.57,1.57-.7,1.57-1.57,1.57Zm0-2.5c-.51,0-.93.42-.93.93s.42.93.93.93.93-.42.93-.93-.42-.93-.93-.93Z"/>
        <path class="cls-1" d="m25.51,47.1c-.87,0-1.57-.7-1.57-1.57s.7-1.57,1.57-1.57,1.57.7,1.57,1.57-.7,1.57-1.57,1.57Zm0-2.5c-.51,0-.93.42-.93.93s.42.93.93.93.93-.42.93-.93-.42-.93-.93-.93Z"/>
        <path class="cls-1" d="m38.75,38.06c-.87,0-1.57-.7-1.57-1.57s.7-1.57,1.57-1.57,1.57.7,1.57,1.57-.7,1.57-1.57,1.57Zm0-2.5c-.51,0-.93.42-.93.93s.42.93.93.93.93-.42.93-.93-.42-.93-.93-.93Z"/>
        <path class="cls-1" d="m42.33,46.72c-.87,0-1.57-.7-1.57-1.57s.7-1.57,1.57-1.57,1.57.7,1.57,1.57-.7,1.57-1.57,1.57Zm0-2.5c-.51,0-.93.42-.93.93s.42.93.93.93.93-.42.93-.93-.42-.93-.93-.93Z"/>
        <path class="cls-1" d="m53.42,47.97c-.87,0-1.57-.7-1.57-1.57s.7-1.57,1.57-1.57,1.57.7,1.57,1.57-.7,1.57-1.57,1.57Zm0-2.5c-.51,0-.93.42-.93.93s.42.93.93.93.93-.42.93-.93-.42-.93-.93-.93Z"/>
        <path class="cls-1" d="m50.22,36.81c-.87,0-1.57-.7-1.57-1.57s.7-1.57,1.57-1.57,1.57.7,1.57,1.57-.7,1.57-1.57,1.57Zm0-2.5c-.51,0-.93.42-.93.93s.42.93.93.93.93-.42.93-.93-.42-.93-.93-.93Z"/>
        <path class="cls-1" d="m41.08,32.71c-.18,0-.32-.14-.32-.32v-3.22c0-.18.14-.32.32-.32s.32.14.32.32v3.22c0,.18-.14.32-.32.32Z"/>
        <path class="cls-1" d="m22.38,35.23h-4.98c-.22,0-.4-.18-.4-.4s.18-.4.4-.4h4.98c.22,0,.4.18.4.4s-.18.4-.4.4Z"/>
        <path class="cls-1" d="m26.76,52.95c-.18,0-.32-.14-.32-.32v-3.22c0-.18.14-.32.32-.32s.32.14.32.32v3.22c0,.18-.14.32-.32.32Z"/>
        <path class="cls-1" d="m55.19,52.95c-.18,0-.32-.14-.32-.32v-3.22c0-.18.14-.32.32-.32s.32.14.32.32v3.22c0,.18-.14.32-.32.32Z"/>
        <path class="cls-1" d="m60.44,40.02c-.1,0-.2-.05-.26-.13-.1-.14-.07-.34.08-.44l2.62-1.86c.14-.1.34-.07.45.08.1.14.07.34-.08.44l-2.62,1.86c-.06.04-.12.06-.18.06Z"/>
      </g>
      <g>
        <polygon class="cls-2" points="73.84 89 34.86 89 54.02 58.95 54.35 58.43 71.95 86.04 73.84 89"/>
        <polygon class="cls-3" points="55.08 89 27.95 89 41.28 68.08 41.51 67.72 53.76 86.94 55.08 89"/>
        <path class="cls-5" d="m71.95,86.04c-1.69-.11-6.1-.88-7.33-5.93-1.54-6.3-5.95-2.12-10.9-7.34-2.64-2.8-.66-10.64.3-13.82l.33-.52,17.6,27.61Z"/>
      </g>
    </g>
  </g>
</svg>