<svg xmlns="http://www.w3.org/2000/svg" viewBox="0 0 119.13 118.51"><g id="Capa_2" data-name="Capa 2"><g id="Iconos"><path d="M30.63,100.83A12.64,12.64,0,0,1,18,88.19V32.4a1.05,1.05,0,0,0-2.1,0V88.19a14.74,14.74,0,0,0,14.74,14.74H74.78a1,1,0,0,0,1-1.05h0a1,1,0,0,0-1-1ZM88.51,15.59H32.39a1,1,0,1,0,0,2.08H88.51a12.68,12.68,0,0,1,12.64,12.64V88.19a12.64,12.64,0,0,1-9.53,12.24,1.08,1.08,0,0,0-.82,1h0a1.06,1.06,0,0,0,1.33,1A14.72,14.72,0,0,0,103.24,88.2V30.31A14.73,14.73,0,0,0,88.51,15.59Z"/><path d="M59.56,16.83a1.18,1.18,0,0,1-1.18-1.18V1.18a1.19,1.19,0,0,1,2.37,0V15.65A1.18,1.18,0,0,1,59.56,16.83Z"/><path d="M35.07,16.83a1.18,1.18,0,0,1-1.18-1.18V1.18a1.18,1.18,0,0,1,2.36,0V15.65A1.18,1.18,0,0,1,35.07,16.83Z"/><path d="M83.86,16.83a1.18,1.18,0,0,1-1.18-1.18V1.18a1.19,1.19,0,0,1,2.37,0V15.65A1.18,1.18,0,0,1,83.86,16.83Z"/><path d="M59.66,118.51a1.18,1.18,0,0,1-1.18-1.18V102.86a1.18,1.18,0,0,1,2.36,0v14.47A1.18,1.18,0,0,1,59.66,118.51Z"/><path d="M35.17,118.51A1.18,1.18,0,0,1,34,117.33V102.86a1.18,1.18,0,0,1,2.36,0v14.47A1.18,1.18,0,0,1,35.17,118.51Z"/><path d="M84,103.57a1.4,1.4,0,0,1,1.19,1.54V117a1.23,1.23,0,1,1-2.37,0V105.11A1.4,1.4,0,0,1,84,103.57Z"/><path d="M118,60.53H103.48a1.18,1.18,0,0,1,0-2.36H118a1.18,1.18,0,0,1,0,2.36Z"/><path d="M118,36H103.48a1.18,1.18,0,0,1,0-2.36H118A1.18,1.18,0,0,1,118,36Z"/><path d="M118,84.83H103.48a1.18,1.18,0,0,1,0-2.36H118a1.18,1.18,0,0,1,0,2.36Z"/><path d="M15.65,60.63H1.18a1.18,1.18,0,0,1,0-2.36H15.65a1.18,1.18,0,0,1,0,2.36Z"/><path d="M15.65,36.14H1.18a1.19,1.19,0,0,1,0-2.37H15.65a1.19,1.19,0,0,1,0,2.37Z"/><path d="M15.65,84.93H1.18a1.18,1.18,0,0,1,0-2.36H15.65a1.18,1.18,0,1,1,0,2.36Z"/><path d="M83.45,73.74,70.94,43.08a2.59,2.59,0,0,0-2.4-1.63,2.63,2.63,0,0,0-2.41,1.63L53.57,73.81a2.23,2.23,0,0,0-.18.9,2.36,2.36,0,0,0,4.56.87L60.59,69H76.37L79,75.55a2.41,2.41,0,1,0,4.47-1.81ZM62.27,64.8l6.25-15.58L74.71,64.8Z"/><path d="M37.49,74.65V43.86a2.41,2.41,0,0,1,2.41-2.41h0a2.41,2.41,0,0,1,2.41,2.41V74.65a2.41,2.41,0,0,1-2.41,2.41h0A2.41,2.41,0,0,1,37.49,74.65Z"/></g></g></svg>