<svg xmlns="http://www.w3.org/2000/svg" viewBox="0 0 135.5 102.15"><g id="Capa_2" data-name="Capa 2"><g id="Iconos"><path d="M22.53,102.08l.59,0h0v0Zm90.56-17.73c-.24,0-.49,0-.73-.06v2.38l.49,0c.63.06,1.26.14,1.89.23v-2.4C114.19,84.47,113.64,84.4,113.09,84.35Z"/><path d="M112.36,84.29v2.38c-1.42-.13-2.89-.22-4.35-.25s-3.12,0-4.71.09-3.06.22-4.63.4-3,.39-4.52.65-2.93.53-4.45.84-2.85.63-4.4,1-2.89.73-4.33,1.13-2.88.8-4.31,1.22-2.86.84-4.28,1.27l-4.27,1.31-4.29,1.3-4.31,1.28q-2.16.63-4.35,1.23c-1.45.39-2.92.78-4.4,1.14s-3,.73-4.46,1-3.08.62-4.55.86l-.91.16a1.19,1.19,0,0,1-1.38-1.18h0a1.18,1.18,0,0,1,1-1.17l.9-.14c1.43-.25,2.92-.53,4.45-.86s2.88-.64,4.39-1,2.9-.74,4.33-1.14,2.89-.8,4.31-1.21l4.29-1.28,4.27-1.3,4.29-1.31c1.43-.44,2.87-.86,4.31-1.28s2.88-.83,4.35-1.23,2.91-.78,4.39-1.15,3-.72,4.47-1,3.07-.62,4.55-.87,3.15-.49,4.64-.67,3.22-.32,4.76-.4,3.3-.12,4.89-.09S111,84.15,112.36,84.29Z"/><path d="M31.29,63.63c-.89,0-1.8-.1-2.69-.18A76.75,76.75,0,0,1,12.72,60.4a1.19,1.19,0,0,1,.69-2.28A74.33,74.33,0,0,0,27.94,61c.82.08,1.64.14,2.47.19A10.1,10.1,0,0,0,31.29,63.63Z"/><path d="M59.74,56.51a9.41,9.41,0,0,0-1.25,3c-.85.3-1.7.59-2.58.87s-2,.64-3.11.93c-.86.22-1.72.45-2.6.65a10,10,0,0,0,.43-2.56c.81-.19,1.62-.41,2.4-.63,1.2-.34,2.37-.72,3.5-1.12S58.7,56.91,59.74,56.51Z"/><path d="M131.57,52.92a1.22,1.22,0,0,1-1.63.47c-9.19-5.07-18.47-7.72-27.54-7.9-10.79-.19-19,3-27.29,6.8L72.6,53.44a9.47,9.47,0,0,0-3.12-1.16l1.19-.56,2-.92c9-4.18,17.88-7.89,29.78-7.68,9.47.17,19.11,2.92,28.65,8.17A1.21,1.21,0,0,1,131.57,52.92Z"/><path d="M23.74,79.58c0,.15-.09.3-.13.45s0,0,0,.07c-.09.36-.17.73-.23,1.08,0,.17-.07.38-.09.59a.68.68,0,0,1,0,.14c-.78-.11-1.56-.23-2.34-.37a80.08,80.08,0,0,1-16.5-4.91,1.19,1.19,0,0,1,.91-2.2,77.69,77.69,0,0,0,16,4.76C22.17,79.34,23,79.46,23.74,79.58Z"/><path d="M119,70.78a1.18,1.18,0,0,1-1.53.68,63.06,63.06,0,0,0-13.43-3.62c-1.06-.17-2.13-.3-3.19-.41a.76.76,0,0,1,.09-.09,10,10,0,0,0,2.19-2c.88.12,1.75.26,2.62.42a66.2,66.2,0,0,1,12.57,3.53A1.18,1.18,0,0,1,119,70.78Z"/><path d="M114.7,82.66c0-.2,0-.41,0-.62v-.21a17,17,0,0,0-4-9.21c-.27-.31-.54-.61-.81-.89s-.6-.59-.94-.87-.59-.51-.91-.76l-.09-.07-.14-.09c-.32-.24-.64-.45-1-.65a10.92,10.92,0,0,0-1-.59.35.35,0,0,1-.13-.08l-.11-.06c-.49-.25-1-.47-1.53-.7l0,0a12,12,0,0,0,1.71-2.13,12.63,12.63,0,1,0-21.31,0,12.17,12.17,0,0,0,1.68,2.11l.06.06-.18.07a.31.31,0,0,0-.13.06c-.34.15-.69.31-1.06.5l-.24.12-.76.43-.1.06c-.27.17-.56.35-.82.53l-.12.08a14.84,14.84,0,0,0-1.89,1.55l-.14.12c-.24.23-.49.48-.71.72l-.05,0-.25-.2-.12-.08a10.46,10.46,0,0,0-.92-.61,7.1,7.1,0,0,0-.91-.55l-.12-.07-.12-.06a8.14,8.14,0,0,0-.89-.43L76.23,70a11.89,11.89,0,0,0-1.12-17.69,11.63,11.63,0,0,0-2.45-1.49,11.91,11.91,0,0,0-16.13,6.86,12.91,12.91,0,0,0-.62,2.73c0,.41-.06.83-.06,1.25A11.92,11.92,0,0,0,59.28,70l-.07,0-.06,0-.09,0-1,.45c-.31.16-.59.31-.86.48a.71.71,0,0,0-.2.11l-.6.38-.3.2-.64.48-.41-.43c-.28-.29-.6-.59-.93-.87s-.6-.51-.92-.76l-.1-.07L53,69.94c-.32-.24-.64-.45-1-.65a10.92,10.92,0,0,0-1-.59L51,68.62l-.11-.06c-.48-.25-1-.47-1.53-.7a12.53,12.53,0,0,0,3.49-6.54c-.86.22-1.72.45-2.6.65a10.38,10.38,0,0,1-4,5.37,1.2,1.2,0,0,0,.37,2.13c.32.09.64.18,1,.31l.21.06,0,0,.1.06a13.56,13.56,0,0,1,1.7.73,2.91,2.91,0,0,0,.3.17,6.67,6.67,0,0,1,.79.48c.32.19.62.4.92.62l.08,0h0c.27.21.53.4.81.66s.54.49.81.76.49.52.79.85c.08.09.14.19.22.29a1.22,1.22,0,0,0,.84.49,1.24,1.24,0,0,0,.93-.32,14.18,14.18,0,0,1,1.32-1.07l.27-.18.49-.31h0l.13-.08c.27-.16.52-.3.78-.43l.83-.4h0c.31-.12.62-.24,1-.35a2.54,2.54,0,0,1,.44-.15.29.29,0,0,0,.1,0l.2,0,.23-.07a1.18,1.18,0,0,0,.82-1.31,1.16,1.16,0,0,0-.33-.67,1.07,1.07,0,0,0-.16-.14,9.55,9.55,0,0,1-4.09-7.81,8.73,8.73,0,0,1,.25-2.12,9.47,9.47,0,0,1,9.26-7.4,9,9,0,0,1,1.73.16A9.49,9.49,0,0,1,74.4,68.42a8.27,8.27,0,0,1-1.24,1,1.21,1.21,0,0,0-.48,1.19,1.19,1.19,0,0,0,.48.76,1.33,1.33,0,0,0,.38.18,8.06,8.06,0,0,1,.86.25l.31.11.12,0a14,14,0,0,1,1.59.69,1.47,1.47,0,0,0,.24.13c.25.14.5.29.76.47a8.47,8.47,0,0,1,.85.58l.11.07c.25.19.48.38.73.6l.17.16a1.19,1.19,0,0,0,1.69,0l.11-.12,0,0c.22-.28.46-.54.71-.82s.38-.39.57-.57l.14-.14a13.8,13.8,0,0,1,1.59-1.29l.1-.07.77-.5.09-.05a5.36,5.36,0,0,1,.62-.34l.21-.12c.31-.16.61-.29.92-.43l0,0c.33-.13.67-.26,1.08-.4l.51-.15.47-.13a1.18,1.18,0,0,0,.85-1.31,1.16,1.16,0,0,0-.34-.68l-.1-.09-.06-.06a9.6,9.6,0,0,1-2.2-2.06,10.26,10.26,0,1,1,16.07,0,10,10,0,0,1-2.19,2,.76.76,0,0,0-.09.09,1.15,1.15,0,0,0-.42,1.08,1.21,1.21,0,0,0,.87,1c.32.09.64.18,1,.31l.2.06.06,0,.1.06a12.79,12.79,0,0,1,1.69.73c.11.06.2.12.31.17a7.59,7.59,0,0,1,.79.48,9.7,9.7,0,0,1,.91.62l.09,0h0c.27.21.52.4.81.66s.55.49.81.76.49.52.76.83a14.69,14.69,0,0,1,3.38,7.64,1.26,1.26,0,0,0,0,.27,6.21,6.21,0,0,1,.06.66c0,.3,0,.61,0,.92v3l.94.1c.48,0,1,.1,1.44.17V83.72C114.74,83.36,114.72,83,114.7,82.66ZM89.43,67.49l-.1-.09c-1.1.1-2.16.24-3.2.41l.06.06-.18.07a.31.31,0,0,0-.13.06c-.34.15-.69.31-1.06.5l-.24.12-.76.43-.1.06c-.27.17-.56.35-.82.53l-.12.08a14.84,14.84,0,0,0-1.89,1.55l-.14.12c-.24.23-.49.48-.71.72l-.05,0-.25-.2-.12-.08a10.46,10.46,0,0,0-.92-.61,7.1,7.1,0,0,0-.91-.55l-.12-.07-.12-.06a8.14,8.14,0,0,0-.89-.43c-1.18.38-2.34.8-3.5,1.24a1.33,1.33,0,0,0,.38.18,8.06,8.06,0,0,1,.86.25l.31.11.12,0a14,14,0,0,1,1.59.69,1.47,1.47,0,0,0,.24.13c.25.14.5.29.76.47a8.47,8.47,0,0,1,.85.58l.11.07c.25.19.48.38.73.6l.17.16a1.19,1.19,0,0,0,1.69,0l.11-.12,0,0c.22-.28.46-.54.71-.82s.38-.39.57-.57l.14-.14a13.8,13.8,0,0,1,1.59-1.29l.1-.07.77-.5.09-.05a5.36,5.36,0,0,1,.62-.34l.21-.12c.31-.16.61-.29.92-.43l0,0c.33-.13.67-.26,1.08-.4l.51-.15.47-.13a1.18,1.18,0,0,0,.85-1.31A1.16,1.16,0,0,0,89.43,67.49Zm0,0-.1-.09c-1.1.1-2.16.24-3.2.41l.06.06-.18.07a.31.31,0,0,0-.13.06c-.34.15-.69.31-1.06.5l-.24.12-.76.43-.1.06c-.27.17-.56.35-.82.53l-.12.08a14.84,14.84,0,0,0-1.89,1.55l-.14.12c-.24.23-.49.48-.71.72l-.05,0-.25-.2-.12-.08a10.46,10.46,0,0,0-.92-.61,7.1,7.1,0,0,0-.91-.55l-.12-.07-.12-.06a8.14,8.14,0,0,0-.89-.43c-1.18.38-2.34.8-3.5,1.24a1.33,1.33,0,0,0,.38.18,8.06,8.06,0,0,1,.86.25l.31.11.12,0a14,14,0,0,1,1.59.69,1.47,1.47,0,0,0,.24.13c.25.14.5.29.76.47a8.47,8.47,0,0,1,.85.58l.11.07c.25.19.48.38.73.6l.17.16a1.19,1.19,0,0,0,1.69,0l.11-.12,0,0c.22-.28.46-.54.71-.82s.38-.39.57-.57l.14-.14a13.8,13.8,0,0,1,1.59-1.29l.1-.07.77-.5.09-.05a5.36,5.36,0,0,1,.62-.34l.21-.12c.31-.16.61-.29.92-.43l0,0c.33-.13.67-.26,1.08-.4l.51-.15.47-.13a1.18,1.18,0,0,0,.85-1.31A1.16,1.16,0,0,0,89.43,67.49Zm-26.94,2.1a1.07,1.07,0,0,0-.16-.14,9.55,9.55,0,0,1-4.09-7.81,8.73,8.73,0,0,1,.25-2.12c-.85.3-1.7.59-2.58.87,0,.41-.06.83-.06,1.25A11.92,11.92,0,0,0,59.28,70l-.07,0-.06,0-.09,0-1,.45c-.31.16-.59.31-.86.48a.71.71,0,0,0-.2.11l-.6.38-.3.2-.64.48-.41-.43c-.28-.29-.6-.59-.93-.87s-.6-.51-.92-.76l-.1-.07L53,69.94c-.32-.24-.64-.45-1-.65a10.92,10.92,0,0,0-1-.59L51,68.62l-.11-.06c-.48-.25-1-.47-1.53-.7a12.53,12.53,0,0,0,3.49-6.54c-.86.22-1.72.45-2.6.65a10.38,10.38,0,0,1-4,5.37,1.2,1.2,0,0,0,.37,2.13c.32.09.64.18,1,.31l.21.06,0,0,.1.06a13.56,13.56,0,0,1,1.7.73,2.91,2.91,0,0,0,.3.17,6.67,6.67,0,0,1,.79.48c.32.19.62.4.92.62l.08,0h0c.27.21.53.4.81.66s.54.49.81.76.49.52.79.85c.08.09.14.19.22.29a1.22,1.22,0,0,0,.84.49,1.24,1.24,0,0,0,.93-.32,14.18,14.18,0,0,1,1.32-1.07l.27-.18.49-.31h0l.13-.08c.27-.16.52-.3.78-.43l.83-.4h0c.31-.12.62-.24,1-.35a2.54,2.54,0,0,1,.44-.15.29.29,0,0,0,.1,0l.2,0,.23-.07a1.18,1.18,0,0,0,.82-1.31A1.16,1.16,0,0,0,62.49,69.59Zm26.94-2.1-.1-.09c-1.1.1-2.16.24-3.2.41l.06.06-.18.07a.31.31,0,0,0-.13.06c-.34.15-.69.31-1.06.5l-.24.12-.76.43-.1.06c-.27.17-.56.35-.82.53l-.12.08a14.84,14.84,0,0,0-1.89,1.55l-.14.12c-.24.23-.49.48-.71.72l-.05,0-.25-.2-.12-.08a10.46,10.46,0,0,0-.92-.61,7.1,7.1,0,0,0-.91-.55l-.12-.07-.12-.06a8.14,8.14,0,0,0-.89-.43c-1.18.38-2.34.8-3.5,1.24a1.33,1.33,0,0,0,.38.18,8.06,8.06,0,0,1,.86.25l.31.11.12,0a14,14,0,0,1,1.59.69,1.47,1.47,0,0,0,.24.13c.25.14.5.29.76.47a8.47,8.47,0,0,1,.85.58l.11.07c.25.19.48.38.73.6l.17.16a1.19,1.19,0,0,0,1.69,0l.11-.12,0,0c.22-.28.46-.54.71-.82s.38-.39.57-.57l.14-.14a13.8,13.8,0,0,1,1.59-1.29l.1-.07.77-.5.09-.05a5.36,5.36,0,0,1,.62-.34l.21-.12c.31-.16.61-.29.92-.43l0,0c.33-.13.67-.26,1.08-.4l.51-.15.47-.13a1.18,1.18,0,0,0,.85-1.31A1.16,1.16,0,0,0,89.43,67.49Zm0,0-.1-.09c-1.1.1-2.16.24-3.2.41l.06.06-.18.07a.31.31,0,0,0-.13.06c-.34.15-.69.31-1.06.5l-.24.12-.76.43-.1.06c-.27.17-.56.35-.82.53l-.12.08a14.84,14.84,0,0,0-1.89,1.55l-.14.12c-.24.23-.49.48-.71.72l-.05,0-.25-.2-.12-.08a10.46,10.46,0,0,0-.92-.61,7.1,7.1,0,0,0-.91-.55l-.12-.07-.12-.06a8.14,8.14,0,0,0-.89-.43c-1.18.38-2.34.8-3.5,1.24a1.33,1.33,0,0,0,.38.18,8.06,8.06,0,0,1,.86.25l.31.11.12,0a14,14,0,0,1,1.59.69,1.47,1.47,0,0,0,.24.13c.25.14.5.29.76.47a8.47,8.47,0,0,1,.85.58l.11.07c.25.19.48.38.73.6l.17.16a1.19,1.19,0,0,0,1.69,0l.11-.12,0,0c.22-.28.46-.54.71-.82s.38-.39.57-.57l.14-.14a13.8,13.8,0,0,1,1.59-1.29l.1-.07.77-.5.09-.05a5.36,5.36,0,0,1,.62-.34l.21-.12c.31-.16.61-.29.92-.43l0,0c.33-.13.67-.26,1.08-.4l.51-.15.47-.13a1.18,1.18,0,0,0,.85-1.31A1.16,1.16,0,0,0,89.43,67.49Z"/><path d="M135.5,8.46v84a1.19,1.19,0,0,1-1.78,1,55.31,55.31,0,0,0-5.48-2.78,54.62,54.62,0,0,0-5.3-2,51.33,51.33,0,0,0-5.13-1.3c-1-.2-2-.38-3.07-.52v-2.4c1.19.16,2.38.35,3.54.58,1.81.37,3.62.83,5.36,1.37a52.74,52.74,0,0,1,5.54,2.07c1.33.58,2.64,1.22,3.94,1.92V9.15a54.15,54.15,0,0,0-4.88-2.44,48.52,48.52,0,0,0-5.3-2,52.07,52.07,0,0,0-5.13-1.31c-1.61-.32-3.29-.57-5-.75s-3.2-.25-4.84-.28-3.12,0-4.71.09-3.06.21-4.63.4-3,.38-4.52.65-2.92.52-4.46.84-2.84.63-4.39,1S82.41,6.12,81,6.51s-2.88.81-4.31,1.22L72.38,9l-4.27,1.31-.14,0-4.15,1.26c-1.43.44-2.88.87-4.31,1.28s-2.89.84-4.35,1.23-2.92.78-4.4,1.15-3,.72-4.46,1-3.07.62-4.55.86-3.15.5-4.64.67-3.22.33-4.76.41-3.31.12-4.9.09-3.39-.13-5-.3-3.5-.44-5.2-.78a51.14,51.14,0,0,1-5.35-1.37,53.69,53.69,0,0,1-5.55-2.06C5,13.24,3.69,12.6,2.38,11.91V93.22a54.43,54.43,0,0,0,4.89,2.45,51.25,51.25,0,0,0,5.3,2A51.84,51.84,0,0,0,17.69,99c1,.2,2,.38,3.07.52V83.68c0-.27,0-.53,0-.8a5.43,5.43,0,0,1,0-.69l.08-.65h0c0-.26.06-.5.1-.75.08-.43.17-.84.26-1.23l0-.12a2.17,2.17,0,0,1,.07-.24c.08-.27.16-.56.25-.83s.24-.67.37-1l.07-.15A15.57,15.57,0,0,1,23.16,75c.2-.33.42-.68.65-1l.26-.36.46-.6c.26-.32.53-.63.8-.92a9.6,9.6,0,0,1,.71-.72l.13-.12a16.39,16.39,0,0,1,1.89-1.55l.12-.08.82-.53.11-.06c.26-.16.5-.29.76-.43l.23-.12c.38-.19.72-.35,1.07-.5a.34.34,0,0,1,.12-.06l.18-.07a12.78,12.78,0,0,1-2.87-4.42A12.55,12.55,0,0,1,27.94,61a13.2,13.2,0,0,1-.18-2.09A12.64,12.64,0,0,1,53,58.78v.14a12.68,12.68,0,0,1-.23,2.4c-.86.22-1.72.45-2.6.65a10,10,0,0,0,.43-2.56,3.93,3.93,0,0,0,0-.49,10.26,10.26,0,0,0-20.51,0,9.61,9.61,0,0,0,.27,2.28,10.18,10.18,0,0,0,4.13,6.14l.17.15a1.12,1.12,0,0,1,.35.68,1.2,1.2,0,0,1-.85,1.31l-.47.13-.52.15c-.41.14-.74.27-1.08.4l0,0c-.29.14-.6.27-.9.43l-.22.12a5.24,5.24,0,0,0-.61.34s-.09.05-.11.05l-.76.5-.1.07A12.9,12.9,0,0,0,27.82,73l-.15.14q-.29.27-.57.57c-.25.28-.48.54-.71.82l-.41.56-.25.31c-.16.23-.34.53-.52.83a12,12,0,0,0-.93,1.87l-.07.17c-.11.28-.22.55-.32.83s-.1.32-.15.5-.09.3-.13.45,0,0,0,.07c-.09.36-.17.73-.23,1.08,0,.17-.07.38-.09.59a.68.68,0,0,1,0,.14,2.3,2.3,0,0,1,0,.26l0,.29a3.64,3.64,0,0,0,0,.45c0,.31,0,.54,0,.77V99.74h1.07a1.23,1.23,0,0,1,1.07.7,1.21,1.21,0,0,1-.24,1.34l0,0a2.6,2.6,0,0,1-1.88.32l-.61,0h-.11l-1-.11c-1.43-.18-2.84-.4-4.22-.67a53.79,53.79,0,0,1-5.35-1.38,51.48,51.48,0,0,1-5.55-2.06A55.1,55.1,0,0,1,.59,94.94a1.18,1.18,0,0,1-.59-1v-84a1.2,1.2,0,0,1,1.79-1,53.25,53.25,0,0,0,5.48,2.78,47.76,47.76,0,0,0,5.3,2,49.19,49.19,0,0,0,5.12,1.3c1.62.33,3.29.58,5,.76s3.19.25,4.84.28,3.12,0,4.71-.08,3-.22,4.62-.41,3-.38,4.53-.65,2.93-.53,4.45-.84,2.85-.63,4.39-1,2.9-.73,4.33-1.12,2.89-.8,4.31-1.22l4.29-1.27,4.14-1.26.13,0,4.29-1.31c1.43-.44,2.87-.87,4.31-1.28s2.88-.84,4.35-1.23,2.91-.78,4.39-1.15,3-.72,4.47-1,3.08-.62,4.55-.86S96.9.68,98.4.51s3.22-.33,4.76-.41S106.47,0,108.05,0s3.39.13,5,.31a54.28,54.28,0,0,1,10.55,2.14,53.52,53.52,0,0,1,5.54,2.06,57.23,57.23,0,0,1,5.73,2.92A1.16,1.16,0,0,1,135.5,8.46Z"/></g></g></svg>