<svg xmlns="http://www.w3.org/2000/svg" viewBox="0 0 86.39 55.4"><defs><style>.cls-1{fill:#fff;}</style></defs><g id="Capa_2" data-name="Capa 2"><g id="Botones"><path class="cls-1" d="M78.44,0H8A8,8,0,0,0,0,8v39.5A8,8,0,0,0,8,55.4H48.07a.65.65,0,0,0,.65-.65h0a.65.65,0,0,0-.65-.65H8A6.65,6.65,0,0,1,1.3,47.45V8A6.65,6.65,0,0,1,8,1.3H78.44A6.65,6.65,0,0,1,85.09,8v39.5a6.65,6.65,0,0,1-6.65,6.65H66.25a.66.66,0,0,0-.65.65h0a.66.66,0,0,0,.65.65H78.44a8,8,0,0,0,8-7.95V8A8,8,0,0,0,78.44,0Z"/><path class="cls-1" d="M78.44,0H40.54A3.54,3.54,0,0,0,37,3.54V26.07a2.71,2.71,0,0,0,2.71,2.71h46a.65.65,0,0,0,.65-.65V8A8,8,0,0,0,78.44,0Zm6.65,27.48H39.71a1.41,1.41,0,0,1-1.41-1.41V3.54A2.24,2.24,0,0,1,40.54,1.3h37.9A6.66,6.66,0,0,1,85.09,8Z"/><path class="cls-1" d="M42.36,34.21a3.34,3.34,0,0,0-4.63-.93l-6.08,4A10,10,0,0,0,28,34.88a7.4,7.4,0,1,0-10.35,0,10,10,0,0,0-6.21,7.6,10.73,10.73,0,0,0-.15,1.76V54.37A.65.65,0,0,0,12,55H33.76a.64.64,0,0,0,.65-.65V44.25c0-.24,0-.48,0-.73l7-4.68a3.34,3.34,0,0,0,.93-4.63Zm-1.65,3.55-7.36,4.9a.66.66,0,0,0-.29.61c0,.33,0,.67,0,1v9.47H12.63V44.25a9.15,9.15,0,0,1,.13-1.54,8.74,8.74,0,0,1,6.42-6.94.67.67,0,0,0,.48-.51.65.65,0,0,0-.27-.65,6.11,6.11,0,1,1,9.59-5,6.06,6.06,0,0,1-2.63,5,.65.65,0,0,0-.27.65.63.63,0,0,0,.47.52,8.74,8.74,0,0,1,4.5,2.83.65.65,0,0,0,.85.12l6.55-4.35a2,2,0,0,1,2.83.57,2.08,2.08,0,0,1,.34,1.13A2,2,0,0,1,40.71,37.76Z"/><path class="cls-1" d="M69,8.24H44.23a.65.65,0,1,1,0-1.3H69a.65.65,0,0,1,0,1.3Z"/><path class="cls-1" d="M78,8.24H73.53a.65.65,0,1,1,0-1.3H78a.65.65,0,1,1,0,1.3Z"/><path class="cls-1" d="M66,15.39H44.23a.65.65,0,1,1,0-1.3H66a.65.65,0,0,1,0,1.3Z"/><path class="cls-1" d="M78,15.39H69a.65.65,0,0,1,0-1.3h9a.65.65,0,1,1,0,1.3Z"/><path class="cls-1" d="M51.74,22.54H44.23a.65.65,0,0,1,0-1.3h7.51a.65.65,0,0,1,0,1.3Z"/><path class="cls-1" d="M81,22.54H56.25a.65.65,0,0,1,0-1.3H81a.65.65,0,1,1,0,1.3Z"/><path class="cls-1" d="M56.51,55.4H50.66a.65.65,0,0,1,0-1.3h5.85a.65.65,0,0,1,0,1.3Z"/></g></g></svg>