<svg xmlns="http://www.w3.org/2000/svg" viewBox="0 0 86.6 85.76"><defs><style>.cls-1{fill:#fff;}</style></defs><g id="Capa_2" data-name="Capa 2"><g id="Botones"><path class="cls-1" d="M68.36,85.76h-66A2.36,2.36,0,0,1,0,83.4v-16a2.37,2.37,0,0,1,2.1-2.34A14.77,14.77,0,0,0,15,50.4,14.77,14.77,0,0,0,2.1,35.75,2.37,2.37,0,0,1,0,33.41v-16A2.36,2.36,0,0,1,2.36,15h16a1,1,0,0,0,1-.88,16.14,16.14,0,0,1,32,0,1,1,0,0,0,1,.88h16a2.36,2.36,0,0,1,2.36,2.36V34.25a16.15,16.15,0,0,1,0,32.29V83.4A2.36,2.36,0,0,1,68.36,85.76Zm-66-69.34a1,1,0,0,0-1,1v16a1,1,0,0,0,.88,1,16.16,16.16,0,0,1,14.16,16,16.15,16.15,0,0,1-14.16,16,1,1,0,0,0-.88,1v16a1,1,0,0,0,1,1h66a1,1,0,0,0,1-1V65.84a.68.68,0,0,1,.22-.5.72.72,0,0,1,.51-.19h.38a14.76,14.76,0,0,0,0-29.52h-.38a.67.67,0,0,1-.51-.18.7.7,0,0,1-.22-.51V17.4a1,1,0,0,0-1-1h-16A2.37,2.37,0,0,1,50,14.33a14.76,14.76,0,0,0-29.3,0,2.37,2.37,0,0,1-2.34,2.09Z"/><path class="cls-1" d="M20.74,52.34h-.12a.69.69,0,0,1-.56-.8,17.32,17.32,0,0,0-2.41-12A17.3,17.3,0,0,0,8,32.27a.69.69,0,0,1-.47-.86.68.68,0,0,1,.85-.47,18.73,18.73,0,0,1,10.42,7.81,18.69,18.69,0,0,1,2.6,13A.68.68,0,0,1,20.74,52.34Z"/><path class="cls-1" d="M17.08,62.18A.69.69,0,0,1,16.63,61a9,9,0,0,0,1.81-2.12,8.68,8.68,0,0,0,1.13-3,.69.69,0,1,1,1.36.25,10,10,0,0,1-1.31,3.46A10.23,10.23,0,0,1,17.53,62,.69.69,0,0,1,17.08,62.18Z"/><path class="cls-1" d="M50.82,81.58H5.7a.69.69,0,0,1,0-1.38H50.82a.69.69,0,1,1,0,1.38Z"/><path class="cls-1" d="M62.51,81.58H55.83a.69.69,0,0,1,0-1.38h6.68a.69.69,0,1,1,0,1.38Z"/></g></g></svg>