<svg xmlns="http://www.w3.org/2000/svg" viewBox="0 0 80.03 84.71"><defs><style>.cls-1{fill:#fff;}</style></defs><g id="Capa_2" data-name="Capa 2"><g id="Botones"><path class="cls-1" d="M36.87,0A69.38,69.38,0,0,0,19.38,2.12a1,1,0,0,0-.72.95h0A1,1,0,0,0,19.89,4a67.56,67.56,0,0,1,17-2.07c19.25,0,34.91,7.34,34.91,16.36A9.41,9.41,0,0,1,69,24.68c-2.48,2.69-6.44,5-11.45,6.77a63.41,63.41,0,0,1-20.64,3.21,63.62,63.62,0,0,1-20.66-3.21c-5-1.74-9-4.08-11.43-6.77A9.4,9.4,0,0,1,1.94,18.3a7.87,7.87,0,0,1,.56-2.9,1,1,0,0,0-.92-1.3h0a1,1,0,0,0-.9.6A9.88,9.88,0,0,0,0,18.3,11.21,11.21,0,0,0,3.35,26c2.68,2.93,6.92,5.45,12.22,7.29a65.29,65.29,0,0,0,21.3,3.33,65.17,65.17,0,0,0,21.28-3.33c5.31-1.84,9.54-4.36,12.24-7.29a11.27,11.27,0,0,0,3.33-7.69C73.72,8,57.53,0,36.87,0Z"/><path class="cls-1" d="M70.39,24.68l-.72-.78-.71.78c-2.48,2.69-6.44,5-11.45,6.77a63.18,63.18,0,0,1-20.64,3.21,63.35,63.35,0,0,1-20.66-3.21c-5-1.74-9-4.08-11.44-6.77l-.71-.78-.72.78A11.22,11.22,0,0,0,0,32.37a10.87,10.87,0,0,0,2.77,7,7.09,7.09,0,0,0,.57.66c.24.27.49.52.76.78s.35.32.53.47c.35.32.73.64,1.12.95.58.45,1.21.9,1.88,1.33l.69.42c.23.15.47.28.71.42l.74.41,1.44.73c.6.27,1.21.56,1.86.83l.73.28c.57.24,1.16.45,1.76.67A54.55,54.55,0,0,0,21.16,49a1,1,0,0,0,1.19-1h0a1,1,0,0,0-.76-.95,52.06,52.06,0,0,1-5.38-1.54c-5-1.76-9-4.1-11.44-6.78l-.34-.38a9.18,9.18,0,0,1-2.49-6,9,9,0,0,1,2.16-5.6,31.29,31.29,0,0,0,11.48,6.51,65.18,65.18,0,0,0,21.29,3.33,65.17,65.17,0,0,0,21.28-3.33,31.16,31.16,0,0,0,11.47-6.51,8.9,8.9,0,0,1,2.16,5.6A7.84,7.84,0,0,1,71,35.69a8.34,8.34,0,0,1-.43.84,7.67,7.67,0,0,1,1.34.59.47.47,0,0,0,.51,0l.12-.1a10.32,10.32,0,0,0,.71-1.73,9.47,9.47,0,0,0,.44-2.89A11.21,11.21,0,0,0,70.39,24.68ZM60.56,46.09a.45.45,0,0,0-.38-.34l-2.45-.31-.2.08c-.42.15-.83.28-1.23.4A63.18,63.18,0,0,1,38.7,48.7a1,1,0,0,0-1,1h0a1,1,0,0,0,1,1l1.33,0,1.4-.08c2.16-.12,4.28-.35,6.33-.67.5-.08,1-.15,1.49-.24s.87-.15,1.3-.24,1.16-.23,1.74-.37l1.47-.35,1.48-.4c.54-.16,1.07-.31,1.59-.48l1.3-.43,1.64-.6c.29-.13.59-.24.86-.35l-.08-.28ZM63.25,44a4.71,4.71,0,0,1,.11-1c-.32.18-.67.35-1,.51h0a5.46,5.46,0,0,0,.21,2.07l.83-.4h0A4.58,4.58,0,0,1,63.25,44Zm7-5.35a5,5,0,0,0-.93-.29l-.38.42-.37.39a4.78,4.78,0,0,1,2,.67,3.87,3.87,0,0,0,.33-.4,3.48,3.48,0,0,0,.26-.3A5,5,0,0,0,70.27,38.61Z"/><path class="cls-1" d="M71,39.4a8.51,8.51,0,0,0-.56-.66l-.12-.13a5,5,0,0,0-.93-.29l-.38.42-.37.39a4.78,4.78,0,0,1,2,.67A4.86,4.86,0,0,1,73,44a4.81,4.81,0,0,1-1.23,3.22,8.42,8.42,0,0,1-.29,1.48,5.66,5.66,0,0,0,2.22-3.22A11.1,11.1,0,0,0,71,39.4ZM63.25,44a4.71,4.71,0,0,1,.11-1c-.32.18-.67.35-1,.51h0a5.46,5.46,0,0,0,.21,2.07l.83-.41A4.58,4.58,0,0,1,63.25,44Zm-2.69,2.13a.45.45,0,0,0-.38-.34l-2.45-.31-.2.08c-.42.15-.83.28-1.23.4A63.18,63.18,0,0,1,38.7,48.7a1,1,0,0,0-1,1h0a1,1,0,0,0,1,1l1.33,0,1.4-.08c2.16-.12,4.28-.35,6.33-.67.5-.08,1-.15,1.49-.24l.24-.23a.76.76,0,0,1,1,0l0,0c.58-.12,1.16-.23,1.74-.37l1.47-.35,1.48-.4c.54-.16,1.07-.31,1.59-.48l.13-1a.73.73,0,0,1,.23-.45.8.8,0,0,1,.53-.22l2.83,0ZM4.77,52.79a9.36,9.36,0,0,1-2.83-6.36A9,9,0,0,1,4.1,40.84c.17.17.35.32.53.47.35.32.73.64,1.12.95.58.45,1.21.9,1.88,1.33l.69.42c.23.15.47.28.71.42l.74.41,1.44.73c.6.27,1.21.56,1.86.83l.73.28c.57.24,1.16.45,1.76.67A54.55,54.55,0,0,0,21.16,49a1,1,0,0,0,1.19-1h0a1,1,0,0,0-.76-.95,52.06,52.06,0,0,1-5.38-1.54c-5-1.76-9-4.1-11.44-6.78l-.34-.38L4.06,38l-.72.78a8.67,8.67,0,0,0-.57.66,10.29,10.29,0,0,0,0,14.05,6.86,6.86,0,0,0,.56.67c.24.26.49.52.77.78a22.54,22.54,0,0,0,3.29,2.59C8.17,58,9,58.49,9.9,59h0c.6.31,1.21.61,1.85.9.32.15.64.3,1,.43.58.25,1.17.49,1.78.72a52.91,52.91,0,0,0,6.38,1.91l1,.23c.92.2,1.86.39,2.81.55l.86.14q.69.12,1.38.21l1,.13c.74.09,1.48.17,2.22.23l1.32.11c.43,0,.87.06,1.32.09,1.32.07,2.66.11,4,.11,1.54,0,3.08,0,4.59-.15l0-2c-1.53.1-3.06.15-4.61.15C22.93,62.79,10.34,58.87,4.77,52.79Z"/><path class="cls-1" d="M64.65,58.51h0l.36-.21Zm-57.26-1C8.17,58,9,58.49,9.9,59h0c.6.31,1.21.61,1.85.9.32.15.64.3,1,.43.58.25,1.17.49,1.78.72a52.91,52.91,0,0,0,6.38,1.91l1,.23c.92.2,1.86.39,2.81.55l.86.14q.69.12,1.38.21l1,.13c.74.09,1.48.17,2.22.23l1.32.11c.43,0,.87.06,1.32.09,1.32.07,2.66.11,4,.11,1.54,0,3.08,0,4.59-.15l0-2c-1.53.1-3.06.15-4.61.15-13.94,0-26.53-3.92-32.1-10L4.05,52l-.72.78a8.19,8.19,0,0,0-.56.66,10.92,10.92,0,0,0-2.77,7c0,10.25,16.2,18.3,36.87,18.3.61,0,1.21,0,1.81,0a1,1,0,0,0,1-1h0a1,1,0,0,0-1-1c-.59,0-1.17,0-1.76,0-19.26,0-34.93-7.34-34.93-16.35A8.91,8.91,0,0,1,4.1,54.9,22.54,22.54,0,0,0,7.39,57.49Zm61,10.07a7.94,7.94,0,0,1-7.62,5.77,7.31,7.31,0,0,1-1.76-.2c-.72.28-1.47.55-2.23.79a9.22,9.22,0,0,0,3.35.87,29.94,29.94,0,0,0,9.16-5.44,9.4,9.4,0,0,0,.88-3.9A14.34,14.34,0,0,1,68.36,67.56Zm5.27-8.45,0,0s0,.07.05.1A.59.59,0,0,1,73.63,59.11Zm-9-.6h0l.36-.21Zm0,0h0l.36-.21Z"/><g id="_Repetici贸n_radial_" data-name="&lt;Repetici贸n radial&gt;"><path class="cls-1" d="M79.36,61.67l-5-.64a15.45,15.45,0,0,0-.7-1.79s0-.07-.05-.1l0,0,3.16-3.91a.78.78,0,0,0-.05-1L75.68,53.1,75,52.44l-.39.38L72.3,50.93a.47.47,0,0,0-.52,0,7.46,7.46,0,0,1-1.56.62.48.48,0,0,0-.33.39l-.09.77.27-.22,1.6-1.23.52.53,1.51,1.53,1.48,1.5-2,2.48L72.1,58.57a.77.77,0,0,0-.07.85,12,12,0,0,1,1,2.52.79.79,0,0,0,.5.51l.15,0,4.82.6,0,5-4.86.51a.76.76,0,0,0-.65.54,13.26,13.26,0,0,1-1.07,2.5.76.76,0,0,0,.06.85l3,3.83-3.56,3.52-3.81-3.08a.73.73,0,0,0-.83-.08,12,12,0,0,1-2.53,1,.74.74,0,0,0-.55.65L63,83.18l-5,0-.5-4.87a.77.77,0,0,0-.54-.65,11.6,11.6,0,0,1-2.4-1l-.1,0a.77.77,0,0,0-.85,0l-.45.34-2,1.59a.76.76,0,0,0-.29.6h0a.76.76,0,0,0,1.23.6l2.09-1.61a14.81,14.81,0,0,0,1.87.8l.52,5a.77.77,0,0,0,.76.68l6.36,0h0a.77.77,0,0,0,.76-.68l.63-5A12.75,12.75,0,0,0,67,78.26l3.94,3.21a.78.78,0,0,0,1,0l4.54-4.48a.76.76,0,0,0,.07-1l-3.1-4a14.81,14.81,0,0,0,.8-1.87l5-.53a.76.76,0,0,0,.68-.76l0-6.36A.76.76,0,0,0,79.36,61.67ZM53.89,54a.8.8,0,0,0,.85.08,11.64,11.64,0,0,1,2.51-1,.77.77,0,0,0,.55-.65l.62-4.83H61.2v0a7.37,7.37,0,0,1-.53-1.22l-.08-.28-2.83,0a.8.8,0,0,0-.53.22.73.73,0,0,0-.23.45l-.13,1-.51,4a14.31,14.31,0,0,0-1.87.75l-3.9-3.16,0,0a.76.76,0,0,0-1,0l-.24.23L45,53.85a.76.76,0,0,0,0,1l3.09,4a15.22,15.22,0,0,0-.81,1.88l-5,.53a.75.75,0,0,0-.68.76v.62l0,2,0,3.79a.77.77,0,0,0,.67.76l5,.63a12.36,12.36,0,0,0,.77,1.88l-.28.35a.65.65,0,0,0,.51,1.07h0a1.2,1.2,0,0,0,.95-.45l.31-.38a.79.79,0,0,0,.07-.87,12.2,12.2,0,0,1-1-2.49.76.76,0,0,0-.64-.55L43,67.71l0-3.23h0V62.7l4.88-.5a.76.76,0,0,0,.55-.34.68.68,0,0,0,.1-.21,12,12,0,0,1,1.06-2.49.76.76,0,0,0-.06-.84l-3-3.85L50.1,51ZM65,47.64a4.78,4.78,0,0,1-1.18-1.49h-1a5.74,5.74,0,0,0,2.31,2.72Zm1.23,4.54c-.25-.11-.52-.2-.78-.29l-.06-.6a6.39,6.39,0,0,1-1.06-.49.45.45,0,0,0-.51,0v0l.11,1.09.23-.18a7.84,7.84,0,0,0,1.15.5l.13,1.26a7.53,7.53,0,0,1,1,.41Z"/></g><path class="cls-1" d="M68.36,67.56a7.94,7.94,0,0,1-7.62,5.77,7.31,7.31,0,0,1-1.76-.2,7.92,7.92,0,0,1-6.17-7.73,7.46,7.46,0,0,1,.43-2.55l-.43.09c-.41.1-.81.2-1.24.29h0a9.76,9.76,0,0,0-.25,2.17,9.4,9.4,0,0,0,5.43,8.52,9.22,9.22,0,0,0,3.35.87l.64,0a9.44,9.44,0,0,0,9.4-9.36A14.34,14.34,0,0,1,68.36,67.56Zm-3.71-9.05h0l.36-.21Z"/><path class="cls-1" d="M70.14,65.41v0a14.81,14.81,0,0,1-1.78,2.1,7.92,7.92,0,0,0-3.7-9c.25-.14.48-.28.71-.43q-.34.22-.72.42a7.72,7.72,0,0,0-2.42-.89,7.48,7.48,0,0,0-1.5-.15,7.91,7.91,0,0,0-6.24,3.05,7.73,7.73,0,0,0-1.26,2.33l-.41.1-1,.22-.26.06a9.61,9.61,0,0,1,.82-2.17,9.39,9.39,0,0,1,13.68-3.4h0A9.41,9.41,0,0,1,70.14,65.41Z"/><g id="_Repetici贸n_radial_2" data-name="&lt;Repetici贸n radial&gt;"><path class="cls-1" d="M66.18,52.18l0-.33a.49.49,0,0,0-.33-.4l-.48-.16a6.39,6.39,0,0,1-1.06-.49.44.44,0,0,0-.51,0h0l.11,1.09.23-.18a7.84,7.84,0,0,0,1.15.5l.12,1.25a8.65,8.65,0,0,1,1,.42ZM71,35.67l-.32-3.1a.47.47,0,0,0-.46-.42l-3.9,0h0a.46.46,0,0,0-.46.41l-.39,3.08a7.78,7.78,0,0,0-1.16.46l-2.41-2a.47.47,0,0,0-.63,0l-2.77,2.74a.44.44,0,0,0-.05.61l1.89,2.45a8.75,8.75,0,0,0-.48,1.15l-3.1.33a.47.47,0,0,0-.42.46l0,3.91a.59.59,0,0,0,0,.14l1.22-.41.22-.08-.53-.07,0-3.06,3-.31a.47.47,0,0,0,.4-.34,7.08,7.08,0,0,1,.66-1.53.51.51,0,0,0,0-.52l-1.83-2.36,2.18-2.15L63.92,37a.49.49,0,0,0,.52,0A7,7,0,0,1,66,36.42a.46.46,0,0,0,.35-.4l.37-3,3.08,0,.31,3a.47.47,0,0,0,.33.4l.19.06a7.4,7.4,0,0,0,.43-.84ZM66.18,52.18l0-.33a.49.49,0,0,0-.33-.4l-.48-.16a6.39,6.39,0,0,1-1.06-.49.44.44,0,0,0-.51,0h0l.11,1.09.23-.18a7.84,7.84,0,0,0,1.15.5l.12,1.25a8.65,8.65,0,0,1,1,.42Zm0,0,0-.33a.49.49,0,0,0-.33-.4l-.48-.16a6.39,6.39,0,0,1-1.06-.49.44.44,0,0,0-.51,0h0l.11,1.09.23-.18a7.84,7.84,0,0,0,1.15.5l.12,1.25a8.65,8.65,0,0,1,1,.42ZM71,35.67l-.32-3.1a.47.47,0,0,0-.46-.42l-3.9,0h0a.46.46,0,0,0-.46.41l-.39,3.08a7.78,7.78,0,0,0-1.16.46l-2.41-2a.47.47,0,0,0-.63,0l-2.77,2.74a.44.44,0,0,0-.05.61l1.89,2.45a8.75,8.75,0,0,0-.48,1.15l-3.1.33a.47.47,0,0,0-.42.46l0,3.91a.59.59,0,0,0,0,.14l1.22-.41.22-.08-.53-.07,0-3.06,3-.31a.47.47,0,0,0,.4-.34,7.08,7.08,0,0,1,.66-1.53.51.51,0,0,0,0-.52l-1.83-2.36,2.18-2.15L63.92,37a.49.49,0,0,0,.52,0A7,7,0,0,1,66,36.42a.46.46,0,0,0,.35-.4l.37-3,3.08,0,.31,3a.47.47,0,0,0,.33.4l.19.06a7.4,7.4,0,0,0,.43-.84ZM66.18,52.18l0-.33a.49.49,0,0,0-.33-.4l-.48-.16a6.39,6.39,0,0,1-1.06-.49.44.44,0,0,0-.51,0h0l.11,1.09.23-.18a7.84,7.84,0,0,0,1.15.5l.12,1.25a8.65,8.65,0,0,1,1,.42ZM71,35.67l-.32-3.1a.47.47,0,0,0-.46-.42l-3.9,0h0a.46.46,0,0,0-.46.41l-.39,3.08a7.78,7.78,0,0,0-1.16.46l-2.41-2a.47.47,0,0,0-.63,0l-2.77,2.74a.44.44,0,0,0-.05.61l1.89,2.45a8.75,8.75,0,0,0-.48,1.15l-3.1.33a.47.47,0,0,0-.42.46l0,3.91a.59.59,0,0,0,0,.14l1.22-.41.22-.08-.53-.07,0-3.06,3-.31a.47.47,0,0,0,.4-.34,7.08,7.08,0,0,1,.66-1.53.51.51,0,0,0,0-.52l-1.83-2.36,2.18-2.15L63.92,37a.49.49,0,0,0,.52,0A7,7,0,0,1,66,36.42a.46.46,0,0,0,.35-.4l.37-3,3.08,0,.31,3a.47.47,0,0,0,.33.4l.19.06a7.4,7.4,0,0,0,.43-.84ZM66.15,51.85a.49.49,0,0,0-.33-.4l-.48-.16.06.6c.26.09.53.18.78.29ZM71,35.67l-.32-3.1a.47.47,0,0,0-.46-.42l-3.9,0h0a.46.46,0,0,0-.46.41l-.39,3.08a7.78,7.78,0,0,0-1.16.46l-2.41-2a.47.47,0,0,0-.63,0l-2.77,2.74a.44.44,0,0,0-.05.61l1.89,2.45a8.75,8.75,0,0,0-.48,1.15l-3.1.33a.47.47,0,0,0-.42.46l0,3.91a.59.59,0,0,0,0,.14l1.22-.41.22-.08-.53-.07,0-3.06,3-.31a.47.47,0,0,0,.4-.34,7.08,7.08,0,0,1,.66-1.53.51.51,0,0,0,0-.52l-1.83-2.36,2.18-2.15L63.92,37a.49.49,0,0,0,.52,0A7,7,0,0,1,66,36.42a.46.46,0,0,0,.35-.4l.37-3,3.08,0,.31,3a.47.47,0,0,0,.33.4l.19.06a7.4,7.4,0,0,0,.43-.84ZM65.82,51.45l-.48-.16.06.6c.26.09.53.18.78.29l0-.33A.49.49,0,0,0,65.82,51.45Zm13.71-9.78-3.07-.39A7.78,7.78,0,0,0,76,40.12l2-2.42a.49.49,0,0,0,0-.63L75.2,34.3a.49.49,0,0,0-.63,0l-1.29,1-1.16.89A9.67,9.67,0,0,0,71,35.69l-.06,0-.32-3.1a.47.47,0,0,0-.46-.42l-3.9,0h0a.46.46,0,0,0-.46.41l-.39,3.08a7.78,7.78,0,0,0-1.16.46l-2.41-2a.47.47,0,0,0-.63,0l-2.77,2.74a.44.44,0,0,0-.05.61l1.89,2.45a8.75,8.75,0,0,0-.48,1.15l-3.1.33a.47.47,0,0,0-.42.46l0,3.91a.59.59,0,0,0,0,.14.48.48,0,0,0,.39.33l.53.06,2.54.32,0,.1a5.94,5.94,0,0,0,.36.91.84.84,0,0,0,.06.14l-2,2.42a.49.49,0,0,0,0,.63L61,53.62a.5.5,0,0,0,.63,0l2.21-1.72.23-.18a7.84,7.84,0,0,0,1.15.5l.12,1.25.2,1.84a.47.47,0,0,0,.46.42l3.9,0a.47.47,0,0,0,.47-.41l.39-3.07A10.43,10.43,0,0,0,72,51.85l1.75,1.42.67.54a.46.46,0,0,0,.62,0l.69-.68L77.77,51a.45.45,0,0,0,0-.61L75.91,48a8.27,8.27,0,0,0,.49-1.15l3.09-.33a.47.47,0,0,0,.43-.46l0-3.91A.44.44,0,0,0,79.53,41.67ZM79,45.61l-3,.32a.47.47,0,0,0-.4.33,7.21,7.21,0,0,1-.66,1.53.47.47,0,0,0,0,.52l1.84,2.35L75,52.43l-.39.39-2.33-1.9a.49.49,0,0,0-.52,0,7.3,7.3,0,0,1-1.54.62.48.48,0,0,0-.35.39l-.09.77-.28,2.19-3.07,0-.09-.9-.18-1.75,0-.33a.49.49,0,0,0-.33-.4l-.48-.16a6.39,6.39,0,0,1-1.06-.49.44.44,0,0,0-.51,0h0L61.4,52.67l-2.15-2.19,1.89-2.34a.44.44,0,0,0,.06-.48,0,0,0,0,0,0,0,7.58,7.58,0,0,1-.53-1.24c0-.08,0-.18-.08-.27v0a.47.47,0,0,0-.39-.34l-2.44-.31-.53-.07,0-3.06,3-.31a.47.47,0,0,0,.4-.34,7.08,7.08,0,0,1,.66-1.53.51.51,0,0,0,0-.52l-1.83-2.36,2.18-2.15L63.92,37a.49.49,0,0,0,.52,0A7,7,0,0,1,66,36.42a.46.46,0,0,0,.35-.4l.37-3,3.08,0,.31,3a.47.47,0,0,0,.33.4l.19.06a7.67,7.67,0,0,1,1.34.59.45.45,0,0,0,.51,0l.12-.08,2.25-1.74L77,37.43l-1.89,2.34a.44.44,0,0,0,0,.51,8.06,8.06,0,0,1,.61,1.55.47.47,0,0,0,.39.34l3,.37ZM66.15,51.85a.49.49,0,0,0-.33-.4l-.48-.16.06.6c.26.09.53.18.78.29ZM71,35.67l-.32-3.1a.47.47,0,0,0-.46-.42l-3.9,0h0a.46.46,0,0,0-.46.41l-.39,3.08a7.78,7.78,0,0,0-1.16.46l-2.41-2a.47.47,0,0,0-.63,0l-2.77,2.74a.44.44,0,0,0-.05.61l1.89,2.45a8.75,8.75,0,0,0-.48,1.15l-3.1.33a.47.47,0,0,0-.42.46l0,3.91a.59.59,0,0,0,0,.14l1.22-.41.22-.08-.53-.07,0-3.06,3-.31a.47.47,0,0,0,.4-.34,7.08,7.08,0,0,1,.66-1.53.51.51,0,0,0,0-.52l-1.83-2.36,2.18-2.15L63.92,37a.49.49,0,0,0,.52,0A7,7,0,0,1,66,36.42a.46.46,0,0,0,.35-.4l.37-3,3.08,0,.31,3a.47.47,0,0,0,.33.4l.19.06a7.4,7.4,0,0,0,.43-.84ZM66.15,51.85a.49.49,0,0,0-.33-.4l-.48-.16.06.6c.26.09.53.18.78.29ZM71,35.67l-.32-3.1a.47.47,0,0,0-.46-.42l-3.9,0h0a.46.46,0,0,0-.46.41l-.39,3.08a7.78,7.78,0,0,0-1.16.46l-2.41-2a.47.47,0,0,0-.63,0l-2.77,2.74a.44.44,0,0,0-.05.61l1.89,2.45a8.75,8.75,0,0,0-.48,1.15l-3.1.33a.47.47,0,0,0-.42.46l0,3.91a.59.59,0,0,0,0,.14l1.22-.41.22-.08-.53-.07,0-3.06,3-.31a.47.47,0,0,0,.4-.34,7.08,7.08,0,0,1,.66-1.53.51.51,0,0,0,0-.52l-1.83-2.36,2.18-2.15L63.92,37a.49.49,0,0,0,.52,0A7,7,0,0,1,66,36.42a.46.46,0,0,0,.35-.4l.37-3,3.08,0,.31,3a.47.47,0,0,0,.33.4l.19.06a7.4,7.4,0,0,0,.43-.84ZM66.18,52.18l0-.33a.49.49,0,0,0-.33-.4l-.48-.16a6.39,6.39,0,0,1-1.06-.49.44.44,0,0,0-.51,0h0l.11,1.09.23-.18a7.84,7.84,0,0,0,1.15.5l.12,1.25a8.65,8.65,0,0,1,1,.42ZM71,35.67l-.32-3.1a.47.47,0,0,0-.46-.42l-3.9,0h0a.46.46,0,0,0-.46.41l-.39,3.08a7.78,7.78,0,0,0-1.16.46l-2.41-2a.47.47,0,0,0-.63,0l-2.77,2.74a.44.44,0,0,0-.05.61l1.89,2.45a8.75,8.75,0,0,0-.48,1.15l-3.1.33a.47.47,0,0,0-.42.46l0,3.91a.59.59,0,0,0,0,.14l1.22-.41.22-.08-.53-.07,0-3.06,3-.31a.47.47,0,0,0,.4-.34,7.08,7.08,0,0,1,.66-1.53.51.51,0,0,0,0-.52l-1.83-2.36,2.18-2.15L63.92,37a.49.49,0,0,0,.52,0A7,7,0,0,1,66,36.42a.46.46,0,0,0,.35-.4l.37-3,3.08,0,.31,3a.47.47,0,0,0,.33.4l.19.06a7.4,7.4,0,0,0,.43-.84ZM66.18,52.18l0-.33a.49.49,0,0,0-.33-.4l-.48-.16a6.39,6.39,0,0,1-1.06-.49.44.44,0,0,0-.51,0h0l.11,1.09.23-.18a7.84,7.84,0,0,0,1.15.5l.12,1.25a8.65,8.65,0,0,1,1,.42ZM71,35.67l-.32-3.1a.47.47,0,0,0-.46-.42l-3.9,0h0a.46.46,0,0,0-.46.41l-.39,3.08a7.78,7.78,0,0,0-1.16.46l-2.41-2a.47.47,0,0,0-.63,0l-2.77,2.74a.44.44,0,0,0-.05.61l1.89,2.45a8.75,8.75,0,0,0-.48,1.15l-3.1.33a.47.47,0,0,0-.42.46l0,3.91a.59.59,0,0,0,0,.14l1.22-.41.22-.08-.53-.07,0-3.06,3-.31a.47.47,0,0,0,.4-.34,7.08,7.08,0,0,1,.66-1.53.51.51,0,0,0,0-.52l-1.83-2.36,2.18-2.15L63.92,37a.49.49,0,0,0,.52,0A7,7,0,0,1,66,36.42a.46.46,0,0,0,.35-.4l.37-3,3.08,0,.31,3a.47.47,0,0,0,.33.4l.19.06a7.4,7.4,0,0,0,.43-.84ZM66.18,52.18l0-.33a.49.49,0,0,0-.33-.4l-.48-.16a6.39,6.39,0,0,1-1.06-.49.44.44,0,0,0-.51,0h0l.11,1.09.23-.18a7.84,7.84,0,0,0,1.15.5l.12,1.25a8.65,8.65,0,0,1,1,.42ZM71,35.67l-.32-3.1a.47.47,0,0,0-.46-.42l-3.9,0h0a.46.46,0,0,0-.46.41l-.39,3.08a7.78,7.78,0,0,0-1.16.46l-2.41-2a.47.47,0,0,0-.63,0l-2.77,2.74a.44.44,0,0,0-.05.61l1.89,2.45a8.75,8.75,0,0,0-.48,1.15l-3.1.33a.47.47,0,0,0-.42.46l0,3.91a.59.59,0,0,0,0,.14l1.22-.41.22-.08-.53-.07,0-3.06,3-.31a.47.47,0,0,0,.4-.34,7.08,7.08,0,0,1,.66-1.53.51.51,0,0,0,0-.52l-1.83-2.36,2.18-2.15L63.92,37a.49.49,0,0,0,.52,0A7,7,0,0,1,66,36.42a.46.46,0,0,0,.35-.4l.37-3,3.08,0,.31,3a.47.47,0,0,0,.33.4l.19.06a7.4,7.4,0,0,0,.43-.84Z"/></g><path class="cls-1" d="M71.21,39.1a5,5,0,0,0-.94-.49,5.9,5.9,0,0,0-.93-.29,5.52,5.52,0,0,0-1.23-.14,5.79,5.79,0,0,0-5.75,5.29c0,.16,0,.33,0,.49a5.61,5.61,0,0,0,.23,1.59,4.1,4.1,0,0,0,.2.59,5.74,5.74,0,0,0,2.31,2.72,5.76,5.76,0,0,0,8.6-3.42,5.51,5.51,0,0,0,.2-1.48A5.77,5.77,0,0,0,71.21,39.1Zm.53,8.08a4.81,4.81,0,0,1-3.63,1.64A4.75,4.75,0,0,1,65,47.64a4.61,4.61,0,0,1-1.17-1.49,4.11,4.11,0,0,1-.38-1h0A4.58,4.58,0,0,1,63.25,44a4.71,4.71,0,0,1,.11-1,4.85,4.85,0,0,1,4.75-3.86,3.75,3.75,0,0,1,.48,0,4.7,4.7,0,0,1,2,.67,4.82,4.82,0,0,1,1.13,7.38Z"/><circle class="cls-1" cx="7.84" cy="35.2" r="1.87"/><circle class="cls-1" cx="7.84" cy="48.96" r="1.87"/><circle class="cls-1" cx="7.84" cy="62.71" r="1.87"/></g></g></svg>