<svg xmlns="http://www.w3.org/2000/svg" viewBox="0 0 86.07 86.93"><defs><style>.cls-1{fill:#fff;}</style></defs><g id="Capa_2" data-name="Capa 2"><g id="Botones"><path class="cls-1" d="M84.51,27.56H30a.75.75,0,0,0-.78.71h0A.75.75,0,0,0,30,29H83.73a.75.75,0,0,1,.78.72v3.58a.75.75,0,0,1-.78.72H2.34a.75.75,0,0,1-.78-.72V29.71A.75.75,0,0,1,2.34,29H14.41a.75.75,0,0,0,.78-.72h0a.75.75,0,0,0-.78-.71H1.56A1.5,1.5,0,0,0,0,29v5a1.51,1.51,0,0,0,1.56,1.43h83A1.51,1.51,0,0,0,86.07,34V29A1.5,1.5,0,0,0,84.51,27.56Z"/><path class="cls-1" d="M85.29,86.93H.78a.62.62,0,0,1-.62-.62V79.86a.62.62,0,0,1,.62-.62H85.29a.62.62,0,0,1,.62.62v6.45A.62.62,0,0,1,85.29,86.93ZM1.4,85.69H84.67V80.48H1.4Z"/><path class="cls-1" d="M21.81,80.48h-14a.62.62,0,0,1-.62-.62V73.41a.62.62,0,0,1,.62-.62h14a.62.62,0,0,1,.62.62v6.45A.62.62,0,0,1,21.81,80.48ZM8.41,79.24H21.19V74H8.41Z"/><path class="cls-1" d="M21.81,41.79h-14a.62.62,0,0,1-.62-.62V34.72a.62.62,0,0,1,.62-.62h14a.62.62,0,0,1,.62.62v6.45A.62.62,0,0,1,21.81,41.79ZM8.41,40.55H21.19V35.34H8.41Z"/><path class="cls-1" d="M50.63,41.79h-14a.62.62,0,0,1-.62-.62V34.72a.62.62,0,0,1,.62-.62h14a.62.62,0,0,1,.62.62v6.45A.62.62,0,0,1,50.63,41.79Zm-13.4-1.24H50V35.34H37.23Z"/><path class="cls-1" d="M50.63,80.48h-14a.62.62,0,0,1-.62-.62V73.41a.62.62,0,0,1,.62-.62h14a.62.62,0,0,1,.62.62v6.45A.62.62,0,0,1,50.63,80.48Zm-13.4-1.24H50V74H37.23Z"/><path class="cls-1" d="M78.67,80.48h-14a.62.62,0,0,1-.62-.62V73.41a.62.62,0,0,1,.62-.62h14a.62.62,0,0,1,.62.62v6.45A.62.62,0,0,1,78.67,80.48Zm-13.4-1.24H78.05V74H65.27Z"/><path class="cls-1" d="M77.89,41.79h-14a.62.62,0,0,1-.62-.62V34.72a.62.62,0,0,1,.62-.62h14a.62.62,0,0,1,.62.62v6.45A.62.62,0,0,1,77.89,41.79Zm-13.4-1.24H77.27V35.34H64.49Z"/><path class="cls-1" d="M17.91,74h-7a.62.62,0,0,1-.62-.62V41.17a.62.62,0,0,1,.62-.62h7a.63.63,0,0,1,.63.62V73.41A.62.62,0,0,1,17.91,74Zm-6.38-1.24h5.76v-31H11.53Z"/><path class="cls-1" d="M47.51,74h-7a.62.62,0,0,1-.62-.62V41.17a.62.62,0,0,1,.62-.62h7a.62.62,0,0,1,.62.62V73.41A.61.61,0,0,1,47.51,74Zm-6.39-1.24h5.77v-31H41.12Z"/><path class="cls-1" d="M74.78,74h-7a.62.62,0,0,1-.62-.62V41.17a.62.62,0,0,1,.62-.62h7a.62.62,0,0,1,.62.62V73.41A.62.62,0,0,1,74.78,74Zm-6.39-1.24h5.76v-31H68.39Z"/><path class="cls-1" d="M79,27.56C78.15,20.47,62.57,15,42.84,15S7.53,20.47,6.66,27.56c0,.21,0,.43,0,.65a.76.76,0,0,0,.79.7h7a.76.76,0,0,0,.78-.72h0a.75.75,0,0,0-.78-.72H8.25c1.13-6,16.51-11,34.59-11s33.46,5,34.59,11H30a.75.75,0,0,0-.78.72h0a.76.76,0,0,0,.78.72H78.27a.76.76,0,0,0,.79-.7C79.06,28,79,27.77,79,27.56Z"/><path class="cls-1" d="M41.67,16.36a.62.62,0,0,1-.62-.62V2.12a.62.62,0,0,1,1.24,0V15.74A.62.62,0,0,1,41.67,16.36Z"/><path class="cls-1" d="M51.25,9.19A5.67,5.67,0,0,1,50,9.06a6.73,6.73,0,0,1-2.55-1.2A3.82,3.82,0,0,0,45.56,7a4.87,4.87,0,0,0-3.49,1.42.63.63,0,0,1-.66.08.62.62,0,0,1-.36-.56V1.19a.62.62,0,0,1,.38-.57A6.92,6.92,0,0,1,45.14.06a6.83,6.83,0,0,1,2.94,1.2,4.58,4.58,0,0,0,2.1.87A5,5,0,0,0,53.69.71a.63.63,0,0,1,.66-.08.62.62,0,0,1,.36.56V7.94a.62.62,0,0,1-.38.57A8,8,0,0,1,51.25,9.19Zm-6-3.45.41,0a5.09,5.09,0,0,1,2.48,1.07,5.49,5.49,0,0,0,2.1,1,5.66,5.66,0,0,0,3.2-.33V2.4a5.51,5.51,0,0,1-3.37,1,5.59,5.59,0,0,1-2.67-1.06,5.8,5.8,0,0,0-2.45-1,5.63,5.63,0,0,0-2.68.32V6.72A5.57,5.57,0,0,1,45.27,5.74Zm8.82,2.2Z"/></g></g></svg>