<svg xmlns="http://www.w3.org/2000/svg" viewBox="0 0 85.48 70.06"><defs><style>.cls-1{fill:#fff;}</style></defs><g id="Capa_2" data-name="Capa 2"><g id="Botones"><path class="cls-1" d="M45.79,0H8.28A8.3,8.3,0,0,0,0,8.28V9.77a.8.8,0,0,0,.8.8h0a.8.8,0,0,0,.8-.8V8.28A6.68,6.68,0,0,1,8.28,1.6H45.79a6.68,6.68,0,0,1,6.68,6.68v27A6.69,6.69,0,0,1,45.79,42H15.17l-8,5.9a.26.26,0,0,1-.29,0,.27.27,0,0,1-.14-.24L6.67,41.8l-.56-.19A6.69,6.69,0,0,1,1.6,35.29V19.88a.8.8,0,0,0-.8-.8h0a.8.8,0,0,0-.8.8V35.29a8.28,8.28,0,0,0,5.08,7.64l0,4.75A1.86,1.86,0,0,0,7,49.54a1.84,1.84,0,0,0,1.12-.37l7.57-5.59h30.1a8.29,8.29,0,0,0,8.28-8.29v-27A8.28,8.28,0,0,0,45.79,0Z"/><path class="cls-1" d="M24.64,34.33v-.42A1.89,1.89,0,0,1,26.53,32H27a1.89,1.89,0,0,1,1.89,1.89v.42A1.89,1.89,0,0,1,27,36.22h-.42A1.89,1.89,0,0,1,24.64,34.33Zm-5-19v.19c0-.21,0-.41,0-.6A1.84,1.84,0,0,0,19.62,15.36Z"/><path class="cls-1" d="M34.45,14.68v0A8,8,0,0,1,34,17.42,8.76,8.76,0,0,1,33,19.54c-.43.62-.89,1.24-1.37,1.84a21.87,21.87,0,0,0-1.38,1.95,10,10,0,0,0-1.06,2.38,7.78,7.78,0,0,0-.31,1.47A1.93,1.93,0,0,1,27,28.9h-.21a1.9,1.9,0,0,1-1.87-2.17,9.74,9.74,0,0,1,.42-1.94,12.79,12.79,0,0,1,1.42-3c.56-.85,1.13-1.64,1.68-2.36a14.6,14.6,0,0,0,1.41-2.21,5.62,5.62,0,0,0,.57-2.57v0A3.72,3.72,0,0,0,29.5,12a3.55,3.55,0,0,0-4.13-.51,2.87,2.87,0,0,0-.79.74,5.8,5.8,0,0,0-.9,3.53,1.86,1.86,0,0,1-1.82,1.89h-.41a1.87,1.87,0,0,1-1.83-1.89v-.22c0-.21,0-.41,0-.6a8.74,8.74,0,0,1,2-5.45A6.79,6.79,0,0,1,27,7.35,7.53,7.53,0,0,1,32.5,9.26,7.28,7.28,0,0,1,34.45,14.68Z"/><circle class="cls-1" cx="54.27" cy="48.62" r="2.38"/><circle class="cls-1" cx="63.82" cy="48.62" r="2.38"/><circle class="cls-1" cx="73.38" cy="48.62" r="2.38"/><path class="cls-1" d="M85.48,39.7V57.54a6.19,6.19,0,0,1-5.09,6.07l-.06,4.84a1.57,1.57,0,0,1-.86,1.44,1.65,1.65,0,0,1-.71.17,1.57,1.57,0,0,1-.93-.31l-8.18-6H59.34a.6.6,0,0,1-.6-.59.59.59,0,0,1,.6-.59H70.05l8.49,6.27a.38.38,0,0,0,.39,0,.4.4,0,0,0,.22-.34c0-1.84,0-3.63.06-5.41v-.54l.53,0a5,5,0,0,0,4.55-5V39.7a5,5,0,0,0-5-5H53.86v.58a8.08,8.08,0,0,1-8.07,8.08H43.34V57.54a5,5,0,0,0,5,5H52a.58.58,0,0,1,.59.59.59.59,0,0,1-.59.59H48.32a6.16,6.16,0,0,1-6.16-6.16V42.18h3.63a6.9,6.9,0,0,0,6.89-6.89V33.53H79.32A6.16,6.16,0,0,1,85.48,39.7Z"/></g></g></svg>