<svg xmlns="http://www.w3.org/2000/svg" viewBox="0 0 111.95 118.49"><g id="Capa_2" data-name="Capa 2"><g id="Iconos"><path d="M51.57,0A97.16,97.16,0,0,0,27.11,3a1.35,1.35,0,0,0-1,1.32h0a1.37,1.37,0,0,0,1.72,1.32A94.79,94.79,0,0,1,51.57,2.72C78.5,2.72,100.41,13,100.41,25.6c0,3.08-1.33,6.08-4,8.92-3.47,3.76-9,7-16,9.47a88.71,88.71,0,0,1-28.88,4.5A88.81,88.81,0,0,1,22.68,44c-7-2.43-12.54-5.71-16-9.47-2.63-2.84-4-5.84-4-8.92a11.21,11.21,0,0,1,.77-4.06,1.35,1.35,0,0,0-1.27-1.82h0A1.34,1.34,0,0,0,1,20.56a13.84,13.84,0,0,0-1,5C0,29.38,1.57,33,4.68,36.36c3.76,4.1,9.68,7.62,17.1,10.2a91.55,91.55,0,0,0,29.79,4.65,91.48,91.48,0,0,0,29.78-4.65c7.42-2.58,13.34-6.1,17.11-10.2,3.1-3.36,4.67-7,4.67-10.76C103.13,11.25,80.48,0,51.57,0Z"/><path d="M98.47,34.52l-1-1.09-1,1.09c-3.47,3.76-9,7-16,9.48a88.76,88.76,0,0,1-28.88,4.49A88.82,88.82,0,0,1,22.68,44c-7-2.44-12.54-5.72-16-9.48l-1-1.09-1,1.09C1.57,37.88,0,41.49,0,45.28a15.15,15.15,0,0,0,3.88,9.83,11.43,11.43,0,0,0,.79.93c.34.37.69.73,1.07,1.09s.48.45.73.66c.5.45,1,.89,1.57,1.32.82.64,1.7,1.27,2.64,1.87l1,.58c.32.21.65.4,1,.59l1,.57c.66.34,1.32.68,2,1s1.7.79,2.6,1.16l1,.4c.8.33,1.63.63,2.47.93a75.25,75.25,0,0,0,7.83,2.26,1.36,1.36,0,0,0,1.66-1.33h0a1.37,1.37,0,0,0-1.06-1.33,69.59,69.59,0,0,1-7.53-2.16c-7-2.45-12.54-5.73-16-9.48l-.48-.53a12.87,12.87,0,0,1-3.47-8.38,12.48,12.48,0,0,1,3-7.83c3.77,3.64,9.28,6.77,16,9.11a91.48,91.48,0,0,0,29.78,4.65,91.48,91.48,0,0,0,29.78-4.65c6.76-2.34,12.27-5.47,16-9.11a12.48,12.48,0,0,1,3,7.83,11,11,0,0,1-1,4.65,13,13,0,0,1-.6,1.17,10.13,10.13,0,0,1,1.87.83.67.67,0,0,0,.72,0l.16-.13a14.37,14.37,0,0,0,1-2.42,13.32,13.32,0,0,0,.62-4C103.13,41.49,101.57,37.88,98.47,34.52ZM84.72,64.47a.63.63,0,0,0-.54-.47l-3.42-.44-.29.11c-.58.21-1.15.4-1.72.57a89.09,89.09,0,0,1-24.61,3.89,1.36,1.36,0,0,0-1.34,1.36h0a1.35,1.35,0,0,0,1.38,1.36q.95,0,1.86-.06l2-.1c3-.17,6-.49,8.86-.94.7-.11,1.4-.21,2.08-.34s1.22-.21,1.82-.34c.82-.16,1.63-.32,2.44-.51s1.38-.32,2-.49,1.39-.37,2.07-.56,1.5-.44,2.23-.67l1.82-.61c.78-.27,1.54-.56,2.29-.84l1.21-.49-.12-.38S84.72,64.49,84.72,64.47Zm3.76-3a6.53,6.53,0,0,1,.15-1.4c-.45.25-.93.49-1.4.72h0a7.74,7.74,0,0,0,.3,2.9l1.15-.57h0A6.88,6.88,0,0,1,88.48,61.49ZM98.3,54A7.28,7.28,0,0,0,97,53.6l-.53.59c-.17.19-.34.37-.52.54a6.59,6.59,0,0,1,2.83.94,4,4,0,0,0,.47-.56,2.86,2.86,0,0,0,.36-.42A7.41,7.41,0,0,0,98.3,54Z"/><path d="M99.25,55.11c-.24-.31-.5-.62-.78-.92L98.3,54A7.28,7.28,0,0,0,97,53.6l-.53.59c-.17.19-.34.37-.52.54a6.59,6.59,0,0,1,2.83.94A6.78,6.78,0,0,1,100.36,66a11.49,11.49,0,0,1-.41,2.07,8,8,0,0,0,3.11-4.51A15.59,15.59,0,0,0,99.25,55.11ZM88.48,61.49a6.53,6.53,0,0,1,.15-1.4c-.45.25-.93.49-1.4.72h0a7.74,7.74,0,0,0,.3,2.9l1.15-.58A6.88,6.88,0,0,1,88.48,61.49Zm-3.76,3a.63.63,0,0,0-.54-.47l-3.42-.44-.29.11c-.58.21-1.15.4-1.72.57a89.09,89.09,0,0,1-24.61,3.89,1.36,1.36,0,0,0-1.34,1.36h0a1.35,1.35,0,0,0,1.38,1.36q.95,0,1.86-.06l2-.1c3-.17,6-.49,8.86-.94.7-.11,1.4-.21,2.08-.34l.34-.32A1.06,1.06,0,0,1,70.68,69l.07,0c.82-.16,1.63-.32,2.44-.51s1.38-.32,2-.49,1.39-.37,2.07-.56,1.5-.44,2.23-.67l.18-1.41A1,1,0,0,1,80,64.8a1.09,1.09,0,0,1,.75-.31l3.95,0S84.72,64.49,84.72,64.47Zm-78,9.38C4,71,2.72,68,2.72,65a12.43,12.43,0,0,1,3-7.82c.24.23.48.45.73.66.5.45,1,.89,1.57,1.32.82.64,1.7,1.27,2.64,1.87l1,.58c.32.21.65.4,1,.59l1,.57c.66.34,1.32.68,2,1s1.7.79,2.6,1.16l1,.4c.8.33,1.63.63,2.47.93a75.25,75.25,0,0,0,7.83,2.26,1.36,1.36,0,0,0,1.66-1.33h0a1.37,1.37,0,0,0-1.06-1.33,69.59,69.59,0,0,1-7.53-2.16c-7-2.45-12.54-5.73-16-9.48l-.48-.53-.51-.56-1,1.09c-.29.3-.54.61-.79.92a14.41,14.41,0,0,0,0,19.66,9.73,9.73,0,0,0,.79.93c.34.37.69.73,1.07,1.09a31.32,31.32,0,0,0,4.61,3.63c1.09.72,2.26,1.4,3.51,2.07h0c.83.44,1.69.86,2.59,1.27.44.2.89.41,1.36.6.81.35,1.64.68,2.5,1a72.77,72.77,0,0,0,8.92,2.68l1.38.32c1.29.28,2.61.54,3.94.77l1.2.19c.64.11,1.28.21,1.93.29l1.46.19c1,.12,2.07.23,3.1.32.61.06,1.23.11,1.84.15s1.22.09,1.85.13c1.85.09,3.73.15,5.62.15,2.16,0,4.31-.07,6.42-.21l0-2.73c-2.13.15-4.28.21-6.45.21C32.08,87.83,14.47,82.35,6.67,73.85Z"/><path d="M90.44,81.85h0c.17-.1.34-.19.5-.3Zm-80.1-1.43c1.09.72,2.26,1.4,3.51,2.07h0c.83.44,1.69.86,2.59,1.27.44.2.89.41,1.36.6.81.35,1.64.68,2.5,1a72.77,72.77,0,0,0,8.92,2.68l1.38.32c1.29.28,2.61.54,3.94.77l1.2.19c.64.11,1.28.21,1.93.29l1.46.19c1,.12,2.07.23,3.1.32.61.06,1.23.11,1.84.15s1.22.09,1.85.13c1.85.09,3.73.15,5.62.15,2.16,0,4.31-.07,6.42-.21l0-2.73c-2.13.15-4.28.21-6.45.21-19.49,0-37.1-5.48-44.9-14l-1-1.09-1,1.09a11,11,0,0,0-.79.92A15.3,15.3,0,0,0,0,84.61C0,99,22.66,110.22,51.57,110.22c.85,0,1.7,0,2.54,0a1.37,1.37,0,0,0,1.33-1.37h0A1.37,1.37,0,0,0,54,107.46q-1.23,0-2.46,0c-26.94,0-48.85-10.27-48.85-22.88a12.47,12.47,0,0,1,3-7.82A31.32,31.32,0,0,0,10.34,80.42ZM95.62,94.5A11.1,11.1,0,0,1,85,102.58a10.4,10.4,0,0,1-2.45-.28c-1,.39-2.06.77-3.13,1.1a12.76,12.76,0,0,0,4.69,1.22A42,42,0,0,0,96.89,97a13.06,13.06,0,0,0,1.22-5.45A19.63,19.63,0,0,1,95.62,94.5ZM103,82.69l0,0,.06.14A1.24,1.24,0,0,1,103,82.69Zm-12.56-.84h0c.17-.1.34-.19.5-.3Zm0,0h0c.17-.1.34-.19.5-.3Z"/><g id="_Repetici贸n_radial_" data-name="&lt;Repetici贸n radial&gt;"><path d="M111,86.26l-7-.89a19.94,19.94,0,0,0-1-2.5l-.06-.14,0,0,4.42-5.47a1.08,1.08,0,0,0-.07-1.43l-1.48-1.51-.93-.93-.54.54-3.27-2.65a.65.65,0,0,0-.72-.07,10.48,10.48,0,0,1-2.18.88.63.63,0,0,0-.46.53l-.13,1.08.38-.3,2.23-1.73.73.75,2.11,2.14,2.07,2.09-2.82,3.48-1.48,1.84a1.1,1.1,0,0,0-.1,1.19,17.09,17.09,0,0,1,1.39,3.52,1.07,1.07,0,0,0,.7.72.65.65,0,0,0,.2,0l6.75.85,0,7L103,96a1.09,1.09,0,0,0-.92.76,18.15,18.15,0,0,1-1.49,3.5,1.06,1.06,0,0,0,.08,1.18l4.18,5.36-5,4.93-5.32-4.31a1,1,0,0,0-1.17-.11,17.3,17.3,0,0,1-3.53,1.4,1,1,0,0,0-.77.9l-.86,6.77-7,0-.69-6.81a1.1,1.1,0,0,0-.76-.91,16.92,16.92,0,0,1-3.36-1.41l-.14-.08a1.06,1.06,0,0,0-1.18.08l-.63.47-2.84,2.22a1.06,1.06,0,0,0-.41.84h0a1.06,1.06,0,0,0,1.72.84l2.92-2.25a19.66,19.66,0,0,0,2.62,1.12l.73,7.06a1.06,1.06,0,0,0,1.06,1l8.9.07h0a1.07,1.07,0,0,0,1.06-.94l.88-7a18.19,18.19,0,0,0,2.64-1.06L99.21,114a1.08,1.08,0,0,0,1.43-.07l6.34-6.26a1.06,1.06,0,0,0,.1-1.41l-4.34-5.57A21.1,21.1,0,0,0,103.87,98l7.06-.74a1.06,1.06,0,0,0,.95-1.06l.07-8.9A1.07,1.07,0,0,0,111,86.26ZM75.39,75.59a1.08,1.08,0,0,0,1.18.11,17.49,17.49,0,0,1,3.51-1.4,1.07,1.07,0,0,0,.78-.9l.86-6.76h3.89s0,0,0,0a10.45,10.45,0,0,1-.73-1.72l-.12-.38-3.95,0a1.09,1.09,0,0,0-.75.31,1,1,0,0,0-.32.63l-.18,1.41-.71,5.61a20.4,20.4,0,0,0-2.62,1l-5.46-4.42-.07,0a1.06,1.06,0,0,0-1.41.07l-.34.32-6,5.92a1.07,1.07,0,0,0-.08,1.42l4.33,5.57A19.84,19.84,0,0,0,66,85L59,85.69A1.05,1.05,0,0,0,58,86.75v.87l0,2.73,0,5.31a1.07,1.07,0,0,0,.93,1.06l7,.88A17.67,17.67,0,0,0,67,100.23l-.4.49a.92.92,0,0,0,.72,1.5h0a1.71,1.71,0,0,0,1.34-.64l.43-.53a1.09,1.09,0,0,0,.1-1.21,16.5,16.5,0,0,1-1.39-3.49,1.07,1.07,0,0,0-.9-.77l-6.76-.86,0-4.52h0V87.71L67,87a1.06,1.06,0,0,0,.77-.48.87.87,0,0,0,.14-.29,17.24,17.24,0,0,1,1.48-3.49,1,1,0,0,0-.08-1.17l-4.18-5.39,5-4.91Zm15.47-9a6.44,6.44,0,0,1-1.65-2.08l-1.41,0A8,8,0,0,0,91,68.35ZM92.57,73c-.35-.15-.72-.28-1.08-.41l-.09-.83a9.51,9.51,0,0,1-1.48-.69.63.63,0,0,0-.72,0v0l.16,1.52.31-.24a11.47,11.47,0,0,0,1.61.69l.18,1.76a11.86,11.86,0,0,1,1.38.58Z"/></g><path d="M95.62,94.5A11.1,11.1,0,0,1,85,102.58a10.4,10.4,0,0,1-2.45-.28,11.09,11.09,0,0,1-8.64-10.81,10.53,10.53,0,0,1,.6-3.57l-.59.13c-.58.14-1.15.28-1.74.4h0a13.31,13.31,0,0,0-.35,3,13.14,13.14,0,0,0,7.59,11.91,12.76,12.76,0,0,0,4.69,1.22c.3,0,.59,0,.89,0A13.18,13.18,0,0,0,98.11,91.56,19.63,19.63,0,0,1,95.62,94.5ZM90.44,81.85h0c.17-.1.34-.19.5-.3Z"/><path d="M98.11,91.49v.07a19.63,19.63,0,0,1-2.49,2.94,11.07,11.07,0,0,0-5.17-12.64c.34-.19.67-.39,1-.6-.33.21-.67.4-1,.59a11,11,0,0,0-3.39-1.25A10.44,10.44,0,0,0,85,80.39a11.08,11.08,0,0,0-8.74,4.27,10.58,10.58,0,0,0-1.75,3.26l-.59.13-1.37.32-.37.08a13.57,13.57,0,0,1,1.14-3A13.16,13.16,0,0,1,85,78.32a13.44,13.44,0,0,1,7.46,2.33h0A13.19,13.19,0,0,1,98.11,91.49Z"/><g id="_Repetici贸n_radial_2" data-name="&lt;Repetici贸n radial&gt;"><path d="M92.57,73l0-.46a.65.65,0,0,0-.46-.56l-.67-.22a9.51,9.51,0,0,1-1.48-.69.63.63,0,0,0-.72,0v0l.16,1.52.31-.24a11.47,11.47,0,0,0,1.61.69l.18,1.76a11.86,11.86,0,0,1,1.38.58ZM99.28,49.9l-.45-4.34a.64.64,0,0,0-.65-.58l-5.46,0h0a.64.64,0,0,0-.64.57l-.54,4.3a10,10,0,0,0-1.62.65l-3.38-2.75a.68.68,0,0,0-.88,0l-3.88,3.84a.65.65,0,0,0-.07.86l2.66,3.43a11.63,11.63,0,0,0-.68,1.6l-4.34.46a.66.66,0,0,0-.59.64l0,5.47a1,1,0,0,0,0,.19c.57-.17,1.14-.36,1.72-.57l.29-.11L80,63.47l0-4.29,4.17-.43a.64.64,0,0,0,.56-.48,10.52,10.52,0,0,1,.93-2.14.69.69,0,0,0-.06-.72l-2.55-3.3,3-3,3.27,2.64a.64.64,0,0,0,.72.07A9.76,9.76,0,0,1,92.29,51a.65.65,0,0,0,.48-.56l.53-4.15,4.3,0L98,50.46a.65.65,0,0,0,.46.56l.27.08a13,13,0,0,0,.6-1.17ZM92.57,73l0-.46a.65.65,0,0,0-.46-.56l-.67-.22a9.51,9.51,0,0,1-1.48-.69.63.63,0,0,0-.72,0v0l.16,1.52.31-.24a11.47,11.47,0,0,0,1.61.69l.18,1.76a11.86,11.86,0,0,1,1.38.58Zm0,0,0-.46a.65.65,0,0,0-.46-.56l-.67-.22a9.51,9.51,0,0,1-1.48-.69.63.63,0,0,0-.72,0v0l.16,1.52.31-.24a11.47,11.47,0,0,0,1.61.69l.18,1.76a11.86,11.86,0,0,1,1.38.58ZM99.28,49.9l-.45-4.34a.64.64,0,0,0-.65-.58l-5.46,0h0a.64.64,0,0,0-.64.57l-.54,4.3a10,10,0,0,0-1.62.65l-3.38-2.75a.68.68,0,0,0-.88,0l-3.88,3.84a.65.65,0,0,0-.07.86l2.66,3.43a11.63,11.63,0,0,0-.68,1.6l-4.34.46a.66.66,0,0,0-.59.64l0,5.47a1,1,0,0,0,0,.19c.57-.17,1.14-.36,1.72-.57l.29-.11L80,63.47l0-4.29,4.17-.43a.64.64,0,0,0,.56-.48,10.52,10.52,0,0,1,.93-2.14.69.69,0,0,0-.06-.72l-2.55-3.3,3-3,3.27,2.64a.64.64,0,0,0,.72.07A9.76,9.76,0,0,1,92.29,51a.65.65,0,0,0,.48-.56l.53-4.15,4.3,0L98,50.46a.65.65,0,0,0,.46.56l.27.08a13,13,0,0,0,.6-1.17ZM92.57,73l0-.46a.65.65,0,0,0-.46-.56l-.67-.22a9.51,9.51,0,0,1-1.48-.69.63.63,0,0,0-.72,0v0l.16,1.52.31-.24a11.47,11.47,0,0,0,1.61.69l.18,1.76a11.86,11.86,0,0,1,1.38.58ZM99.28,49.9l-.45-4.34a.64.64,0,0,0-.65-.58l-5.46,0h0a.64.64,0,0,0-.64.57l-.54,4.3a10,10,0,0,0-1.62.65l-3.38-2.75a.68.68,0,0,0-.88,0l-3.88,3.84a.65.65,0,0,0-.07.86l2.66,3.43a11.63,11.63,0,0,0-.68,1.6l-4.34.46a.66.66,0,0,0-.59.64l0,5.47a1,1,0,0,0,0,.19c.57-.17,1.14-.36,1.72-.57l.29-.11L80,63.47l0-4.29,4.17-.43a.64.64,0,0,0,.56-.48,10.52,10.52,0,0,1,.93-2.14.69.69,0,0,0-.06-.72l-2.55-3.3,3-3,3.27,2.64a.64.64,0,0,0,.72.07A9.76,9.76,0,0,1,92.29,51a.65.65,0,0,0,.48-.56l.53-4.15,4.3,0L98,50.46a.65.65,0,0,0,.46.56l.27.08a13,13,0,0,0,.6-1.17ZM92.53,72.53a.65.65,0,0,0-.46-.56l-.67-.22.09.83c.36.13.73.26,1.08.41ZM99.28,49.9l-.45-4.34a.64.64,0,0,0-.65-.58l-5.46,0h0a.64.64,0,0,0-.64.57l-.54,4.3a10,10,0,0,0-1.62.65l-3.38-2.75a.68.68,0,0,0-.88,0l-3.88,3.84a.65.65,0,0,0-.07.86l2.66,3.43a11.63,11.63,0,0,0-.68,1.6l-4.34.46a.66.66,0,0,0-.59.64l0,5.47a1,1,0,0,0,0,.19c.57-.17,1.14-.36,1.72-.57l.29-.11L80,63.47l0-4.29,4.17-.43a.64.64,0,0,0,.56-.48,10.52,10.52,0,0,1,.93-2.14.69.69,0,0,0-.06-.72l-2.55-3.3,3-3,3.27,2.64a.64.64,0,0,0,.72.07A9.76,9.76,0,0,1,92.29,51a.65.65,0,0,0,.48-.56l.53-4.15,4.3,0L98,50.46a.65.65,0,0,0,.46.56l.27.08a13,13,0,0,0,.6-1.17ZM92.07,72l-.67-.22.09.83c.36.13.73.26,1.08.41l0-.46A.65.65,0,0,0,92.07,72Zm19.18-13.69L107,57.74a12.69,12.69,0,0,0-.64-1.62l2.73-3.39a.65.65,0,0,0,0-.87L105.19,48a.65.65,0,0,0-.87-.06l-1.81,1.41-1.62,1.25a11.52,11.52,0,0,0-1.53-.65l-.08,0-.45-4.34a.64.64,0,0,0-.65-.58l-5.46,0h0a.64.64,0,0,0-.64.57l-.54,4.3a10,10,0,0,0-1.62.65l-3.38-2.75a.68.68,0,0,0-.88,0l-3.88,3.84a.65.65,0,0,0-.07.86l2.66,3.43a11.63,11.63,0,0,0-.68,1.6l-4.34.46a.66.66,0,0,0-.59.64l0,5.47a1,1,0,0,0,0,.19.67.67,0,0,0,.55.47l.74.09,3.55.44a1.56,1.56,0,0,0,.06.15,9.71,9.71,0,0,0,.5,1.26c0,.07.06.14.08.21L81.5,70.24a.65.65,0,0,0,0,.87L85.38,75a.67.67,0,0,0,.87,0l3.1-2.41.31-.24a11.47,11.47,0,0,0,1.61.69l.18,1.76.27,2.57a.66.66,0,0,0,.65.58l5.46,0a.64.64,0,0,0,.65-.57l.54-4.3a11.18,11.18,0,0,0,1.62-.65l2.45,2,.94.76a.67.67,0,0,0,.87,0l1-1,2.92-2.89a.66.66,0,0,0,.06-.86l-2.66-3.42a13.24,13.24,0,0,0,.68-1.6l4.33-.46a.67.67,0,0,0,.6-.64l0-5.47A.65.65,0,0,0,111.25,58.28Zm-.76,5.53-4.17.43a.67.67,0,0,0-.56.47,10.58,10.58,0,0,1-.93,2.15.65.65,0,0,0,.06.72l2.57,3.29-2.52,2.48-.54.54-3.27-2.65a.65.65,0,0,0-.72-.07,10.2,10.2,0,0,1-2.15.87.66.66,0,0,0-.49.54l-.13,1.08-.39,3.07-4.29,0-.13-1.27L92.57,73l0-.46a.65.65,0,0,0-.46-.56l-.67-.22a9.51,9.51,0,0,1-1.48-.69.63.63,0,0,0-.72,0v0l-3.3,2.54-3-3.06,2.64-3.26a.67.67,0,0,0,.08-.69s0,0,0,0a10.45,10.45,0,0,1-.73-1.72l-.12-.38s0,0,0,0a.63.63,0,0,0-.54-.47l-3.42-.44L80,63.47l0-4.29,4.17-.43a.64.64,0,0,0,.56-.48,10.52,10.52,0,0,1,.93-2.14.69.69,0,0,0-.06-.72l-2.55-3.3,3-3,3.27,2.64a.64.64,0,0,0,.72.07A9.76,9.76,0,0,1,92.29,51a.65.65,0,0,0,.48-.56l.53-4.15,4.3,0L98,50.46a.65.65,0,0,0,.46.56l.27.08a10.13,10.13,0,0,1,1.87.83.67.67,0,0,0,.72,0l.16-.13,3.15-2.43,3,3L105,55.63a.63.63,0,0,0,0,.72,11.54,11.54,0,0,1,.86,2.17.64.64,0,0,0,.54.47l4.15.52Zm-18,8.72a.65.65,0,0,0-.46-.56l-.67-.22.09.83c.36.13.73.26,1.08.41ZM99.28,49.9l-.45-4.34a.64.64,0,0,0-.65-.58l-5.46,0h0a.64.64,0,0,0-.64.57l-.54,4.3a10,10,0,0,0-1.62.65l-3.38-2.75a.68.68,0,0,0-.88,0l-3.88,3.84a.65.65,0,0,0-.07.86l2.66,3.43a11.63,11.63,0,0,0-.68,1.6l-4.34.46a.66.66,0,0,0-.59.64l0,5.47a1,1,0,0,0,0,.19c.57-.17,1.14-.36,1.72-.57l.29-.11L80,63.47l0-4.29,4.17-.43a.64.64,0,0,0,.56-.48,10.52,10.52,0,0,1,.93-2.14.69.69,0,0,0-.06-.72l-2.55-3.3,3-3,3.27,2.64a.64.64,0,0,0,.72.07A9.76,9.76,0,0,1,92.29,51a.65.65,0,0,0,.48-.56l.53-4.15,4.3,0L98,50.46a.65.65,0,0,0,.46.56l.27.08a13,13,0,0,0,.6-1.17ZM92.53,72.53a.65.65,0,0,0-.46-.56l-.67-.22.09.83c.36.13.73.26,1.08.41ZM99.28,49.9l-.45-4.34a.64.64,0,0,0-.65-.58l-5.46,0h0a.64.64,0,0,0-.64.57l-.54,4.3a10,10,0,0,0-1.62.65l-3.38-2.75a.68.68,0,0,0-.88,0l-3.88,3.84a.65.65,0,0,0-.07.86l2.66,3.43a11.63,11.63,0,0,0-.68,1.6l-4.34.46a.66.66,0,0,0-.59.64l0,5.47a1,1,0,0,0,0,.19c.57-.17,1.14-.36,1.72-.57l.29-.11L80,63.47l0-4.29,4.17-.43a.64.64,0,0,0,.56-.48,10.52,10.52,0,0,1,.93-2.14.69.69,0,0,0-.06-.72l-2.55-3.3,3-3,3.27,2.64a.64.64,0,0,0,.72.07A9.76,9.76,0,0,1,92.29,51a.65.65,0,0,0,.48-.56l.53-4.15,4.3,0L98,50.46a.65.65,0,0,0,.46.56l.27.08a13,13,0,0,0,.6-1.17ZM92.57,73l0-.46a.65.65,0,0,0-.46-.56l-.67-.22a9.51,9.51,0,0,1-1.48-.69.63.63,0,0,0-.72,0v0l.16,1.52.31-.24a11.47,11.47,0,0,0,1.61.69l.18,1.76a11.86,11.86,0,0,1,1.38.58ZM99.28,49.9l-.45-4.34a.64.64,0,0,0-.65-.58l-5.46,0h0a.64.64,0,0,0-.64.57l-.54,4.3a10,10,0,0,0-1.62.65l-3.38-2.75a.68.68,0,0,0-.88,0l-3.88,3.84a.65.65,0,0,0-.07.86l2.66,3.43a11.63,11.63,0,0,0-.68,1.6l-4.34.46a.66.66,0,0,0-.59.64l0,5.47a1,1,0,0,0,0,.19c.57-.17,1.14-.36,1.72-.57l.29-.11L80,63.47l0-4.29,4.17-.43a.64.64,0,0,0,.56-.48,10.52,10.52,0,0,1,.93-2.14.69.69,0,0,0-.06-.72l-2.55-3.3,3-3,3.27,2.64a.64.64,0,0,0,.72.07A9.76,9.76,0,0,1,92.29,51a.65.65,0,0,0,.48-.56l.53-4.15,4.3,0L98,50.46a.65.65,0,0,0,.46.56l.27.08a13,13,0,0,0,.6-1.17ZM92.57,73l0-.46a.65.65,0,0,0-.46-.56l-.67-.22a9.51,9.51,0,0,1-1.48-.69.63.63,0,0,0-.72,0v0l.16,1.52.31-.24a11.47,11.47,0,0,0,1.61.69l.18,1.76a11.86,11.86,0,0,1,1.38.58ZM99.28,49.9l-.45-4.34a.64.64,0,0,0-.65-.58l-5.46,0h0a.64.64,0,0,0-.64.57l-.54,4.3a10,10,0,0,0-1.62.65l-3.38-2.75a.68.68,0,0,0-.88,0l-3.88,3.84a.65.65,0,0,0-.07.86l2.66,3.43a11.63,11.63,0,0,0-.68,1.6l-4.34.46a.66.66,0,0,0-.59.64l0,5.47a1,1,0,0,0,0,.19c.57-.17,1.14-.36,1.72-.57l.29-.11L80,63.47l0-4.29,4.17-.43a.64.64,0,0,0,.56-.48,10.52,10.52,0,0,1,.93-2.14.69.69,0,0,0-.06-.72l-2.55-3.3,3-3,3.27,2.64a.64.64,0,0,0,.72.07A9.76,9.76,0,0,1,92.29,51a.65.65,0,0,0,.48-.56l.53-4.15,4.3,0L98,50.46a.65.65,0,0,0,.46.56l.27.08a13,13,0,0,0,.6-1.17ZM92.57,73l0-.46a.65.65,0,0,0-.46-.56l-.67-.22a9.51,9.51,0,0,1-1.48-.69.63.63,0,0,0-.72,0v0l.16,1.52.31-.24a11.47,11.47,0,0,0,1.61.69l.18,1.76a11.86,11.86,0,0,1,1.38.58ZM99.28,49.9l-.45-4.34a.64.64,0,0,0-.65-.58l-5.46,0h0a.64.64,0,0,0-.64.57l-.54,4.3a10,10,0,0,0-1.62.65l-3.38-2.75a.68.68,0,0,0-.88,0l-3.88,3.84a.65.65,0,0,0-.07.86l2.66,3.43a11.63,11.63,0,0,0-.68,1.6l-4.34.46a.66.66,0,0,0-.59.64l0,5.47a1,1,0,0,0,0,.19c.57-.17,1.14-.36,1.72-.57l.29-.11L80,63.47l0-4.29,4.17-.43a.64.64,0,0,0,.56-.48,10.52,10.52,0,0,1,.93-2.14.69.69,0,0,0-.06-.72l-2.55-3.3,3-3,3.27,2.64a.64.64,0,0,0,.72.07A9.76,9.76,0,0,1,92.29,51a.65.65,0,0,0,.48-.56l.53-4.15,4.3,0L98,50.46a.65.65,0,0,0,.46.56l.27.08a13,13,0,0,0,.6-1.17Z"/></g><path d="M99.61,54.69A7.41,7.41,0,0,0,98.3,54,7.28,7.28,0,0,0,97,53.6a8.06,8.06,0,0,0-9.77,7.21c0,.22,0,.45,0,.68a7.41,7.41,0,0,0,.33,2.22,4.74,4.74,0,0,0,.27.83A8,8,0,0,0,91,68.35a8,8,0,0,0,12-4.79,7.34,7.34,0,0,0,.29-2.07A8.08,8.08,0,0,0,99.61,54.69ZM100.36,66a6.75,6.75,0,0,1-5.08,2.3,6.61,6.61,0,0,1-4.42-1.66,6.44,6.44,0,0,1-1.65-2.08,7.13,7.13,0,0,1-.53-1.42h0a6.88,6.88,0,0,1-.2-1.64,6.53,6.53,0,0,1,.15-1.4,6.79,6.79,0,0,1,6.65-5.4c.22,0,.45,0,.67,0a6.59,6.59,0,0,1,2.83.94A6.78,6.78,0,0,1,100.36,66Z"/><circle cx="10.97" cy="49.24" r="2.61"/><circle cx="10.97" cy="68.48" r="2.61"/><circle cx="10.97" cy="87.73" r="2.61"/></g></g></svg>