<svg xmlns="http://www.w3.org/2000/svg" viewBox="0 0 1364.72 482.7"><defs><style>.cls-1{fill:#fdf6e6;}.cls-2{fill:#da6e5b;opacity:0.8;}.cls-3{fill:#fff;}</style></defs><g id="Capa_2" data-name="Capa 2"><g id="imagenes"><rect class="cls-1" width="1364.72" height="482.7" transform="translate(1364.72 482.7) rotate(-180)"/><ellipse class="cls-2" cx="1118.94" cy="197.65" rx="118.62" ry="115.72"/><path class="cls-3" d="M103.63,95.65c0-.22,0-.44,0-.66,0-11.63,11.71-21.06,26.15-21.06a30.79,30.79,0,0,1,14.06,3.31c-1.68-15.8,7-29.18,18.23-31.81,10.43-2.45,19.31,5.26,20.53,6.36,2.6-2.82,12.36-12.7,26.6-12.94,16.93-.29,33.31,13.14,39.38,33.55a56.67,56.67,0,0,1,11.18-1.1c20.09,0,36.38,10.17,36.38,22.7a15.07,15.07,0,0,1-.11,1.65Z"/><path class="cls-3" d="M755.87,84.57c0-.12,0-.24,0-.36,0-6.35-6.39-11.49-14.28-11.49a16.85,16.85,0,0,0-7.68,1.8c.92-8.62-3.83-15.93-9.95-17.37-5.69-1.34-10.54,2.88-11.21,3.47-1.42-1.54-6.75-6.93-14.52-7.06-9.25-.16-18.19,7.18-21.5,18.32a30.88,30.88,0,0,0-6.11-.6c-11,0-19.86,5.55-19.86,12.39a6.69,6.69,0,0,0,.06.9Z"/><path class="cls-3" d="M1019.47,181.37c1.27-6.82,8.06-12,16.26-12a18,18,0,0,1,10.46,3.25c2.15-8.75,10.42-15.28,20.32-15.28a21.81,21.81,0,0,1,7.71,1.41c0-.19,0-.37,0-.55,0-18.51,11.68-33.51,26.1-33.51s26.11,15,26.11,33.51c0,.26,0,.52,0,.78a25.77,25.77,0,0,1,10.46-2.21c13.05,0,23.64,9.49,23.64,21.19a19.66,19.66,0,0,1-.34,3.44Z"/></g></g></svg>