<?xml version="1.0" encoding="utf-8"?>
<!-- Generator: Adobe Illustrator 24.1.3, SVG Export Plug-In . SVG Version: 6.00 Build 0)  -->
<svg version="1.1" id="Capa_1" xmlns="http://www.w3.org/2000/svg" xmlns:xlink="http://www.w3.org/1999/xlink" x="0px" y="0px"
	 viewBox="0 0 107.6 119.7" style="enable-background:new 0 0 107.6 119.7;" xml:space="preserve">
<style type="text/css">
	.st0{fill:#DA6E5B;}
	.st1{fill:#4E45AC;}
	.st2{font-family:'GillSans-Bold';}
	.st3{font-size:111.49px;}
	.st4{fill:#F8E8A3;}
	.st5{fill:#5192D9;}
</style>
<g id="Capa_2_1_">
	<g id="Arte">
		<path class="st0" d="M6.8,0h93.9c3.8,0,6.8,3.1,6.8,6.8v106c0,3.8-3.1,6.8-6.8,6.8H6.8c-3.8,0-6.8-3.1-6.8-6.8V6.8
			C0,3.1,3.1,0,6.8,0z"/>
		<text transform="matrix(1 0 0 1 11.97 101.99)" class="st1 st2 st3">E</text>
		<path class="st4" d="M64.2,31.7h37.1c0,0-0.3-4.5-7.1-4.5c0,0-1.8-5.6-8.8-5.6c-3.3,0-5.4,0.5-8,2.8
			C77.4,24.4,64.2,22.8,64.2,31.7z"/>
		<circle class="st5" cx="22.2" cy="75.1" r="13.3"/>
		<circle class="st5" cx="42.6" cy="58.1" r="9.8"/>
		<rect x="42.1" y="59" class="st4" width="1.2" height="42.7"/>
		<path class="st4" d="M42.5,91.7c-3.4-1.7-6-4.6-7.2-8.2l1.2-0.3l-0.6,0.2l0.6-0.2c1.1,3.2,3.5,5.9,6.6,7.4L42.5,91.7z"/>
		
			<rect x="38.9" y="74.6" transform="matrix(0.5162 -0.8564 0.8564 0.5162 -41.8117 76.4953)" class="st4" width="15.8" height="1.2"/>
		<rect x="21.6" y="77.1" class="st4" width="1.2" height="24.6"/>
	</g>
</g>
</svg>
