<svg xmlns="http://www.w3.org/2000/svg" viewBox="0 0 86.77 45.39"><defs><style>.cls-1,.cls-2{fill:none;stroke:#fff;stroke-linejoin:round;stroke-width:2.12px;}.cls-2{stroke-linecap:round;}</style></defs><g id="Capa_2" data-name="Capa 2"><g id="Botones"><path class="cls-1" d="M85.71,44.33H69.55c0-14.34-10.85-26-24.23-26S21.09,30,21.09,44.33H4.93C4.93,20.43,23,1.06,45.32,1.06S85.71,20.43,85.71,44.33Z"/><line class="cls-2" x1="42.77" y1="38.55" x2="32.51" y2="28.29"/><circle class="cls-2" cx="45.35" cy="41.13" r="3.21"/><line class="cls-2" x1="45.32" y1="1.38" x2="45.32" y2="6.51"/><line class="cls-2" x1="19.78" y1="11.75" x2="23.41" y2="15.37"/><line class="cls-2" x1="71.49" y1="11.75" x2="67.87" y2="15.37"/><path class="cls-2" d="M1.08,44.33A42.65,42.65,0,0,1,4.93,25.1"/><path class="cls-2" d="M6.21,22.54c.18-.41.39-.84.64-1.29a16,16,0,0,1,1.29-1.92"/></g></g></svg>