<svg xmlns="http://www.w3.org/2000/svg" viewBox="0 0 120.92 120.92"><defs><style>.cls-1{fill:none;stroke:#000;stroke-linecap:round;stroke-linejoin:round;stroke-width:1.75px;}</style></defs><g id="Capa_2" data-name="Capa 2"><g id="Iconos"><path d="M77,79c-.44-.64-1.61-2-3-1.63a2,2,0,0,0-1.21,1.15l-.29.42c-1,1.46-4.17,5.92-7.83,8.17l-.35.21A1.22,1.22,0,0,1,62.53,86c1-4.07,4-12,7.45-21.08a1.22,1.22,0,0,0-1.15-1.65h0a1.23,1.23,0,0,0-1.14.79c-7.59,20-9.24,24.91-7,26.44,1.49,1,3.42-.17,5.29-1.32,4.09-2.52,7.33-7.12,8.56-8.85a2.84,2.84,0,0,1,.2-.29,2.55,2.55,0,0,1,.27.32c.75,1.7-4.1,12.18-14.18,17-6.07,2.9-14.36,4.14-17.78.75a9.58,9.58,0,0,1-2.66-5.5,8.49,8.49,0,0,1,.47-3.55c2.58-7.77,13-33.82,13.07-34.08a14.77,14.77,0,0,0,1.3-4.93,2.75,2.75,0,0,0-.91-2.25,2.49,2.49,0,0,0-1.67-.58,6.06,6.06,0,0,0-2.21.53c-2.21.85-3.64,2.54-5,4.17a18.3,18.3,0,0,1-2.94,3,1.89,1.89,0,0,1-1.24.47,1.73,1.73,0,0,1-.54-.18s-.26-.94,2.08-4.19c2.08-2.87,5.95-8.21,13.28-10,4.11-1,12.71-1.77,15.75,2.53a5.55,5.55,0,0,1,.82,4,2.27,2.27,0,0,0,.07.74A1.22,1.22,0,0,0,75.07,48c.3-3.13-.39-4.59-1.28-5.86C70,36.8,60.5,37.44,55.47,38.67c-8.18,2-12.39,7.81-14.66,10.94-2.45,3.41-3.12,5.63-2.08,7A3.32,3.32,0,0,0,41,57.82a4.32,4.32,0,0,0,3-.92,19.35,19.35,0,0,0,3.35-3.36c1.24-1.46,2.41-2.85,4-3.48.94-.37,1.3-.38,1.44-.34.11.24.22,1.17-1.07,4.41-.11.26-10.53,26.37-13.13,34.21A10.91,10.91,0,0,0,38,92.88a11.87,11.87,0,0,0,3.37,7c2,2,5,2.77,8,2.77A31.61,31.61,0,0,0,61.87,99.6c9.08-4.35,14.23-12.74,15.34-17C77.63,81,77.56,79.8,77,79Z"/><path d="M78.28,16.09a12.55,12.55,0,0,0-10.45-.59,12.08,12.08,0,0,0-7.14,7.3,9.87,9.87,0,0,0,5.67,12.71,11.5,11.5,0,0,0,4.14.74,14.69,14.69,0,0,0,2.88-.3A11.59,11.59,0,0,0,83,24.71v0C83,20.63,81.37,17.74,78.28,16.09ZM72.89,33.56a10,10,0,0,1-5.67-.33A7.44,7.44,0,0,1,63,23.61a9.64,9.64,0,0,1,5.72-5.84,10.36,10.36,0,0,1,3.73-.7,9.92,9.92,0,0,1,4.7,1.17c2.27,1.21,3.39,3.33,3.42,6.47A9.15,9.15,0,0,1,72.89,33.56Z"/><path class="cls-1" d="M71.88,56c.41-1.22.81-2.44,1.22-3.65"/><path d="M55.46.2A60.46,60.46,0,0,0,2.13,76.38a1.41,1.41,0,0,0,1.35,1h0a1.38,1.38,0,0,0,1.33-1.77,57.79,57.79,0,1,1,18.05,28.53,1.34,1.34,0,0,0-.89-.34h0a1.4,1.4,0,0,0-.92,2.45A60.45,60.45,0,1,0,55.46.2Z"/><path d="M5.3,80.18h0A1.4,1.4,0,0,0,4,82.05a60.3,60.3,0,0,0,12.59,20,1.38,1.38,0,0,0,1,.43h0a1.38,1.38,0,0,0,1-2.33,57.8,57.8,0,0,1-12-19A1.38,1.38,0,0,0,5.3,80.18Z"/></g></g></svg>