<svg xmlns="http://www.w3.org/2000/svg" viewBox="0 0 125.16 119.63"><defs><style>.cls-1{fill:none;stroke:#000;stroke-linecap:round;stroke-linejoin:round;stroke-width:1.52px;}</style></defs><g id="Capa_2" data-name="Capa 2"><g id="Iconos"><path d="M72.9,73.7c-.38-.55-1.39-1.76-2.58-1.42a1.73,1.73,0,0,0-1,1l-.25.36c-.9,1.26-3.63,5.14-6.81,7.09l-.29.19a1.06,1.06,0,0,1-1.59-1.15c.88-3.54,3.47-10.43,6.46-18.3a1.07,1.07,0,0,0-1-1.44h0a1.08,1.08,0,0,0-1,.69c-6.58,17.35-8,21.63-6.07,23,1.29.88,3-.15,4.59-1.15,3.55-2.19,6.36-6.18,7.43-7.68a2.06,2.06,0,0,1,.18-.25,2.76,2.76,0,0,1,.23.27c.66,1.48-3.56,10.57-12.31,14.77-5.27,2.52-12.47,3.6-15.43.65a8.24,8.24,0,0,1-2.32-4.77,7.5,7.5,0,0,1,.41-3.09c2.24-6.74,11.26-29.36,11.35-29.58A12.8,12.8,0,0,0,54,48.57a2.37,2.37,0,0,0-.79-2,2.17,2.17,0,0,0-1.45-.5,5.4,5.4,0,0,0-1.92.46,11.07,11.07,0,0,0-4.36,3.62,15.91,15.91,0,0,1-2.55,2.57,1.67,1.67,0,0,1-1.08.41,1.21,1.21,0,0,1-.46-.16s-.24-.81,1.8-3.63c1.81-2.5,5.17-7.13,11.53-8.69,3.57-.87,11-1.54,13.67,2.2a4.84,4.84,0,0,1,.72,3.51,1.72,1.72,0,0,0,.06.64,1.06,1.06,0,0,0,2.06-.29c.25-2.72-.35-4-1.12-5.08-3.28-4.65-11.54-4.09-15.9-3-7.11,1.73-10.76,6.78-12.73,9.49-2.13,3-2.71,4.89-1.8,6.11a2.87,2.87,0,0,0,1.93,1,3.66,3.66,0,0,0,2.56-.8,16.8,16.8,0,0,0,2.92-2.92,9.44,9.44,0,0,1,3.51-3c.81-.32,1.13-.33,1.24-.29.1.21.19,1-.93,3.83-.09.22-9.13,22.89-11.39,29.7A9.5,9.5,0,0,0,39,85.72a10.29,10.29,0,0,0,2.93,6.08,9.6,9.6,0,0,0,7,2.41,27.35,27.35,0,0,0,10.84-2.66c7.88-3.77,12.36-11.06,13.32-14.77A3.69,3.69,0,0,0,72.9,73.7Z"/><path d="M74,19.05a10.85,10.85,0,0,0-9.07-.51,10.49,10.49,0,0,0-6.2,6.33,8.58,8.58,0,0,0,4.92,11,10.1,10.1,0,0,0,3.59.64,12.38,12.38,0,0,0,2.51-.26,10.05,10.05,0,0,0,8.34-9.76h0C78.06,23,76.68,20.48,74,19.05ZM69.32,34.22a8.71,8.71,0,0,1-4.92-.29,6.45,6.45,0,0,1-3.67-8.35,8.35,8.35,0,0,1,5-5.07,9,9,0,0,1,3.24-.61,8.68,8.68,0,0,1,4.08,1c2,1.06,2.95,2.9,3,5.62A8,8,0,0,1,69.32,34.22Z"/><path class="cls-1" d="M68.45,53.71l1-3.17"/><path d="M112.6,73.09s0,0,0,.08l-.08-.1Z"/><path d="M35.91,6.75l-.29.67v0L30.83,18.56a1,1,0,0,1-.94.62,1,1,0,0,1-.39-.09A1,1,0,0,1,29,17.76l3.89-9A55.95,55.95,0,0,0,20.8,99.87a1.27,1.27,0,0,1,.23,1.6h0a1.27,1.27,0,0,1-1.93.28A58.49,58.49,0,0,1,32.22,6.25L22.79,2.18A1,1,0,0,1,22.26.86,1,1,0,0,1,23.58.33L34.63,5.1l.11.05.64.28a1,1,0,0,1,.55.55A.94.94,0,0,1,35.91,6.75Z"/><path d="M111.33,80a1.27,1.27,0,0,1,.91,1.73,58.48,58.48,0,0,1-83.92,26.88l2.27,9.77a1,1,0,0,1-2,.46l-2.74-11.8h0l-.17-.73a1,1,0,0,1,.76-1.21l.72-.17h.06L39,102.2a1,1,0,0,1,1.21.76,1,1,0,0,1-.74,1.21l-9.83,2.29a56,56,0,0,0,80.3-25.7,1.26,1.26,0,0,1,1.41-.74Z"/><path d="M124.75,66.29l-9.67,7.28,0,0-.56.42a1,1,0,0,1-.79.18,1,1,0,0,1-.62-.39l-.49-.65s0,0,0-.08l-.1,0-7.17-9.51a1,1,0,1,1,1.61-1.22l6.26,8.3A56,56,0,0,0,57.26,2.54,55.69,55.69,0,0,0,43.33,4.62a1.26,1.26,0,0,1-1.52-.74h0a1.27,1.27,0,0,1,.82-1.68,58.52,58.52,0,0,1,74.42,56.32,59,59,0,0,1-1.23,12l7.72-5.81a1,1,0,0,1,1.21,1.62Z"/><path d="M112.6,73.09s0,0,0,.08l-.08-.1Z"/><path d="M24.4,23.53a1,1,0,0,1-.29.74.46.46,0,0,1-.07.07,48.57,48.57,0,0,0-9,55.57,1.09,1.09,0,0,1-1,1.59,1.11,1.11,0,0,1-1-.6,50.74,50.74,0,0,1,9.24-58l0,0a1.42,1.42,0,0,1,.92-.46A1.23,1.23,0,0,1,24.4,23.53Z"/><path d="M76.84,104a1.1,1.1,0,0,1-.57,1.52,50.56,50.56,0,0,1-30.71,1.7h-.05a1.38,1.38,0,0,1-.86-.56,1.23,1.23,0,0,1,.43-1.5,1.05,1.05,0,0,1,.77-.12l.1,0a48.6,48.6,0,0,0,29.54-1.57,1.09,1.09,0,0,1,1.34.5Z"/><path d="M108,56.62a1.21,1.21,0,0,1-1.55,0,1,1,0,0,1-.34-.7.18.18,0,0,1,0-.1,48.58,48.58,0,0,0-6.24-22.11,1.1,1.1,0,0,1,.45-1.53h0a1.12,1.12,0,0,1,1.46.44,51,51,0,0,1,6.53,23v0A1.39,1.39,0,0,1,108,56.62Z"/></g></g></svg>