<svg xmlns="http://www.w3.org/2000/svg" viewBox="0 0 85.75 81.97"><defs><style>.cls-1{fill:#fff;}</style></defs><g id="Capa_2" data-name="Capa 2"><g id="Botones"><path class="cls-1" d="M50,50.49c-.26-.37-1-1.2-1.77-1a1.19,1.19,0,0,0-.72.69l-.17.25a18.73,18.73,0,0,1-4.66,4.86l-.21.13a.73.73,0,0,1-1.09-.79c.61-2.42,2.38-7.15,4.43-12.54a.72.72,0,0,0-.68-1h0a.74.74,0,0,0-.68.47c-4.51,11.89-5.5,14.82-4.16,15.73.88.6,2-.1,3.15-.79a19.58,19.58,0,0,0,5.08-5.26,1.47,1.47,0,0,1,.13-.17l.15.18c.45,1-2.43,7.25-8.43,10.12-3.61,1.73-8.54,2.47-10.57.45a5.64,5.64,0,0,1-1.59-3.27,5.07,5.07,0,0,1,.28-2.11c1.54-4.63,7.72-20.12,7.77-20.27A8.77,8.77,0,0,0,37,33.28a1.64,1.64,0,0,0-.54-1.34,1.52,1.52,0,0,0-1-.34,3.7,3.7,0,0,0-1.31.31,7.56,7.56,0,0,0-3,2.48,11.21,11.21,0,0,1-1.75,1.76,1.1,1.1,0,0,1-.74.28,1,1,0,0,1-.32-.1s-.16-.56,1.24-2.49c1.23-1.71,3.53-4.89,7.89-6,2.45-.6,7.56-1.06,9.37,1.5a3.31,3.31,0,0,1,.49,2.41,1.21,1.21,0,0,0,0,.43A.73.73,0,0,0,48.79,32,4.6,4.6,0,0,0,48,28.55c-2.25-3.18-7.91-2.8-10.9-2.07-4.87,1.19-7.37,4.65-8.72,6.51-1.46,2-1.86,3.35-1.23,4.18a2,2,0,0,0,1.32.7,2.5,2.5,0,0,0,1.76-.55,11.77,11.77,0,0,0,2-2,6.35,6.35,0,0,1,2.4-2.07,1.76,1.76,0,0,1,.85-.21c.07.15.13.7-.63,2.63-.07.15-6.26,15.68-7.81,20.35a6.43,6.43,0,0,0-.35,2.7,7.08,7.08,0,0,0,2,4.17,6.6,6.6,0,0,0,4.78,1.65,18.6,18.6,0,0,0,7.43-1.83c5.4-2.58,8.47-7.57,9.12-10.11A2.58,2.58,0,0,0,50,50.49Z"/><path class="cls-1" d="M50.7,13.05a7.45,7.45,0,0,0-6.21-.35A7.16,7.16,0,0,0,40.24,17a5.86,5.86,0,0,0,3.37,7.56,6.79,6.79,0,0,0,2.46.44,8.05,8.05,0,0,0,1.72-.18,6.89,6.89,0,0,0,5.71-6.68h0A5.38,5.38,0,0,0,50.7,13.05Zm-3.2,10.4a6.05,6.05,0,0,1-3.38-.2,4.42,4.42,0,0,1-2.51-5.72A5.71,5.71,0,0,1,45,14.05a6.11,6.11,0,0,1,2.22-.42,5.8,5.8,0,0,1,2.79.7,4,4,0,0,1,2,3.85A5.44,5.44,0,0,1,47.5,23.45Z"/><path class="cls-1" d="M46.9,36.8l.72-2.17"/><path class="cls-1" d="M46.9,37.32a.51.51,0,0,1-.17,0,.53.53,0,0,1-.33-.66l.72-2.17a.52.52,0,0,1,1,.33L47.39,37A.52.52,0,0,1,46.9,37.32Z"/><path class="cls-1" d="M77.15,50.08l0,.05,0-.07Z"/><path class="cls-1" d="M24.61,4.63l-.2.46h0l-3.29,7.62a.69.69,0,0,1-.64.43.66.66,0,0,1-.27-.06.69.69,0,0,1-.36-.91L22.51,6a38.35,38.35,0,0,0-8.26,62.43.86.86,0,0,1,.16,1.09h0a.86.86,0,0,1-1.32.19,40.07,40.07,0,0,1,9-65.43L15.61,1.5a.69.69,0,0,1-.36-.91.71.71,0,0,1,.91-.37l7.56,3.27.08,0,.44.19a.68.68,0,0,1,.38.38A.75.75,0,0,1,24.61,4.63Z"/><path class="cls-1" d="M76.28,54.82A.87.87,0,0,1,76.9,56,40.07,40.07,0,0,1,19.4,74.42L21,81.12a.7.7,0,0,1-.51.83.52.52,0,0,1-.17,0,.7.7,0,0,1-.67-.53l-1.88-8.09h0l-.11-.5a.69.69,0,0,1,.52-.83l.49-.11h0L26.71,70a.7.7,0,0,1,.83.52.69.69,0,0,1-.51.83l-6.74,1.57a38.35,38.35,0,0,0,55-17.61.86.86,0,0,1,1-.51Z"/><path class="cls-1" d="M85.47,45.42l-6.63,5,0,0-.38.29a.75.75,0,0,1-.55.13.69.69,0,0,1-.42-.27l-.34-.45,0-.05-.07,0-4.91-6.51a.69.69,0,0,1,.13-1,.71.71,0,0,1,1,.14l4.29,5.69A38.36,38.36,0,0,0,39.23,1.74a38,38,0,0,0-9.54,1.43.88.88,0,0,1-1.05-.51h0a.88.88,0,0,1,.57-1.16A40.12,40.12,0,0,1,79.35,48.29l5.29-4a.69.69,0,0,1,.83,1.11Z"/><path class="cls-1" d="M77.15,50.08l0,.05,0-.07Z"/><path class="cls-1" d="M16.72,16.12a.73.73,0,0,1-.2.51l-.05.05a33.28,33.28,0,0,0-6.14,38.07.75.75,0,0,1-.66,1.09A.76.76,0,0,1,9,55.43,34.76,34.76,0,0,1,15.32,15.7l0,0a1,1,0,0,1,.63-.32A.85.85,0,0,1,16.72,16.12Z"/><path class="cls-1" d="M52.64,71.27a.74.74,0,0,1-.39,1,34.67,34.67,0,0,1-21,1.16h0a.87.87,0,0,1-.59-.38.85.85,0,0,1,.3-1,.68.68,0,0,1,.52-.07h.07a33.3,33.3,0,0,0,20.24-1.08.74.74,0,0,1,.92.35Z"/><path class="cls-1" d="M74,38.79a.83.83,0,0,1-1.06,0,.71.71,0,0,1-.23-.48.17.17,0,0,1,0-.07,33.31,33.31,0,0,0-4.28-15.15.76.76,0,0,1,.31-1.05h0a.78.78,0,0,1,1,.3,35,35,0,0,1,4.47,15.73v0A.91.91,0,0,1,74,38.79Z"/></g></g></svg>