<svg xmlns="http://www.w3.org/2000/svg" viewBox="0 0 85.69 85.68"><defs><style>.cls-1{fill:#fff;}</style></defs><g id="Capa_2" data-name="Capa 2"><g id="Botones"><path class="cls-1" d="M67.23,36.79A18.55,18.55,0,0,1,48.88,18.93a16.45,16.45,0,0,1,4.78-12.2.61.61,0,0,1,.55-.16.59.59,0,0,1,.43.37A41.51,41.51,0,0,0,62.8,20.19,42.09,42.09,0,0,0,78.74,31a.59.59,0,0,1,.37.43A.61.61,0,0,1,79,32,16.45,16.45,0,0,1,67.23,36.79ZM53.87,8.25A15.27,15.27,0,0,0,50.08,18.9a17.06,17.06,0,0,0,5.08,11.62c6.27,6.28,16.07,6.77,22.27,1.29A43.3,43.3,0,0,1,61.92,21,42.74,42.74,0,0,1,53.87,8.25Z"/><path class="cls-1" d="M27.59,73.37A8.15,8.15,0,0,1,21.7,71l-7-7.05a8.36,8.36,0,0,1-2.3-6.8A11.82,11.82,0,0,1,15.84,50L35.7,30.13c4.19-4.18,10.46-4.72,14-1.19h0L56.74,36c3.53,3.53,3,9.8-1.19,14L35.69,69.84a11.82,11.82,0,0,1-7.19,3.49C28.19,73.36,27.89,73.37,27.59,73.37ZM43.79,27.8A10.39,10.39,0,0,0,36.55,31L16.69,50.84a10.54,10.54,0,0,0-3.15,6.45,7.2,7.2,0,0,0,2,5.85l7,7a7.17,7.17,0,0,0,5.85,2A10.54,10.54,0,0,0,34.84,69L54.7,49.13c3.72-3.72,4.26-9.23,1.2-12.3l-7-7A7.06,7.06,0,0,0,43.79,27.8Z"/><path class="cls-1" d="M22.61,71.69a.63.63,0,0,1-.43-.17.61.61,0,0,1,0-.85l19-19a.6.6,0,1,1,.85.85l-19,19A.63.63,0,0,1,22.61,71.69Z"/><path class="cls-1" d="M45.4,48.89a.58.58,0,0,1-.42-.17.61.61,0,0,1,0-.85l3.8-3.8a.6.6,0,0,1,.85.85l-3.8,3.8A.59.59,0,0,1,45.4,48.89Z"/><path class="cls-1" d="M31.16,35.55a.63.63,0,0,1-.42-.17L8.22,12.86A.6.6,0,1,1,9.07,12L31.59,34.53a.61.61,0,0,1,0,.85A.63.63,0,0,1,31.16,35.55Z"/><path class="cls-1" d="M73.24,77.63a.63.63,0,0,1-.42-.17L50.3,54.94a.6.6,0,1,1,.85-.85L73.66,76.61a.59.59,0,0,1,0,.85A.61.61,0,0,1,73.24,77.63Z"/><path class="cls-1" d="M23.51,36.4a.56.56,0,0,1-.42-.18L.17,13.31a.6.6,0,0,1,0-.84L12.47.17a.61.61,0,0,1,.85,0L36.23,23.08a.6.6,0,0,1,0,.84l-12.3,12.3A.59.59,0,0,1,23.51,36.4ZM1.44,12.89,23.51,35,35,23.5,12.9,1.43Z"/><path class="cls-1" d="M72.79,85.68a.61.61,0,0,1-.42-.17L49.46,62.59a.58.58,0,0,1,0-.84l12.3-12.3a.62.62,0,0,1,.84,0L85.51,72.36a.59.59,0,0,1,0,.85l-12.3,12.3A.61.61,0,0,1,72.79,85.68ZM50.72,62.17,72.79,84.24,84.25,72.78,62.18,50.72Z"/><rect class="cls-1" x="9.84" y="19.05" width="12.02" height="1.19" transform="translate(-9.25 16.96) rotate(-45)"/><rect class="cls-1" x="14.09" y="23.3" width="12.02" height="1.19" transform="translate(-11.01 21.21) rotate(-45)"/><rect class="cls-1" x="17.13" y="25.23" width="17.39" height="1.19" transform="translate(-10.69 25.83) rotate(-45)"/><rect class="cls-1" x="51.16" y="59.25" width="17.39" height="1.19" transform="translate(-24.79 59.86) rotate(-45)"/><rect class="cls-1" x="56.2" y="65.4" width="12.02" height="1.19" transform="translate(-28.45 63.32) rotate(-45)"/><rect class="cls-1" x="60.45" y="69.65" width="12.02" height="1.19" transform="translate(-30.21 67.57) rotate(-45)"/><path class="cls-1" d="M70.31,27.36a.6.6,0,0,1-.59-.52l-.84-6.76a.59.59,0,0,1,1.18-.14l.85,6.75a.61.61,0,0,1-.52.67Z"/><path class="cls-1" d="M69.05,19.92a3.29,3.29,0,0,1-3.29-3.29,3.29,3.29,0,0,1,6.57,0,3.27,3.27,0,0,1-1,2.33h0A3.27,3.27,0,0,1,69.05,19.92Zm0-5.38a2.12,2.12,0,1,0,1.47.62A2,2,0,0,0,69.05,14.54Z"/><path class="cls-1" d="M47.09,27.78a.58.58,0,0,1-.42-.17.6.6,0,0,1,0-.84l3-3a.59.59,0,0,1,.84.84l-2.95,3A.59.59,0,0,1,47.09,27.78Z"/><path class="cls-1" d="M58.49,39.18a.58.58,0,0,1-.42-.17.61.61,0,0,1,0-.85l3-2.95a.59.59,0,1,1,.84.84l-3,3A.55.55,0,0,1,58.49,39.18Z"/><path class="cls-1" d="M65.67,16.81H65.6L58.84,16A.6.6,0,0,1,59,14.77l6.75.85a.6.6,0,0,1-.07,1.19Z"/><path class="cls-1" d="M21.76,75.05a2.69,2.69,0,0,1-1.89-.78l-8.46-8.46a2.68,2.68,0,0,1,0-3.78L12.47,61a.63.63,0,0,1,.85,0l11.4,11.4a.61.61,0,0,1,.17.42.63.63,0,0,1-.17.43l-1.07,1.06A2.65,2.65,0,0,1,21.76,75.05ZM12.9,62.23l-.64.64a1.47,1.47,0,0,0,0,2.09l8.46,8.47h0a1.53,1.53,0,0,0,2.09,0l.64-.65Z"/></g></g></svg>