<svg xmlns="http://www.w3.org/2000/svg" xmlns:xlink="http://www.w3.org/1999/xlink" viewBox="0 0 1364.72 381.15"><defs><style>.cls-1{fill:none;}.cls-2{clip-path:url(#clip-path);}.cls-14,.cls-3{fill:#ee9234;}.cls-3{opacity:0.45;}.cls-4{fill:#f7f7f7;}.cls-18,.cls-5{fill:#f3cc44;}.cls-5{opacity:0.4;}.cls-6{fill:#e6e6e6;}.cls-7{fill:#b3b3b3;}.cls-8{fill:#fff;}.cls-9{fill:#da6e5b;}.cls-10{fill:#fbf5e7;}.cls-11{fill:#6b6a6a;}.cls-12{fill:#dfdfdf;}.cls-13{fill:#9f9e9e;}.cls-14{opacity:0.51;}.cls-15,.cls-19{fill:#847ce1;}.cls-15{opacity:0.8;}.cls-16{fill:#a09f9f;}.cls-17{fill:#fdf6e6;}</style><clipPath id="clip-path" transform="translate(-3.37 -10.46)"><rect class="cls-1" width="1366.26" height="336.62"/></clipPath></defs><g id="Capa_2" data-name="Capa 2"><g id="imagenes"><g class="cls-2"><path class="cls-3" d="M451.89,342.12H3.37V133.7H116.81c18.58.1,36.21,5.23,48.53,14.1a71.93,71.93,0,0,0,21.93,10.33,98,98,0,0,0,26.62,3.76h90.42c28.59,0,54.13,12.43,64.24,31.2l43.35,77.52Z" transform="translate(-3.37 -10.46)"/><path class="cls-4" d="M3.37,268.7V387.06l1364.55-2V25.83c0-14.34-33-20.86-49.82-9.81L1130.66,193.27c-7.47,0-14.65-1.61-19.93-4.49l-62.91-34.2c-11-6-28.8-6-39.85,0L812.3,261c-11,6-28.8,6-39.85,0L733,239.54c-11-6-28.79-6-39.84,0l-61,33.15c-11,6-28.8,6-39.85,0L450,195.34c-11-6-28.85-6-39.85,0L371,216.65a43.61,43.61,0,0,1-19.93,4.48c-2.13,0-25.91-11-42.85-11s-174.79,89.36-182.89,91a54.17,54.17,0,0,1-21.7,0Z" transform="translate(-3.37 -10.46)"/><path class="cls-5" d="M1368.09,239.47l0,147.28-557-1.21s211.69-157.89,212.76-159c5.29-5.26,16-12,28.43-.16s17.46,15,33.76,14.9,22-9.51,27.79-15.26c5.3-5.26,16-12,28.43-.16s17.46,15,33.76,14.91h-1.25c16.38-.13,22.11-9.48,27.81-15.3,5.3-5.26,16-12,28.43-.16s17.46,15,33.76,14.91,22-9.51,27.8-15.28c5.29-5.25,16-12,28.43-.15s17.45,15,33.75,14.91Z" transform="translate(-3.37 -10.46)"/><path class="cls-6" d="M283.21,283.14l.81,13.31c.2,3.41.42,6.82.62,10.23.15,2.54.31,5.06.46,7.6.08,1.36.17,2.74.25,4.1q1.06,17.44,2.12,34.89l-62.33,3.86L220,273.56l31.58,4.79,3,.45Z" transform="translate(-3.37 -10.46)"/><path class="cls-7" d="M344.65,266.05l5.16,83.37-62.34,3.85q-1.07-17.44-2.12-34.89l-.24-4.09q-.24-3.81-.46-7.62L284,296.41c-.26-4.41-.53-8.84-.8-13.25l.5-.15,2.7-.74q28.65-8,57.31-16l.38-.11Z" transform="translate(-3.37 -10.46)"/><path class="cls-7" d="M468.37,258.21l5.16,83.56-62.32,3.85L410.55,335c-.09-1.27-.17-2.53-.24-3.79-.2-3.1-.39-6.2-.59-9.3l-.27-4.25q-.74-11.76-1.48-23.52c-.06-1-.12-1.95-.19-2.93l-1-15.73Z" transform="translate(-3.37 -10.46)"/><path class="cls-6" d="M411.2,345.62l-62.33,3.86-5.15-83.34.39.06.56.08L369.72,270l4.68.7,18.4,2.75,4.29.63,9.7,1.45q.49,7.83,1,15.67c.07,1,.13,1.95.19,2.93q.75,11.76,1.48,23.53l.27,4.26c.2,3.09.39,6.17.58,9.26.08,1.27.16,2.54.25,3.8C410.75,338.54,411,342.09,411.2,345.62Z" transform="translate(-3.37 -10.46)"/><path class="cls-8" d="M254.54,278.8c-2.09,3.2-3.23,6.84-4.48,10.79-1.76,5.56-3.57,11.31-8.27,16.92-4.57,5.45-10.94,9.52-19,12.14l-.17-2.87c7.25-2.46,13-6.16,17.07-11.06,4.34-5.19,6.07-10.67,7.75-16a50,50,0,0,1,4.15-10.41Z" transform="translate(-3.37 -10.46)"/><path class="cls-8" d="M294.85,346.2c1.16,2.53,4.32,4.62,8.67,5.75.36.1.74.19,1.12.26l-7,.43a12.07,12.07,0,0,1-5.35-5.28c-2.53-5.52,1-13.15,5.55-17.54,3.95-3.79,7.87-4.31,12-4.86a29.05,29.05,0,0,0,11.52-3.38c8.6-4.76,16.51-14.79,14.11-21.58-1.58-4.44-8.36-8.8-14-7.56-5.31,1.17-7.83,7-10.51,13.21-2.93,6.8-6,13.84-13.13,15.48a15.94,15.94,0,0,1-12.5-2.75h0a11.36,11.36,0,0,1-3-3.18c-2-3.31-1.18-6.42-.11-10.37a53,53,0,0,0,1.76-8.38v0c0-.29.07-.59.1-.89a53.84,53.84,0,0,0-.4-12.51l2.7-.74a55.32,55.32,0,0,1,.47,13.5,54.25,54.25,0,0,1-1.94,9.8c-.11.38-.21.74-.3,1.1h0c-.8,3-1.15,5,.1,7.07.12.18.23.36.36.53a0,0,0,0,1,0,0c2.41,3.24,7.78,5.12,12.11,4.12,5.8-1.32,8.42-7.42,11.21-13.87s5.76-13.34,12.46-14.81,15,3.08,17.24,9.35c3.17,8.95-6.9,20.24-15.38,24.94a32,32,0,0,1-12.51,3.7c-4,.53-7.15.95-10.44,4.11C295.94,335.52,293,342.07,294.85,346.2Z" transform="translate(-3.37 -10.46)"/><path class="cls-8" d="M368,300.91c3.61,5.58,7.34,11.36,5.92,19.31-1.46,8.13-7.88,15.74-13.32,16.08a4.36,4.36,0,0,1-.81,0c-2.7-.2-4.65-2.16-6.55-4.05a16,16,0,0,0-4.69-3.67,7.37,7.37,0,0,0-1-.33A6.28,6.28,0,0,0,346,328a5.53,5.53,0,0,0-2.79.69c-4.67,2.42-7.27,6.86-10,11.56-2.25,3.85-4.58,7.83-8.17,10.69l-6.31.39a17,17,0,0,0,4-2.14c3.48-2.56,5.69-6.34,8-10.34,2.83-4.84,5.76-9.84,11.15-12.62a8.24,8.24,0,0,1,4.16-1,8.54,8.54,0,0,1,1.26.12c.32.06.65.13.95.21,2.93.8,5,2.86,6.85,4.71,1.68,1.68,3.12,3.12,4.78,3.25,3.76.28,9.86-6.35,11.18-13.79,1.24-6.87-2-11.94-5.51-17.31s-7.14-11.05-5.63-18.55A22.16,22.16,0,0,1,369.72,270l4.68.7a19.42,19.42,0,0,0-11.68,13.71C361.44,290.81,364.61,295.72,368,300.91Z" transform="translate(-3.37 -10.46)"/><path class="cls-8" d="M472.4,323.42c-1.31,3.25-4.9,6.07-8.66,9-4.14,3.25-8.42,6.6-9.72,10.55l-2.93.18c1.18-5.27,6.32-9.3,10.94-12.92,4.38-3.43,8.52-6.67,8.06-9.93-.52-3.83-7.41-8.47-14-8.17-5.47.25-8.81,3.94-13,8.62-4.71,5.23-10.05,11.15-20,14-2.64.77-8.41,2.45-12.54.21,0,0,0,0,0,0a6.64,6.64,0,0,1-1.53-1.08c-3.14-2.92-3.92-8.88-1.75-13.31a9.67,9.67,0,0,1,2.18-2.93h0c2.07-1.86,4.79-2.61,7.61-3.4,3.65-1,7.43-2.06,10.76-5.61,4.49-4.78,7.26-13.18,4.06-17.59-2.68-3.71-9.42-4.42-14.13-2.94a16.51,16.51,0,0,0-5.88,3.54,11.75,11.75,0,0,1-3.9,2.48h0a5.46,5.46,0,0,1-2.6.12c-3.95-.75-6.13-5.08-7.43-7.67a17.38,17.38,0,0,1-1.87-6.71,9,9,0,0,0-.82-3.44,9.35,9.35,0,0,0-2.44-3l4.29.63a9.53,9.53,0,0,1,.64,1.12,11.93,11.93,0,0,1,1.1,4.39,14.57,14.57,0,0,0,1.59,5.74c1.07,2.13,2.86,5.7,5.45,6.19a2.75,2.75,0,0,0,1.9-.32h0a13.52,13.52,0,0,0,2.3-1.69,19.31,19.31,0,0,1,6.84-4.06c5.74-1.8,13.75-.81,17.22,4,4.05,5.6,1.05,15.44-4.29,21.13-3.87,4.12-8.21,5.33-12.05,6.4-3.65,1-6.54,1.81-8,4.88l0,.08v0c-1.43,3-1.13,7,.58,9.26a0,0,0,0,1,0,0,5.24,5.24,0,0,0,.59.65c2.94,2.73,8.88,1,11.41.26,9.17-2.67,14.23-8.28,18.69-13.23,4.29-4.75,8.35-9.25,15-9.54s13.63,3.45,16.06,8.09a7.78,7.78,0,0,1,.82,2.48A6.77,6.77,0,0,1,472.4,323.42Z" transform="translate(-3.37 -10.46)"/><path class="cls-8" d="M263.05,350.9c-.53,1.39-1,2.72-1.45,4l-3,.19c.48-1.66,1.14-3.39,1.8-5.15,2.18-5.73,4.63-12.22,2-17.83-2-4.2-6.51-7.57-10.61-7.84-3-.19-5.11,1.33-8,3.44a34.61,34.61,0,0,1-9.52,5.37,30.35,30.35,0,0,1-10.62,1.64l-.17-2.8a27.26,27.26,0,0,0,9.87-1.47,32.23,32.23,0,0,0,8.79-5c3.08-2.27,5.75-4.23,9.81-4,5.11.33,10.55,4.3,12.95,9.44C268.09,337.58,265.41,344.65,263.05,350.9Z" transform="translate(-3.37 -10.46)"/><path class="cls-9" d="M310.1,263.32a14.56,14.56,0,0,0-29.06,1.8,16.57,16.57,0,0,0,.35,2.42,14.78,14.78,0,0,0,1.88,4.47c.4.63.76,1.06.84,1.18q6.61,10.46,13.25,20.9c6.87-15,9.69-20.75,10.63-22.28a13,13,0,0,0,.73-1.34,14.63,14.63,0,0,0,1.33-4.7A16.53,16.53,0,0,0,310.1,263.32ZM296,271.69a7.21,7.21,0,1,1,6.76-7.65A7.22,7.22,0,0,1,296,271.69Z" transform="translate(-3.37 -10.46)"/><path class="cls-10" d="M1167.56,322.82l-33.27-23.92a29.56,29.56,0,0,1,33.27,23.92Z" transform="translate(-3.37 -10.46)"/><path class="cls-10" d="M1166.42,343.78l-33.28-23.93a29.58,29.58,0,0,1,33.28,23.93Z" transform="translate(-3.37 -10.46)"/><path class="cls-11" d="M1166.48,324.09l33.27-23.92a29.56,29.56,0,0,0-33.27,23.92Z" transform="translate(-3.37 -10.46)"/><path class="cls-11" d="M1166.48,345.05l33.27-23.93a29.56,29.56,0,0,0-33.27,23.93Z" transform="translate(-3.37 -10.46)"/><rect class="cls-10" x="1161.93" y="276.95" width="3.53" height="77.39"/><path class="cls-11" d="M1168.29,255.05c4.9-4.39,27.46.27,27.46.27s.93,18.17-3.43,22.07-24.18,2.74-24.18,2.74S1163.39,259.44,1168.29,255.05Z" transform="translate(-3.37 -10.46)"/><path class="cls-12" d="M1168.33,255.05c-4.81-4.48-27.46-.28-27.46-.28s-1.25,18.13,3,22.12,24.25,3.24,24.25,3.24S1173.15,259.53,1168.33,255.05Z" transform="translate(-3.37 -10.46)"/><path class="cls-13" d="M1182.13,279.37v.69a13.92,13.92,0,0,1-27.84-.69" transform="translate(-3.37 -10.46)"/><path class="cls-10" d="M1080.44,322.82l-33.28-23.92a29.57,29.57,0,0,1,33.28,23.92Z" transform="translate(-3.37 -10.46)"/><path class="cls-10" d="M1079.29,343.78,1046,319.85a29.56,29.56,0,0,1,33.28,23.93Z" transform="translate(-3.37 -10.46)"/><path class="cls-11" d="M1079.35,324.09l33.28-23.92a29.57,29.57,0,0,0-33.28,23.92Z" transform="translate(-3.37 -10.46)"/><path class="cls-11" d="M1079.35,345.05l33.28-23.93a29.56,29.56,0,0,0-33.28,23.93Z" transform="translate(-3.37 -10.46)"/><rect class="cls-10" x="1074.81" y="276.95" width="3.53" height="77.39"/><path class="cls-11" d="M1081.17,255.05c4.9-4.39,27.46.27,27.46.27s.93,18.17-3.43,22.07-24.19,2.74-24.19,2.74S1076.27,259.44,1081.17,255.05Z" transform="translate(-3.37 -10.46)"/><path class="cls-12" d="M1081.21,255.05c-4.82-4.48-27.46-.28-27.46-.28s-1.26,18.13,3,22.12,24.24,3.24,24.24,3.24S1086,259.53,1081.21,255.05Z" transform="translate(-3.37 -10.46)"/><path class="cls-13" d="M1095,279.37q0,.35,0,.69a13.92,13.92,0,0,1-27.83-.69" transform="translate(-3.37 -10.46)"/><path class="cls-10" d="M1123.93,349.63l-33.27-23.92a29.56,29.56,0,0,1,33.27,23.92Z" transform="translate(-3.37 -10.46)"/><path class="cls-10" d="M1122.79,370.59l-33.28-23.93a29.6,29.6,0,0,1,33.28,23.93Z" transform="translate(-3.37 -10.46)"/><path class="cls-11" d="M1122.85,350.9,1156.12,327a29.56,29.56,0,0,0-33.27,23.92Z" transform="translate(-3.37 -10.46)"/><path class="cls-11" d="M1122.85,371.86l33.27-23.93a29.58,29.58,0,0,0-33.27,23.93Z" transform="translate(-3.37 -10.46)"/><rect class="cls-10" x="1118.3" y="303.76" width="3.53" height="77.39"/><path class="cls-11" d="M1124.66,281.86c4.9-4.38,27.46.28,27.46.28s.93,18.16-3.43,22.06-24.18,2.74-24.18,2.74S1119.76,286.25,1124.66,281.86Z" transform="translate(-3.37 -10.46)"/><path class="cls-12" d="M1124.7,281.86c-4.81-4.48-27.46-.28-27.46-.28s-1.25,18.13,3,22.12,24.25,3.24,24.25,3.24S1129.52,286.34,1124.7,281.86Z" transform="translate(-3.37 -10.46)"/><path class="cls-13" d="M1138.49,306.18q0,.35,0,.69a13.92,13.92,0,0,1-27.83-.69" transform="translate(-3.37 -10.46)"/><polygon class="cls-14" points="1260.7 327.11 1284.27 321.37 1264.23 304.63 1287.72 310.79 1274.25 285.56 1294.11 302.69 1289.26 272.83 1302.44 298.29 1306.95 268.37 1311.47 298.29 1324.65 272.83 1319.8 302.69 1339.66 285.56 1326.18 310.79 1349.68 304.63 1329.64 321.37 1353.2 327.11 1260.7 327.11"/><polygon class="cls-15" points="99.3 326.16 138.58 317.13 105.18 290.78 144.33 300.48 121.88 260.77 154.98 287.72 146.9 240.73 168.86 280.81 176.37 233.7 183.9 280.81 205.87 240.73 197.78 287.72 230.88 260.77 208.41 300.48 247.58 290.78 214.18 317.13 253.44 326.16 99.3 326.16"/><polygon class="cls-16" points="931.38 190.19 934.54 190.19 930.08 204.61 926.92 204.61 931.38 190.19"/><polygon class="cls-16" points="921.39 190.19 924.54 190.19 920.1 204.61 916.93 204.61 921.39 190.19"/><polygon class="cls-14" points="953.56 152.08 943.57 152.08 943.57 175.64 953.56 152.08"/><path class="cls-11" d="M950.52,182H926.88v-7.81l5.87-5.09H921.26A8.25,8.25,0,0,0,913,177.3v8.34a18.68,18.68,0,1,0,37.35,0Z" transform="translate(-3.37 -10.46)"/><path class="cls-17" d="M926.82,174.76v-5.67h-5.49a5.46,5.46,0,1,0,5.45,5.45Z" transform="translate(-3.37 -10.46)"/><path class="cls-18" d="M926.85,198.73V182h29.84Z" transform="translate(-3.37 -10.46)"/><path class="cls-19" d="M926.85,198.75a8.4,8.4,0,1,1,0-16.8" transform="translate(-3.37 -10.46)"/></g></g></g></svg>