<svg xmlns="http://www.w3.org/2000/svg" viewBox="0 0 85.68 54.3"><defs><style>.cls-1,.cls-2{fill:#fff;}.cls-2{stroke:#000;stroke-miterlimit:10;stroke-width:1.06px;}</style></defs><g id="Capa_2" data-name="Capa 2"><g id="Botones"><path class="cls-1" d="M15.62,26c-.19.49-.37,1-.52,1.5.08-.27.18-.53.27-.8l.25-.7Z"/><path class="cls-1" d="M72.93,25.55a12.41,12.41,0,0,0-1.49.09c-4.6-12.45-16-20.76-28.59-20.76-13,0-24.13,8.66-28.61,20.86a12.57,12.57,0,0,0-1.49-.1C5.72,25.64,0,31.76,0,39.27S5.72,52.89,12.75,52.89a12.25,12.25,0,0,0,3.1-.4l.3-.08.05,0,.46-.13-.36-.8-.1-.22a32.73,32.73,0,0,1-2-6.15.68.68,0,0,0-.66-.54h0a.69.69,0,0,0-.68.82,33.82,33.82,0,0,0,1.85,5.89,10.59,10.59,0,0,1-2,.18C6.47,51.44,1.36,46,1.36,39.27S6.47,27.1,12.75,27.1c.33,0,.67,0,1,0h0c-.14.43-.28.87-.4,1.3s-.19.72-.28,1.07-.14.57-.2.86q-.23,1-.39,2a.69.69,0,0,0,.68.79h0a.68.68,0,0,0,.67-.58c.11-.67.23-1.33.38-2q.07-.37.18-.75c.09-.4.19-.79.3-1.18,0-.19.11-.38.17-.57s.14-.45.22-.67c.15-.51.33-1,.52-1.5h0C20,14.47,30.55,6.33,42.85,6.33c11.86,0,22.64,7.75,27.15,19.38h0l.35,1h0c.08.21.15.42.22.62l.22.69c.06.22.13.43.19.64l.06.21.06.24a.65.65,0,0,0,0,.13,1.24,1.24,0,0,0,0,.16l.15.62.14.61c.06.28.12.56.17.85v.07h0c0,.13,0,.26.08.4s.05.26.07.39,0,.33.07.49l0,.19a34.77,34.77,0,0,1,.34,4.8,32.85,32.85,0,0,1-2.76,13.31,1.47,1.47,0,0,1-.1.22l-.36.8.46.13.35.1.08,0a12.11,12.11,0,0,0,3,.38c7,0,12.75-6.11,12.75-13.62S80,25.55,72.93,25.55Zm0,25.79a10.56,10.56,0,0,1-2-.18,34.37,34.37,0,0,0,2.63-13.33A35.05,35.05,0,0,0,73.28,33l0-.21c0-.24-.07-.47-.11-.7s-.06-.38-.09-.57,0-.16,0-.25l0-.08c0-.31-.11-.6-.18-.91l-.14-.63q-.07-.32-.18-.69l-.06-.25c0-.09,0-.18-.08-.26l0-.19,0-.15c0-.08-.05-.15-.07-.22s-.08-.23-.11-.34L72,27.17l0-.12h0c6.69-.63,12.37,5.06,12.37,12.12C84.32,45.88,79.21,51.34,72.93,51.34Z"/><path class="cls-1" d="M43.42.84a.57.57,0,0,1-.28.27.48.48,0,0,1-.24.06l-1.09,0A31.23,31.23,0,0,0,29.21,3.8,34.09,34.09,0,0,0,13.8,17.59c-.1.17-.2.34-.29.51a.55.55,0,0,1-1.06-.22.52.52,0,0,1,0-.18l.12-.21c.14-.25.28-.49.43-.72A35.17,35.17,0,0,1,28.39,2.92,32.23,32.23,0,0,1,41.81,0c.34,0,.68,0,1,0a.67.67,0,0,1,.61.41A.65.65,0,0,1,43.42.84Z"/><g id="_Repetición_radial_" data-name="&lt;Repetición radial&gt;"><path class="cls-1" d="M62.35,30.17l-5.25-.66a13.18,13.18,0,0,0-.79-2l.28-.35a.79.79,0,0,0-.06-1.06h0a.79.79,0,0,0-1.18.06l-.61.75a.81.81,0,0,0-.08.88,12.58,12.58,0,0,1,1.05,2.62.8.8,0,0,0,.68.6l5.06.64,0,5.24-5.1.53a.82.82,0,0,0-.68.57,13.25,13.25,0,0,1-1.12,2.62.79.79,0,0,0,.07.88l3.12,4L54,49.21,50,46a.8.8,0,0,0-.89-.08A13,13,0,0,1,46.49,47a.79.79,0,0,0-.6.67l-.64,5.06-5.24,0-.52-5.09a.81.81,0,0,0-.57-.68,13.28,13.28,0,0,1-2.62-1.13.82.82,0,0,0-.89.06l-4,3.13L27.7,45.21l3.23-4a.8.8,0,0,0,.07-.89,13.16,13.16,0,0,1-1-2.61.82.82,0,0,0-.67-.59l-5.06-.64,0-5.24,5.1-.53a.81.81,0,0,0,.68-.57,12.45,12.45,0,0,1,1.12-2.62.83.83,0,0,0-.07-.88l-3.12-4L31.7,19l4,3.22a.8.8,0,0,0,.89.08,13,13,0,0,1,2.63-1.05.78.78,0,0,0,.57-.67l.64-5.07,5.25,0,.53,5.1a.81.81,0,0,0,.59.69,13.56,13.56,0,0,1,2.6,1.11.79.79,0,0,0,.88-.07L51,21.8A.79.79,0,0,0,51,20.61h0A.82.82,0,0,0,50,20.54l-.28.22a15.35,15.35,0,0,0-2-.83l-.55-5.3a.82.82,0,0,0-.8-.72l-6.67,0h0a.82.82,0,0,0-.8.7l-.65,5.25a14.72,14.72,0,0,0-2,.79l-4.14-3.35a.81.81,0,0,0-1.06,0L26.34,22a.8.8,0,0,0-.07,1.06l3.24,4.18a14.45,14.45,0,0,0-.84,2l-5.29.56a.79.79,0,0,0-.71.78l0,6.67a.79.79,0,0,0,.7.8l5.24.67a14.46,14.46,0,0,0,.79,2L26,44.76a.78.78,0,0,0,0,1.06l4.69,4.76a.79.79,0,0,0,1.05.07L36,47.41a15,15,0,0,0,2,.84l.54,5.28a.79.79,0,0,0,.79.72l6.67,0a.79.79,0,0,0,.8-.7l.66-5.25a15.12,15.12,0,0,0,2-.79l4.13,3.35a.81.81,0,0,0,1.06,0l4.76-4.69a.8.8,0,0,0,.06-1.06l-3.24-4.17A13.6,13.6,0,0,0,57,39l5.29-.56a.78.78,0,0,0,.71-.78l0-6.67A.81.81,0,0,0,62.35,30.17Z"/></g><path class="cls-1" d="M42.84,24.23a9.86,9.86,0,1,0,9.85,9.86A9.87,9.87,0,0,0,42.84,24.23Zm0,18.16a8.31,8.31,0,1,1,8.3-8.3A8.31,8.31,0,0,1,42.84,42.39Z"/><line class="cls-2" x1="14.79" y1="45.03" x2="14.79" y2="45.03"/></g></g></svg>